<svg xmlns="http://www.w3.org/2000/svg" width="200mm" height="100mm" viewBox="0 0 20000 10000" shape-rendering="geometricPrecision" text-rendering="geometricPrecision" image-rendering="optimizeQuality" fill-rule="evenodd" clip-rule="evenodd"><defs><style>.fil0,.fil10{fill:#454545;fill-rule:nonzero}.fil10{fill:#50a4c2}.fil11{fill:#71b9d3}.fil11,.fil2,.fil3{fill-rule:nonzero}.fil3{fill:#b7b7b7}.fil2{fill:#cbcbcb}.fil4,.fil8,.fil9{fill-rule:nonzero}.fil9{fill:#eaeaea}.fil8{fill:#f2f2f2}.fil4{fill:#fff}</style></defs><g id="Layer_x0020_1"><g id="_2907235290256"><path class="fil0" d="M8249.08 927.28s-175.69 1012.38-80.42 1148.67c95.31 136.24 1577.12 119.23 1751.38 0C10094.32 1956.72 9851.17 835 9851.17 835l-1602.09 92.28z"/><path fill="#bcbcbc" fill-rule="nonzero" d="M9235.85 1671.49H8887.4l-174.17 604.66 348.45 394.89 348.35-431.95z"/><path class="fil2" d="M9769.98 941.36c0-713.39-716.8-683.14-716.99-683.11-.35-.03-717.21-44.97-717.21 683.11 0 0-1.04 420.19 111.82 577.38 148.36 206.58 522.68 314.63 605.34 314.63 85.41 0 459.37-94.4 605.28-314.63 115.11-173.79 111.76-577.38 111.76-577.38z"/><path class="fil2" d="M9751.75 1026.55s44.37-86.96 93.81-27.98c49.43 58.78 39.62 298.88-117.46 299.15 0 0 22.88-214.07 23.65-271.17z"/><path class="fil3" d="M9752.46 1114.37s31.83-85.47 63.47-41.4c31.64 43.93 15.56 101.03-31.75 139.72 0 0 21.42-155.34-31.72-98.32z"/><path class="fil2" d="M8343 1026.55s-44.48-86.96-93.92-27.98c-49.48 58.78-33.59 298.88 123.6 299.15 0 0-29-214.07-29.68-271.17z"/><path class="fil3" d="M8342.16 1114.37s-31.84-85.47-63.4-41.4c-31.58 43.93-15.61 101.03 31.7 139.72 0 0-21.39-155.34 31.7-98.32zm796.19 258.46c0 29.35-37.7 52.98-84 52.98-46.47 0-84.07-23.63-84.07-52.98 0-29.24 37.6-52.9 84.07-52.9 46.3 0 84 23.66 84 52.9z"/><path class="fil4" d="M8854.21 1482.69c-.22 2.69-.6 5.39-.6 8.12 0 78.98 89.25 142.91 199.3 142.91 110.04 0 199.3-63.93 199.3-142.91 0-2.73-.36-5.43-.57-8.12h-397.43z"/><path d="M9415.39 1146.87c0 29.14-17.79 52.93-39.73 52.93-21.97 0-39.73-23.79-39.73-52.93 0-29.31 17.76-53.05 39.73-53.05 21.94 0 39.73 23.74 39.73 53.05zm-640.03 0c0 29.14-17.77 52.93-39.71 52.93-21.96 0-39.76-23.79-39.76-52.93 0-29.31 17.8-53.05 39.76-53.05 21.94 0 39.71 23.74 39.71 53.05z" fill="#4b4b4b" fill-rule="nonzero"/><path class="fil0" d="M9275.29 960.66s11.83-13.87 34.86-25.29c11.45-5.81 25.45-11.5 41.2-14.72 15.75-3.87 33.22-4.57 50.72-4.16 17.47 2.04 35.16 4.96 50.61 11.95 15.42 6.19 28.7 15.22 38.34 24.48 20.09 17.77 24.48 36.6 25.1 35.76-.57.75-17.14-5.73-39.24-10.77-11.12-2.59-23.44-5.29-36.68-7.19-6.47-1.66-13.55-1.15-20.28-2.57-6.87-1.3-14.12-1-21.17-1.74-28.51-2.18-58.33-2.13-82.04-3.22-23.62-.57-41.42-2.53-41.42-2.53zm-444.71 0s-11.91-13.87-34.94-25.29c-11.39-5.81-25.42-11.5-41.15-14.72-15.75-3.87-33.11-4.57-50.77-4.16-17.41 2.04-35.13 4.96-50.55 11.95-15.51 6.19-28.79 15.22-38.38 24.48-20.08 17.77-24.47 36.6-25.09 35.76.54.75 17.08-5.73 39.26-10.77 11.12-2.59 23.42-5.29 36.71-7.19 6.41-1.66 13.49-1.15 20.25-2.57 6.84-1.3 14.07-1 21.17-1.74 28.51-2.18 58.35-2.13 82.04-3.22 23.6-.57 41.45-2.53 41.45-2.53z"/><path class="fil0" d="M8343 1026.55s311.28-228.72 377.86-489.15c0 0 706.66 370.06 1048.09 464.16l76.61-2.99S9969.36 40.5 9051.19 40.5c-922.91 0-802.11 958.07-802.11 958.07l93.92 27.98z"/><path d="M9925.54 2202.05l-583.75-185.29c-70.01 309.34-221.03 319.27-279.97 317.76v-.38s-2.07.09-5.51.31c-3.51-.22-5.58-.31-5.58-.31v.38c-58.89 1.51-192.79-8.42-262.78-317.76l-574.7 185.29 66.39 487.85s-71.43 355.81 106.4 615.51c177.79 259.64 82.08 769.2 82.08 769.2H9644.4s-95.74-509.56 82.09-769.2c177.85-259.7 106.37-615.51 106.37-615.51l92.68-487.85z" fill="#b0b0b0" fill-rule="nonzero"/><path d="M9637.18 4074.61H8464.71s-305.42 582.62-264.54 1330.05C8241.07 6152.2 8547.53 9589 8547.53 9589h382.77s-91.46-4403.1 120.46-4403.1v-1.5l.38 1.5c211.94 0 120.46 4403.1 120.46 4403.1h382.79s306.45-3436.8 347.33-4184.34c40.91-747.43-264.54-1330.05-264.54-1330.05z" fill="#202020" fill-rule="nonzero"/><path class="fil2" d="M8894.27 9589s27.63 184.06 0 294.03h-704.86s-69.09-30.02 0-74.98c69.08-45.02 368.53-219.05 368.53-219.05h336.33z"/><path class="fil8" d="M8532.62 9721.9c-149.59 55.87-224.94 14.12-224.94 14.12-51.32 30.52-96.36 57.75-118.27 72.03-69.09 44.96 0 74.98 0 74.98h704.86c27.63-109.97 0-294.03 0-294.03h-149.56s-62.47 77.02-212.09 132.9z"/><path class="fil2" d="M9196.18 9589s-27.67 184.06 0 294.03h704.86s69.09-30.02 0-74.98c-69.09-45.02-368.59-219.05-368.59-219.05h-336.27z"/><path class="fil8" d="M9557.79 9721.9c149.59 55.87 224.98 14.12 224.98 14.12 51.31 30.52 96.36 57.75 118.27 72.03 69.09 44.96 0 74.98 0 74.98h-704.86c-27.67-109.97 0-294.03 0-294.03h149.56s62.46 77.02 212.05 132.9z"/><path class="fil9" d="M9341.79 2016.76l-280.13 1515.99-15.78 1741.78 92.47 1884.52h1111.61l-378-3626.3 79.88-1357z"/><path class="fil4" d="M9341.79 2016.76l314.01 81.84-269.59 378.24 133.21 194.2-457.76 861.71zm-129.18 1388.85a183.404 183.404 0 00-13.9 70.16c0 101.7 82.44 184.11 184.15 184.11h131.98c101.68 0 184.15-82.41 184.15-184.11 0-24.89-5.02-48.54-13.9-70.16h-472.48z"/><path class="fil8" d="M9951.84 2175.75s294.93 472.08 400.15 1261.2c105.22 789.16 249.91 2051.75 249.91 2051.75l-520.47 53.45s-267.76-1736.9-281.36-2170.95c-13.63-434.04 151.77-1195.45 151.77-1195.45z"/><path class="fil2" d="M10200.58 5529.91s-50.56 313.93 0 322.7c50.58 8.8 76.88-208.72 129.5-161.36 52.62 47.36-8.74 266.59 0 336.73 8.75 70.18 131.5-17.52 175.37-122.74 43.83-105.23 0-406.59 0-406.59l-304.87 31.26z"/><path class="fil9" d="M8788.36 2016.76l280.17 1515.99 14.84 1785.13-91.51 1841.17H7880.24l377.95-3626.3-79.85-1357z"/><path class="fil4" d="M8788.36 2016.76l-313.97 81.84 269.58 378.24-133.21 194.2 457.77 861.71z"/><path class="fil8" d="M8178.34 2175.75s-294.93 472.08-400.15 1261.2c-105.23 789.16-249.91 2051.75-249.91 2051.75l520.47 53.45s267.76-1736.9 281.36-2170.95c13.62-434.04-151.77-1195.45-151.77-1195.45z"/><path class="fil2" d="M7929.58 5529.91s50.57 313.93 0 322.7c-50.56 8.8-76.88-208.72-129.48-161.36-52.63 47.36 8.75 266.59 0 336.73-8.75 70.18-131.5-17.52-175.34-122.74-43.86-105.23 0-406.59 0-406.59l304.82 31.26z"/><path class="fil4" d="M9253.51 4099.93c0 34.45-27.9 62.36-62.35 62.36-34.44 0-62.32-27.91-62.32-62.36 0-34.42 27.88-62.33 62.32-62.33 34.45 0 62.35 27.91 62.35 62.33zm0 526.09c0 34.45-27.9 62.35-62.35 62.35-34.44 0-62.32-27.9-62.32-62.35 0-34.39 27.88-62.3 62.32-62.3 34.45 0 62.35 27.91 62.35 62.3zm0 526.09c0 34.41-27.9 62.38-62.35 62.38-34.44 0-62.32-27.97-62.32-62.38 0-34.42 27.88-62.33 62.32-62.33 34.45 0 62.35 27.91 62.35 62.33z"/><path class="fil10" d="M8644.34 2008.36c-71.68 36.14-115.26 125.42-143.41 195.22-116.56 288.85-49.96 644.3 13.9 936.13 5.42 24.85 43.47 14.33 38.05-10.5-61.87-282.85-114.58-598.76-25.65-882.28 22.07-70.39 65.87-168.66 137.03-204.5 22.7-11.45 2.72-45.48-19.92-34.07z"/><path class="fil10" d="M8700.56 3191.02c0 80.32-65.09 145.37-145.37 145.37s-145.34-65.05-145.34-145.37c0-80.25 65.06-145.33 145.34-145.33s145.37 65.08 145.37 145.33z"/><path class="fil11" d="M8630.79 3191.02c0 41.79-33.85 75.61-75.6 75.61-41.75 0-75.57-33.82-75.57-75.61 0-41.72 33.82-75.57 75.57-75.57 41.75 0 75.6 33.85 75.6 75.57z"/><path class="fil10" d="M9426.9 2036.52c143.89 49.44 205.02 274.52 233.52 401.05 5.6 24.88 43.63 14.34 38.05-10.44-32.16-142.94-100.56-373.53-261.08-428.68-24.12-8.32-34.42 29.84-10.49 38.07z"/><path class="fil11" d="M9411.01 2787.68c-2.56 227.7 98.87 482.87 338.89 540.29 12.34 2.97 17.6-16.08 5.23-19.02-231.37-55.35-326.87-302.72-324.39-521.27.17-12.7-19.59-12.7-19.73 0z"/><path class="fil11" d="M9814.11 3313.34c0 24.04-22.9 43.55-51.21 43.55-28.29 0-51.18-19.51-51.18-43.55 0-24.07 22.89-43.5 51.18-43.5 28.31 0 51.21 19.43 51.21 43.5zm255.35-612.98c58.95 219.91 24.01 492.28-194.2 607.44-11.29 5.94-21.07-11.17-9.84-17.11 210.42-111 241.52-374.34 184.91-585.42-3.29-12.29 15.81-17.17 19.13-4.91z"/><path class="fil11" d="M9809.39 3309.6c5.99 23.25 33 36.47 60.42 29.49 27.36-7.06 44.75-31.64 38.78-54.89-5.97-23.3-33.01-36.49-60.37-29.46-27.44 7.01-44.8 31.56-38.83 54.86zm-367.2-523.83c-28.65-388.73 523.76-459.34 594.06-75.7 5.33 29.19 49.7 16.78 44.38-12.24-79.54-434.33-716.93-352.54-684.47 87.94 2.18 29.41 48.2 29.66 46.03 0z"/></g></g></svg>