<svg xmlns="http://www.w3.org/2000/svg" width="200mm" height="100mm" viewBox="0 0 20000 10000" shape-rendering="geometricPrecision" text-rendering="geometricPrecision" image-rendering="optimizeQuality" fill-rule="evenodd" clip-rule="evenodd"><defs><style>.fil1,.fil4,.fil7{fill-rule:nonzero}.fil7{fill:#2f2f2f}.fil1{fill:#3e3e3e}.fil4{fill:#757575}.fil0,.fil5,.fil6{fill-rule:nonzero}.fil5{fill:#7e7e7e}.fil6{fill:#a2a2a2}.fil0{fill:#c1c1c1}</style></defs><g id="Layer_x0020_1"><g id="_2907383737984"><path class="fil0" d="M12671.12 2132.48l-307.61-302.23 31.59-37.44 115.43-135.96 20.52-24.42-13.72-70.96-113.86-590.3-53.83-281.45-12.19-62.48-273.8 92.54-333.16 112.63L11044.3 1064l56.48 305.4 115.79 167.8 3.75 5.24-73.07 389.93 242.76 92.5 226.46 398.52 288.11-53.28 77.51-91.26 157.14 169.58c163.69-112.74 380.29-210.67 531.89-315.95z"/><path class="fil1" d="M12517.33 1561.32l-7.06 95.93-115.43 135.3s-236.47-176.17-277.15-206.33l109.86-179.19-65.83-158.85-187.7-32.68-50.44 119.65c-176.68-133.55-337.27-324.46-312.75-314.6l119.66-187.88 607.11-205.18 179.73 933.83z"/><path d="M11216.57 1537.2l-115.79-167.8-56.48-305.4 686.19-231.59 333.16-112.63c.36-.11.87-.11 1.27-.11l-334.43 113-119.66 187.88c-.65-.25-1.16-.32-1.53-.32-12.33 0 90.76 123.83 222.97 240.21-242.62 114.23-476.03 216.68-615.7 276.76zm1143.63-792.34l-10.56-55.14 10.56 55.14z" fill="#ababab" fill-rule="nonzero"/><path d="M11832.27 1260.44c-132.21-116.38-235.3-240.21-222.97-240.21.37 0 .88.07 1.53.32l119.66-187.88 334.43-113c103.21-12.99 199.5-22.96 284.72-29.95l10.56 55.14 43.27 226.31c-165.36 93.05-371.41 195.13-571.2 289.27z" fill="#252525" fill-rule="nonzero"/><path class="fil4" d="M10979.59 1199.71s-202.58 67.87-237.88 134.53c-28.13 53.64-108.63 283.45 10 254.05 118.49-29.55 1905.4-746.16 1829.42-818.83-76.28-72.5-58.81-158.67-237.89-80.72l-1363.65 510.97z"/><path class="fil5" d="M12437.46 704.13s-208.85 224.83-692.34 402.23c-423.67 155.47-801.33 222.46-801.33 222.46-48.91-115.69-80.39-222.86-96.8-321.84-4.63-27.84-7.83-54.99-10.27-81.41-39.95-462.16 264.06-728.04 611.45-814.06 348.69-86.14 700.3 64.37 883.9 348.69l7.71 12.2c43.63 69.94 76.75 147.89 97.68 231.73z"/><path class="fil4" d="M12339.78 472.4l-4.11-1.64c-14.12-5.79-35.19-13.76-60.74-25.04-12.95-5.53-26.96-11.93-43.01-18.34-15.76-5.42-32.97-12.19-51.2-18.63-18.24-7.06-37.38-14.12-57.65-21.84-20.92-6.44-42.61-13.21-65.21-20.01-11.32-3.5-22.85-7.5-34.53-11.03-11.94-3.64-24.02-5.93-36.36-8.99-24.75-5.42-49.67-13.39-76.13-17.86-26.16-4.37-53.02-8.88-80.46-13.21-28.02-2.33-55.86-4.88-84.24-7.46-28.61.91-57.5-.55-86.65.91-14.27 1.41-29.01 2.91-43.38 4.47l-22.09 1.97-21.58 4.18c-14.23 2.73-28.75 5.42-43.01 8.23-14.49 3.45-28.5 8.07-42.87 11.93-28.75 6.84-55.72 20.02-83.56 30.46-13.35 6.15-26.45 13.32-39.81 20.02l-20.01 9.79-18.89 11.68c-12.59 8.15-25.55 15.61-37.88 23.83-12.05 8.74-23.98 17.47-36.18 26.28-46.61 36.39-90.65 75.54-129.04 118.81-19.9 20.27-36.83 43.49-55.31 64.31-16.71 22.6-34.17 43.78-49.06 66.08-31.33 43.67-57.49 87.3-81.77 128.03-23.25 41.23-44.94 79.07-61.9 114.12-9.35 19.14-18.09 37.37-26.16 53.53-4.63-27.84-7.83-54.99-10.27-81.41 10.27-34.9 23.62-73.4 39.78-114.37 18.89-45.46 40.32-94.47 68.56-144.29 13.21-25.41 30.02-49.42 45.56-75.22 17.47-24.93 34.54-50.59 54.84-74.86 38.25-49.97 85.23-97.06 137.23-139.92 51.5-43.78 112.09-78.32 174.46-108.63 32.35-12.34 64.34-26.82 97.97-34.79 16.66-4.22 33.51-9.64 50.18-12.92 16.96-2.98 33.92-5.57 50.58-8.26l25.04-4.08 25.44-1.31c16.92-.76 33.62-1.67 50.29-2.4 32.9.22 65.5 2.8 97.45 4.59 31.19 5.13 62.27 9.64 92.18 15.17 29.15 7.79 57.9 15.54 86.03 22.78 27.33 8.37 53.02 19.18 78.42 28.13 12.45 5.21 24.64 9.39 36.58 14.78l34.02 16.19c22.35 10.77 43.42 21.33 63.83 31.33 19.11 11.43 37.49 22.2 54.41 32.47 17.1 10.26 33.26 19.54 47.63 28.74 14.27 9.65 26.97 19.15 38.65 27.52 19.14 13.31 34.68 25.43 46.22 33.98l7.71 12.2zm-841.14 726s-92.07-162.56-65.1-197.1c26.96-34.5 387.31-194.33 419.95-179.99 32.6 14.41 135.92 210.34 126.82 225.34l-481.67 151.75z"/><path class="fil6" d="M11025.56 5187.69l-577.86 63.28-395.28 776.4 718.8-139.41s240.33-409.91 271.55-405.91l-17.21-294.36z"/><path class="fil6" d="M12529.01 2996.62l-541.49 1433.88-944.75 1051.55-271.55-186.79 813.56-1197.63 368.2-1456.62z"/><path class="fil4" d="M13943.24 7319.62l-458.2-1883.56-6.15-21.98c-109.13 232.57-428.03 910.75-664.39 1392.43l358.6 846.41 614.53 694.05 910.87-87.7-755.26-939.65z"/><path class="fil7" d="M14698.5 8259.27l-910.87 87.7 604.42 854.21-419.15 225.19-81.41 391.67 1463.91-391.67z"/><path class="fil0" d="M11890.06 4297.45l4.37 48.7-4.11-48.55zm112.34 534.73l116.16 520.58-224.13-1006.61zm516.21 3330.15c3.85-470.76 9.35-860.14 20.92-841.66-13.35-21.47-18.23 314.02-20.92 841.66z"/><path class="fil7" d="M11855.93 3893.7l726.47 197.6 371.41-1348.76-970.55-135.85s-202.59 286.47-299.5 604.57l172.17 682.44zm815.19-1761.22c-168.16 75.88-410.31 185.27-591.72 266.27l.66 1.13-.66 1.06 874.41 60.59-282.69-329.05z"/><path class="fil5" d="M13517.54 5331.54l-369.37-1220.08 145.35-1254.18-339.71-395.75-874.41-60.59-96.14 205.75 970.55 135.85-371.41 1348.76-726.47-197.6 34.39 403.9 4.11 48.55 224.13 1006.61-437.89 1475.73 93.85 1501.89-4.22-71.11h747.54c0 30.42 0 61.87-.14 92.8h.14c.11-65.72.37-128.75.77-189.74 2.69-527.64 7.57-863.13 20.92-841.66 9.5 15.54 125.7-210.01 274.97-514.16 236.36-481.68 555.26-1159.86 664.39-1392.43 24.38-52.08 38.65-82.54 38.65-82.54z"/><path class="fil7" d="M11770.3 8259.27l4.22 71.11 57.75 928.19-532.87 232.86-163.83 346.37 1381-108.7s-1.31-556.05 0-1133.25c.51-81.62.87-163.03 1.13-243.78.14-30.93.14-62.38.14-92.8h-747.54z"/><path fill="#50a4c2" fill-rule="nonzero" d="M7921.08 6468.61l6239.63-1775.84-66.77-229.45-6239.6 1775.85z"/><path class="fil0" d="M12785.39 2918.16l1056.79 1257.71-1291.37 790.71-372.93-71.62 859.26-694.31-718.43-861.12z"/><path class="fil0" d="M12416.42 4704.31l-503.14 291.16-104.48 742.45 478.72-340.47s233.27-421.74 263.29-430.87l-134.39-262.27z"/><path d="M7106.75 6541.18v19.1c34.83 114.64 885.22 428.76 885.22 428.76l1275.68-333.12-167.03-598.63h-1.38l-50.22-177.92-129.01-462.16-1201.52 404.88s-437.24 421.77-572.29 634.19c-22.6 34.72-35.7 63.43-39.45 84.9z" fill="#71b9d3" fill-rule="nonzero"/><path class="fil1" d="M8186.59 6688.16l-105.03-164.99h-477.81L7391 6740.93l212.75 273.8-59.72 330.33 244.69 212.74 65.62-287.45 481.01-119.37 144.69-289.41z"/><path d="M7146.2 6456.28c135.05-212.42 572.29-634.19 572.29-634.19l1201.52-404.88 129.01 462.16c-287.71 38.25-1288.79 194.73-1902.82 576.91z" fill="#2b85a6" fill-rule="nonzero"/><path class="fil1" d="M10052.17 9847.81H4458.29l537.53-1114.44s498.12-856.46 517.26-856.46c4.73 0 56.08-20.41 127.84-50.18 206.56-83.7 588.88-247.24 588.88-247.24l537.54 695.17 338.03-424.17s279.48 65.76 285.49 6.01c5.93-59.65 173.18 334.46 173.18 334.46l533.93 223.52 88.47 463.29 751.29 9.65 537.5 769.27 378.72-187.45 198.22 378.57z"/><path d="M8473.13 9847.81H4458.29l537.53-1114.44s498.12-856.46 517.26-856.46c4.73 0 56.08-20.41 127.84-50.18l489.79 886.37h1015.2l244.95 386.8 544.74 280.87 537.53 467.04z" fill="#2b2b2b" fill-rule="nonzero"/><path class="fil1" d="M8097.61 7857.55l382.43-223.73 139.05 408.23-260.63 248.81z"/></g></g></svg>