<svg xmlns="http://www.w3.org/2000/svg" width="200mm" height="100mm" viewBox="0 0 20000 10000" shape-rendering="geometricPrecision" text-rendering="geometricPrecision" image-rendering="optimizeQuality" fill-rule="evenodd" clip-rule="evenodd"><defs><style>.fil2,.fil4,.fil7{fill-rule:nonzero}.fil7{fill:#2b85a6}.fil2{fill:#2f2f2f}.fil4{fill:#757575}.fil0,.fil3,.fil5{fill-rule:nonzero}.fil3,.fil5{fill:#7e7e7e}.fil5{fill:#868686}.fil0{fill:#c1c1c1}</style></defs><g id="Layer_x0020_1"><g id="_2907240040368"><path class="fil0" d="M7780.99 3062.01l249.07-291.14-36.26-29.72-133.22-109.17-23.82-19.47.39-70.22 4.54-581.26 1.61-277.43.49-61.3 275.23 39.62 334.91 48.22 689.56 99.31v300.86l-79.69 179.73-2.83 5.91 137.17 357.75-213.3 130.99-144.45 418.94h-281.87l-89.06-73.15-119.03 188.86c-174.45-78.33-407.58-184.18-569.44-257.33z"/><path d="M7837.15 2542.29l23.67 89.94 132.98 108.68s192.67-209.35 225.85-245.23l-135.18-151.13 34.3-162.7 171.94-64.27 68.6 104.87c143.72-158.02 262.01-367.75 240.79-354.15l102-678.23-500.94-57.38-357.37 489.86-6.64 919.74z" fill="#3e3e3e" fill-rule="nonzero"/><path class="fil0" d="M8532.37 5156.1l-3.95 47.27 3.95-47.03z"/><path class="fil2" d="M8565.31 4765.44l-698.69 191.2-195.53-1134.89 771.87-301.11s194.76 277.05 288.02 584.83l-165.67 659.97zm-784.32-1703.43c161.86 73.15 394.99 179 569.44 257.33l-.73 1.22.73 1.12-841.17 58.57 271.73-318.24z"/><path class="fil3" d="M8565.31 4765.44l-32.94 390.9-3.95 47.03-146.17 659.69H7055.31l267.05-886.7-139.77-1213.19 326.67-382.92 841.17-58.57 92.53 198.96-771.87 301.11 195.53 1134.89z"/><path class="fil4" d="M5190.65 9677.89l358.45-239.95s152.84-825.85 169.87-919.11c32.06 36.85 245.71 138.89 524.65 262.74 622.31 275.58 1569.82 656.62 1569.82 656.62l263.02-3014.46-1229.13-2.34 165.39 1953.72-706.2-146.3-893.72-260.05-222.15 1709.13z"/><path class="fil0" d="M8336.97 6026.26c-16.16 72.66-32.31 145.22-48.61 217.84 14.94-66.96 29.87-133.96 44.8-200.92l3.81-16.92zm979.22 2072.54c-3.6-463.35-9.26-846.38-20.49-828.48 12.94-21.08 17.91 309.15 20.49 828.48z"/><path class="fil3" d="M8480.82 5375.31l-143.85 868.79 1798.93 542.17-91.65 1477.58 4.19-69.73h-731.51v91.06c-.14-64.66-.39-126.58-.74-186.38-2.58-519.33-7.55-647.14-20.49-626.05-9.12 15.28-2116.67-331.35-2116.67-331.35l-345.27-759.25 401.29-1116.26 1245.77 109.42z"/><path class="fil2" d="M10048.44 8194.12l-4.19 69.73-57.14 823.51 521.33 229.32 160.36 340.72-1351.38-106.97s1.36-546.81 0-1115c-.49-80.32-.25-70.7-.49-150.25v-91.06h731.51zM5190.65 9677.89l557.94-285.33s199.1-641.58 216.09-734.84c32.1 36.89 0 0 278.94 123.85l62.9-552.76-893.72-260.05-222.15 1709.13zm6319.08-6995.69h779.1v-136.34h-779.1z"/><path class="fil0" d="M8066.08 4403.25l1493.24 210.47 1288.72-903.24-32.94-320.58-1352.6 721.86s-886.84-237.46-1158.96-303.83l-237.46 595.32z"/><path class="fil5" d="M11639.24 2470.75l-248.82 1958.17-335.41-8.88L11273 2456.2z"/><path fill="#71b9d3" fill-rule="nonzero" d="M8312.91 1957.36v513.04l36.79 591.12 495.87 381.04 229.56-179 382.3-1606.85-304.32-492.44-587.56-146.9z"/><path class="fil7" d="M9336.54 2162.97l-451.74-190.96-118.19 416.11 466.29 157.77z"/><path class="fil5" d="M8312.67 1957.6l-475.52-215.15 13.32 107.56 462.2 229.6z"/><path class="fil7" d="M8845.57 3442.56L8459.6 3146l-109.9-84.48-36.79-591.12v-513.04l252.64-939.99 587.56 146.9-451.01 915.82-50.18 774.32z"/><path class="fil3" d="M9950.36 3743.91l215.12 676.13 649.62-686.48 253.37 74.37h469.47l101.3-731.13h-497.02l-327.12 313.1zm2327.39-1330.75l-301.39-1126.26-215.26 100.42z"/><path class="fil4" d="M12147.21 2399.1l-661.93-488.14-110.39 122z"/><path class="fil3" d="M12096.51 2854.41l-394.6 666.23 197.35 65.39z"/><path class="fil4" d="M12204.84 2788.29L12147.21 4084l-172.56-46.23z"/><path class="fil5" d="M12288.83 9686.63h657.74V38.15h-657.74z"/><path fill="#5c5c5c" fill-rule="nonzero" d="M12946.57 9686.63h-657.74l646.41-9648.48h11.33z"/></g></g></svg>