<svg xmlns="http://www.w3.org/2000/svg" viewBox="0 0 85 40" fill-rule="evenodd" clip-rule="evenodd" stroke-linejoin="round" stroke-miterlimit="1.414"><path d="M1.336 31.626c0 .109-.003.236-.013.339h.135l.012-.26h.007a.584.584 0 00.538.292c.328 0 .669-.256.669-.771 0-.435-.263-.742-.641-.742-.266 0-.451.117-.55.304h-.007v-.968h-.15v1.806zm.15-.509a.527.527 0 01.519-.513c.341 0 .528.293.528.624 0 .377-.196.649-.54.649a.505.505 0 01-.494-.365.404.404 0 01-.013-.106v-.289zm1.884-.601l.556 1.342c.013.031.02.052.02.063a.186.186 0 01-.02.065 1.16 1.16 0 01-.25.364.802.802 0 01-.262.16l.047.121a.957.957 0 00.262-.151c.197-.166.326-.435.507-.884l.45-1.08h-.159l-.367.938c-.046.118-.083.233-.115.32h-.006a5.13 5.13 0 00-.109-.31l-.395-.948H3.37z" fill="#1b1a1b" fill-rule="nonzero" stroke="#000" stroke-width=".09"/><path d="M31.852 38.983h.345v-1.999c.173.049.367.056.59.056.598 0 1.115-.18 1.424-.521.224-.235.339-.534.339-.936 0-.388-.137-.701-.374-.916-.267-.249-.705-.395-1.281-.395-.41 0-.762.041-1.043.091v4.62zm.345-4.378a3.52 3.52 0 01.684-.055c.769 0 1.323.332 1.323 1.068 0 .742-.517 1.145-1.388 1.145-.238 0-.454-.014-.619-.069v-2.089zm4.382 4.454c.763 0 1.648-.534 1.648-1.769 0-1.02-.649-1.713-1.605-1.713-.856 0-1.633.631-1.633 1.769 0 1.04.69 1.713 1.583 1.713h.007zm.007-.278c-.705 0-1.251-.624-1.251-1.456 0-.716.395-1.471 1.279-1.471.915 0 1.267.84 1.267 1.45 0 .853-.569 1.477-1.287 1.477h-.008zm2.511.202h.345v-1.839c0-.111.007-.222.029-.319.094-.534.431-.93.907-.93.065 0 .114 0 .165.007v-.312a.906.906 0 00-.144-.013c-.468 0-.827.325-.979.749h-.02l-.015-.673h-.317c.022.325.029.666.029.999v2.331zm2.447-3.941v.611h-.583v.27h.583v2.102c0 .341.057.625.215.798.13.153.339.229.59.229a1.4 1.4 0 00.482-.076l-.043-.25a1.322 1.322 0 01-.395.048c-.367 0-.504-.263-.504-.686v-2.165h.986v-.27h-.986v-.735l-.345.124zm4.245 1.846c0-.59-.195-1.311-1.195-1.311-.31 0-.698.083-1.014.284l.107.243c.252-.174.568-.25.87-.25.821-.007.886.652.886.978v.09c-1.41-.014-2.108.451-2.108 1.221 0 .444.317.916 1.015.916.554 0 .935-.299 1.107-.555h.015l.05.479h.316a4.951 4.951 0 01-.049-.791v-1.304zm-.346 1.026a.552.552 0 01-.036.201c-.115.327-.446.666-1.022.666-.359 0-.691-.214-.691-.693 0-.798.993-.91 1.749-.888v.714zm1.46 1.069h.346V34.05h-.346v4.933zm1.54.076c.18 0 .295-.145.295-.312 0-.18-.115-.312-.288-.312-.172 0-.295.132-.295.312-.007.167.115.312.281.312h.007zm1.151-.076h.346v-1.839c0-.111.007-.222.028-.319.093-.534.432-.93.907-.93.064 0 .115 0 .165.007v-.312a.893.893 0 00-.143-.013c-.468 0-.828.325-.979.749h-.022l-.014-.673h-.316c.021.325.028.666.028.999v2.331zm3.353.076c.763 0 1.648-.534 1.648-1.769 0-1.02-.648-1.713-1.605-1.713-.856 0-1.633.631-1.633 1.769 0 1.04.691 1.713 1.583 1.713h.007zm.008-.278c-.706 0-1.252-.624-1.252-1.456 0-.716.395-1.471 1.28-1.471.914 0 1.266.84 1.266 1.45 0 .853-.568 1.477-1.287 1.477h-.007zm-41.933.242h1.216l-.296-5.345h-1.644l-.584 1.776a28.94 28.94 0 00-.527 1.919h-.033a21.716 21.716 0 00-.468-1.911l-.543-1.784H6.475l-.355 5.345h1.16l.107-2.031c.032-.666.065-1.49.091-2.211h.015c.14.704.321 1.458.502 2.085l.592 2.069h.979l.674-2.086c.214-.626.444-1.387.625-2.068h.016c0 .784.025 1.553.05 2.195l.091 2.047zm5.927-3.878H15.7v2.307c0 .103-.017.19-.05.262a.661.661 0 01-.624.42c-.444 0-.634-.341-.634-.904v-2.085h-1.249v2.276c0 1.196.591 1.688 1.414 1.688.723 0 1.102-.397 1.258-.634h.025l.057.548h1.085a24.59 24.59 0 01-.033-1.246v-2.632zm1.003 3.878h1.251v-2.237c0-.111.008-.222.041-.302.09-.221.295-.452.641-.452.452 0 .633.342.633.841v2.15h1.251V36.73c0-1.142-.617-1.672-1.439-1.672-.675 0-1.078.372-1.242.626h-.025l-.058-.539H17.92c.017.349.032.753.032 1.236v2.642zm6.069-5.638h-1.25v5.638h1.25v-1.215l.313-.38.977 1.595h1.539l-1.645-2.308 1.438-1.57h-1.504l-.813 1.165c-.1.143-.198.302-.288.468h-.017v-3.393zm6.594 3.345c0-.911-.419-1.672-1.759-1.672-.732 0-1.282.198-1.563.349l.231.768c.263-.15.699-.284 1.109-.284.617 0 .733.292.733.498v.048c-1.423 0-2.361.476-2.361 1.483 0 .618.486 1.189 1.299 1.189.478 0 .889-.166 1.151-.475h.026l.074.389h1.127c-.05-.215-.067-.572-.067-.937V36.73zm-1.208.88a.917.917 0 01-.024.207.691.691 0 01-.65.443c-.28 0-.494-.15-.494-.459 0-.46.51-.611 1.168-.611v.42z" fill="#1b1a1b" fill-rule="nonzero"/><path d="M64.423 27.313v12.288h-7.467V26.105c.282-.29.485-.565.73-.973.291-.483.639-1.15.94-1.94.303-.791.555-1.703.7-2.566.143-.862.178-1.674.161-2.504a21.339 21.339 0 00-.194-2.443 13.263 13.263 0 00-.422-1.991 6.663 6.663 0 00-.59-1.378 6.87 6.87 0 00-.933-1.301 9.814 9.814 0 00-.392-.411V4.651h14.136c2.719 0 5.114.484 7.18 1.443 2.064.959 3.653 2.326 4.765 4.096 1.114 1.77 1.666 3.785 1.666 6.046 0 3.424-1.215 6.128-3.645 8.111-2.429 1.974-5.794 2.966-10.093 2.966h-6.542zm0-5.85h6.669c1.971 0 3.475-.45 4.521-1.344 1.035-.893 1.554-2.171 1.554-3.834 0-1.712-.527-3.097-1.571-4.153-1.046-1.058-2.491-1.598-4.334-1.631h-6.839v10.962z" fill="#d29420" fill-rule="nonzero"/><path d="M6.702 20.748V2.729c.925-.5 1.814-.75 2.775-.75 1.961 0 3.219 1.248 3.219 3.033V21.89c0 4.103-2.664 6.494-7.14 6.494-1.963 0-3.627-.321-5.181-.963l.74-4.282c.924.463 2.072.678 3.033.678 1.666 0 2.554-1.178 2.554-3.069zM51.439 9.614c-2.183 0-4.329.678-5.92 2.606V2.764c0-1.499-.963-2.569-2.665-2.569-.998 0-2.071.321-3.071.749v27.083c2.664.214 6.587.357 8.511.357 6.476 0 10.324-3.675 10.324-9.955 0-5.532-2.849-8.815-7.179-8.815zm-3.7 14.666c-.629 0-1.369 0-2.22-.035v-5.21c0-3.782 1.591-5.066 3.811-5.066 2.258 0 3.478 1.676 3.478 4.46 0 3.71-1.923 5.851-5.069 5.851z" fill="#71b9d3" fill-rule="nonzero"/><path d="M60.712 5.92c.21 0 .417.053.618.157.201.104.357.254.469.449.113.194.169.397.169.607 0 .209-.055.41-.167.603a1.128 1.128 0 01-.464.449 1.296 1.296 0 01-1.251 0 1.143 1.143 0 01-.465-.449 1.185 1.185 0 01-.168-.603c0-.21.057-.413.169-.607a1.15 1.15 0 01.471-.449c.202-.104.408-.157.619-.157zm0 .202c-.177 0-.35.043-.516.131a1.002 1.002 0 00-.534.88.98.98 0 00.14.503c.092.16.222.285.388.374.166.089.34.135.522.135.181 0 .355-.046.521-.135a.998.998 0 00.527-.877 1.002 1.002 0 00-.534-.88 1.094 1.094 0 00-.514-.131zm-.552 1.68V6.5h.465c.159 0 .274.012.345.036a.338.338 0 01.234.316c0 .095-.035.18-.107.249a.42.42 0 01-.282.119.346.346 0 01.116.069c.054.052.121.137.2.259l.165.254h-.266l-.12-.205c-.095-.162-.171-.262-.229-.303a.291.291 0 00-.174-.045h-.129v.553h-.218zm.218-.733h.265c.126 0 .214-.019.26-.055a.174.174 0 00.069-.143.168.168 0 00-.034-.103.19.19 0 00-.092-.068.713.713 0 00-.22-.023h-.248v.392z" fill="#fefefe" fill-rule="nonzero"/><path d="M34.003 24.368l-1.723 1.354-.742-.878 1.723-1.354.742.878z" fill="#71b9d3" fill-rule="nonzero"/><path d="M34.562 24.599L32.4 26.297l-.412-.487 2.163-1.698.411.487z" fill="#71b9d3" fill-rule="nonzero"/><path d="M40.67 31.322c.414.489.704 1.143.211 1.529l-1.43.926c-.493.388-1.174-.012-1.587-.501l-5.598-6.628c-.412-.49.078-.696.572-1.082l.893-.703c.493-.386.802-.809 1.215-.319l5.724 6.778z" fill="#71b9d3" fill-rule="nonzero"/><path d="M27.937 6.618c5.568.854 9.365 5.899 8.479 11.268-.885 5.37-6.117 9.031-11.685 8.178-5.568-.854-9.365-5.898-8.48-11.269.885-5.369 6.116-9.03 11.686-8.177zm-.418 2.912c3.939.603 6.624 4.172 5.998 7.971-.625 3.798-4.326 6.388-8.266 5.785-3.939-.604-6.625-4.173-5.999-7.971.626-3.799 4.327-6.389 8.267-5.785z" fill="#71b9d3"/><path d="M23.006 12.757c-1.652 0-2.681.969-2.681 2.549v.036c0 .183.046.426.105.689.047.207.106.387.157.55-.044.04-.084.054-.127.116a.777.777 0 00-.128.535c.069.567.417.777.578.863.055.288.196.625.436.977.248.361.596.697 1.014.906l.016.007a.915.915 0 00.683.318.897.897 0 00.6-.253c.472-.197.846-.579 1.119-.97.245-.351.395-.689.451-.978.063-.032.101-.035.195-.123.157-.145.317-.388.361-.739a.82.82 0 00-.113-.529c-.038-.062-.078-.082-.12-.123a5.2 5.2 0 00.233-1.507c0-.295-.069-.658-.278-.978a1.172 1.172 0 00-.21-.231c-.162-.199-.397-.333-.736-.355a1.752 1.752 0 00-.414-.428c-.016-.011-.035-.023-.052-.036-.009-.006-.021-.008-.03-.014a1.674 1.674 0 00-.886-.275 1.938 1.938 0 00-.173-.007zm5.4.064c-1.129 0-1.956.491-2.47 1.073.221.353.33.777.33 1.187 0 .552-.095 1.054-.181 1.391.149.241.216.528.181.818a1.617 1.617 0 01-.616 1.108 3.613 3.613 0 01-.376.775c.478.142 1.328.367 1.923.37.369.43.826.694 1.299.694.475 0 .929-.269 1.299-.702.011.002.02.008.031.008 1.426 0 2.298-.229 2.336-.239a.242.242 0 00.172-.174.225.225 0 00-.075-.225c-.524-.45-.418-1.007-.285-1.716.064-.343.127-.701.127-1.079 0-1.573-.761-2.53-2.042-2.586-.189-.218-.713-.703-1.653-.703zm-4.198 1.971c.16.247.413.716.413 1.216.003.257.105.67.443.739.02.042.056.079.098.102a.327.327 0 01.097.101.325.325 0 01.052.232.714.714 0 01-.224.463c-.09.083-.151.102-.151.102a.236.236 0 00-.158.196c-.017.157-.159.534-.398.875-.238.342-.573.662-.915.805a.235.235 0 00-.091.064.403.403 0 01-.315.152.418.418 0 01-.323-.152.235.235 0 00-.091-.064c-.339-.143-.659-.464-.893-.805-.234-.34-.381-.716-.399-.875a.233.233 0 00-.158-.196s-.33-.081-.389-.565a.294.294 0 01.052-.225.415.415 0 01.12-.108.232.232 0 00.113-.197v-.007c.129-.175.188-.459.225-.637.104-.497.671-.637 1.487-.637.769 0 1.201-.346 1.405-.579zm5.25.348c.249.257.721 1.045.721 1.919 0 1.505-.92 2.716-1.683 2.716-.762 0-1.683-1.211-1.683-2.716 0-.566.338-.9.978-1.037.144-.03.297-.066.435-.107a2.667 2.667 0 001.232-.775zm-7.45 1.621a.236.236 0 00-.241.232c0 .129.107.232.241.232a.235.235 0 00.239-.232.236.236 0 00-.239-.232zm2.162 0a.237.237 0 00-.24.232c0 .129.108.232.24.232a.236.236 0 00.241-.232.237.237 0 00-.241-.232zm3.365.232a.237.237 0 00-.241.232c0 .129.108.232.241.232s.24-.103.24-.232a.236.236 0 00-.24-.232zm1.923 0a.235.235 0 00-.24.232c0 .129.106.232.24.232.132 0 .24-.103.24-.232a.237.237 0 00-.24-.232z" fill="#d29420"/><path d="M22.739 18.962c.508.118 1.147-.133 1.242-.536.039-.166-.25-.222-.335-.069a.744.744 0 01-.879.327c-.332-.114-.39-.37-.446-.607-.012-.052-.106-.049-.14-.013-.308.329.111.795.558.898zm6.107-.051c-.548.116-1.235-.131-1.337-.53-.041-.164.27-.219.36-.068.151.251.541.45.947.323.357-.113.42-.366.479-.6.014-.051.114-.049.151-.013.332.325-.119.786-.6.888z" fill="#d29420" fill-rule="nonzero"/></svg>