<svg viewBox="0 0 48 48" xmlns="http://www.w3.org/2000/svg"><circle cx="24" cy="24" r="12.244" fill="#5791ff"/><path d="M30.6 22.994c0-.492-.264-.85-.75-.85 0 0-2.804 0-2.806.002l-1.798.005c.107-.147.651-2.168.61-2.556s-.484-1.984-.484-1.984c-.717-.657-1.33-.6-1.847.133v2.141s-1.846 3.09-1.873 3.15c-.026.059-.816.552-.88.592l-.196.02a1.319 1.319 0 00-1.15-.699h-.693c-.737 0-1.335.598-1.335 1.335v4.177c0 .737.598 1.334 1.335 1.334h.692c.647 0 1.162-.47 1.284-1.08h.74c.198.128.393.26.59.389.166.109.397.16.618.16h5.846c.487 0 .941-.296.941-.783 0-.492-.045-.966-.531-.966h.057c.491 0 .85-.443.85-.935 0-.486.054-.875-.438-.875h.171c.487 0 .746-.425.746-.917 0-.487.063-.878-.423-.878h.17c.486 0 .554-.428.554-.915z" fill="#fff"/><circle cx="24" cy="24" r="12.244" fill="none" stroke="#303030" stroke-width=".7" stroke-linecap="round" stroke-linejoin="round" stroke-miterlimit="10"/><path d="M20.8 28.713h.649l.59.39c.087.053.325.16.618.16h5.845c.488 0 .942-.296.942-.783 0-.492-.045-.966-.531-.966h.057c.491 0 .85-.443.85-.935 0-.486.054-.875-.438-.875h.171c.487 0 .746-.425.746-.917 0-.487.063-.878-.423-.878h.17c.486 0 .554-.428.554-.915 0-.492-.264-.85-.75-.85l-4.604.007s.681-1.894.61-2.556c-.04-.388-.484-1.984-.484-1.984-.305-.851-1.787-.64-1.847.133v1.136c0 .658-.177 1.3-.513 1.865-.373.625-.868 1.46-1.146 1.93a1.873 1.873 0 01-.565.597l-.541.362m-1.335 6.161h-.692a1.335 1.335 0 01-1.335-1.335v-4.177c0-.737.598-1.335 1.335-1.335h.692c.737 0 1.335.598 1.335 1.335v4.177c0 .737-.598 1.335-1.335 1.335z" fill="none" stroke="#303030" stroke-width=".7" stroke-linecap="round" stroke-linejoin="round" stroke-miterlimit="10"/></svg>