<svg viewBox="0 0 48 48" xmlns="http://www.w3.org/2000/svg"><g fill="#303030"><circle cx="16.398" cy="33.308" r=".686"/><path d="M10.137 22.907a.35.35 0 00-.348.385l1.298 13.178a.35.35 0 00.348.316h7.475V22.908h-8.773zm6.261 9.015c.764 0 1.386.622 1.386 1.386s-.622 1.386-1.386 1.386a1.387 1.387 0 010-2.772zm-.878-7.136a.35.35 0 01.35-.35h.825a.35.35 0 110 .7h-.825a.35.35 0 01-.35-.35zm-.821.35h-2.676a.35.35 0 110-.7H14.7a.35.35 0 110 .7zm21.746-4.488c1.074 0 1.768.768 1.768 1.957 0 .872-.378 1.574-.965 1.905.237.3.396.768.396 1.484 0 1.002-.482 1.757-1.223 2 .194.305.318.75.318 1.39 0 .854-.365 1.528-.95 1.852.248.404.244.98.24 1.54v.201c0 1.045-.916 1.832-2.13 1.832l-4.72-.001a.354.354 0 01-.032.001h-6.3a2.25 2.25 0 00-.169.008 3.36 3.36 0 01-.228.01c-.105 0-.215-.009-.327-.04-.195-.056-.368-.168-.52-.266l-.107-.067a20.2 20.2 0 01-.735-.482l-.108-.076c-.14-.101-.207-.145-.279-.141-.255.005-.51.008-.764.01V24.01l-.014-.82c.481-.306.925-.6 1.058-.707.152-.327.348-.634.539-.932.09-.142.18-.282.264-.422l1.836-3.084c.087-.145.179-.29.27-.435a9.7 9.7 0 00.495-.842c.092-.155.091-.309.084-.55l-.006-3.322c0-.532.439-.903.73-1.149.382-.325.814-.508 1.246-.531a2.25 2.25 0 011.068.23c.186.087.361.193.529.311l.113.076c.195.127.438.285.536.647.2.741.382 1.415.551 2.092l.07.277c.108.418.22.85.265 1.294.068.658-.6 3.324-.996 4.517l8.197-.012z"/></g></svg>