<svg viewBox="0 0 48 48" xmlns="http://www.w3.org/2000/svg"><path d="M35.73 25.747l.835-.827a8.282 8.282 0 002.412-5.867 8.267 8.267 0 00-2.412-5.867c-3.222-3.222-8.503-3.222-11.734 0l-.827.836-.835-.836c-3.222-3.222-8.503-3.222-11.725 0a8.24 8.24 0 00-2.421 5.867c0 2.119.801 4.256 2.42 5.867l.828.827 11.307 11.307a.602.602 0 00.852 0l11.3-11.307" fill="#ef4b53"/><path d="M35.73 25.747l.835-.827a8.282 8.282 0 002.412-5.867 8.267 8.267 0 00-2.412-5.867c-3.222-3.222-8.503-3.222-11.734 0l-.827.836-.835-.836c-3.222-3.222-8.503-3.222-11.725 0a8.24 8.24 0 00-2.421 5.867c0 2.119.801 4.256 2.42 5.867l.828.827 11.307 11.307a.602.602 0 00.852 0l11.3-11.307m-24.274-5.891c0 .437.04.875.122 1.307" fill="none" stroke="#303030" stroke-width=".7" stroke-linecap="round" stroke-linejoin="round" stroke-miterlimit="10"/><path d="M17.065 13.045a6.89 6.89 0 00-3.581 1.898 6.832 6.832 0 00-1.622 2.554" fill="none" stroke="#303030" stroke-width=".7" stroke-linecap="round" stroke-linejoin="round" stroke-miterlimit="10"/></svg>