<svg viewBox="0 0 48 48" xmlns="http://www.w3.org/2000/svg"><path d="M26.23 21.632c.396-1.194 1.064-3.86.996-4.518-.047-.447-.159-.884-.267-1.305l-.07-.273c-.15-.601-.311-1.2-.471-1.798l-.068-.25c-.168-.628-.904-.986-1.213-1.11-.552-.223-1.126-.249-1.617-.069-.716.261-1.468.946-1.425 1.83.02.446.024.885.024 1.332v1.691c.001.23-.105.617-.223.814l-2.179 3.655-.96 1.605a1.316 1.316 0 00-.106.206c-.046.037-.093.07-.152.112-.187.132-.38.258-.572.383l-.788.501-2.791.04v5.186a.35.35 0 11-.7 0v-5.176l-1.494.021a.346.346 0 00-.258.125.346.346 0 00-.09.23v9.6a.348.348 0 00.203.316c.004.001.007.005.01.006.043.02.09.03.14.03h.006l5.152-.076 1.118-.004 1.043.675c.403.26.855.399 1.31.399.175-.015.352-.008.529-.016.167-.007.332-.014.491-.014h10.169c1.115 0 2.028-.91 2.034-2.031.004-.573.008-1.164-.257-1.568.553-.312.934-.902.962-1.592.029-.717-.074-1.251-.313-1.624.74-.243 1.223-.998 1.223-2 0-.756-.178-1.236-.437-1.533.527-.3.906-.838.983-1.478.086-.727-.074-1.362-.453-1.789-.317-.357-.764-.546-1.293-.546l-8.196.013zm-12.232 9.521a.35.35 0 01.35.35v.93a.35.35 0 11-.7 0v-.93a.35.35 0 01.35-.35z" fill="#303030"/></svg>