<svg viewBox="0 0 100 126" xmlns="http://www.w3.org/2000/svg" fill-rule="evenodd" clip-rule="evenodd" stroke-linejoin="round" stroke-miterlimit="1.414"><clipPath id="a"><path d="M0 .121h100v125H0z"/></clipPath><g clip-path="url(#a)"><path d="M100 42.158c0-16.313-13.224-29.537-29.537-29.537H29.537C13.224 12.621 0 25.845 0 42.158v40.926c0 16.313 13.224 29.537 29.537 29.537h40.926c16.313 0 29.537-13.224 29.537-29.537V42.158z" fill="#ff4a58"/><path d="M66 33.071c-5.7 0-11.5 2.4-15.8 6.6l-.1.1s-.1 0-.1-.1c-3.9-3.7-9.1-7.4-14.2-7.4-5.2 0-10.4 2-14.3 5.9-7.9 7.9-7.9 20.8 0 28.7l27 25.4c.5.4 1.1.7 1.7.7.6 0 1.2-.2 1.7-.7l27-25.4c3.9-3.9 5.9-9.1 5.9-14.3 0-5.2-2-10.4-5.9-14.3-3.8-3.5-8.3-5.2-12.9-5.2zm7.1 28.1L50 82.971l-23.1-21.8c-2.3-2.3-3.5-5.3-3.5-8.6s1.3-6.4 3.6-8.7c2.3-2.3 5.4-3.6 8.7-3.6.8 0 3.6.4 8.7 5.2 1.5 1.5 3.5 2.3 5.6 2.3 2.1 0 4.2-.8 5.7-2.3 2.8-2.7 6.6-4.4 10.3-4.4 1.9 0 4.7.5 7 2.8s3.6 5.4 3.6 8.7c0 3.3-1.3 6.3-3.5 8.6z" fill-opacity=".5" fill-rule="nonzero"/></g></svg>