<svg viewBox="0 0 500 511" xmlns="http://www.w3.org/2000/svg" fill-rule="evenodd" clip-rule="evenodd" stroke-linejoin="round" stroke-miterlimit="1.414"><ellipse cx="249.847" cy="255.084" rx="249.847" ry="255.084"/><path d="M285.816 339.282v98.895h-56.763V156.921h107.455c20.664 0 38.875 3.89 54.567 11.604 15.692 7.714 27.768 18.724 36.227 32.965 8.46 14.24 12.657 30.459 12.657 48.656 0 27.558-9.235 49.315-27.703 65.27-18.469 15.889-44.041 23.866-76.717 23.866h-49.723zm0-47.074h50.692c14.982 0 26.412-3.625 34.355-10.812 7.879-7.186 11.817-17.471 11.817-30.855 0-13.779-4.004-24.921-11.947-33.426-7.942-8.505-18.92-12.856-32.933-13.12h-51.984v88.213z" fill="#d29420" fill-rule="nonzero"/><path d="M224.768 145.524c6.893-.097 15.699-.097 19.624 4.398 3.925 4.496 2.968 13.488 2.872 38.116-.096 24.629.67 64.895.67 89.328 0 24.433-.766 33.034-2.297 40.657-1.532 7.624-3.829 14.269-6.721 19.058-2.891 4.789-6.377 7.721-9.057 11.142-2.68 3.421-4.556 7.33-8.174 10.848-3.618 3.519-8.978 6.646-11.276 2.248-2.297-4.398-1.531-16.321-1.244-51.212.287-34.891.096-92.749-.192-123.926-.287-31.177-.67-35.672 1.627-38.018 2.298-2.346 7.276-2.541 14.168-2.639z"/><path d="M176.791 277.023V81.095c9.5-5.43 18.62-8.147 28.5-8.147 20.141 0 33.061 13.579 33.061 32.977v183.512c0 44.617-27.36 70.611-73.342 70.611-20.14 0-37.241-3.491-53.201-10.474l7.601-46.557c9.499 5.043 21.28 7.372 31.16 7.372 17.1 0 26.221-12.803 26.221-33.366z" fill="#71b9d3" fill-rule="nonzero"/><text x="189.574" y="91.699" font-family="'Poppins-ExtraBold','Poppins'" font-weight="800" font-size="45.368" fill="#d29421" stroke="#010101" stroke-width="2" transform="rotate(89.135 189.603 91.67) skewX(.037)">J<tspan x="215.976px 252.521px 283.509px 312.875px 324.779px 350.069px" y="91.699px 91.699px 91.699px 91.699px 91.699px 91.699px">OBP.EU</tspan></text></svg>