<svg xmlns="http://www.w3.org/2000/svg" width="73.599" height="12.8" viewBox="0 0 1947.32 338.66" shape-rendering="geometricPrecision" text-rendering="geometricPrecision" image-rendering="optimizeQuality" fill-rule="evenodd" clip-rule="evenodd"><defs><style>.fil2{fill-rule:nonzero;fill:#71b9d3}</style></defs><g id="Layer_x0020_1"><g id="_1904600678784"><path d="M632.77 268.82c0 .93-.03 2.01-.11 2.89h1.11l.1-2.22h.06c.98 1.67 2.42 2.5 4.43 2.5 2.7 0 5.51-2.19 5.51-6.59 0-3.71-2.17-6.34-5.28-6.34-2.19 0-3.71 1-4.53 2.6H634v-8.27h-1.23v15.43zm1.23-4.35c0-.44.08-.78.16-1.08.59-2.06 2.32-3.3 4.12-3.3 2.81 0 4.35 2.5 4.35 5.33 0 3.22-1.62 5.54-4.45 5.54-1.94 0-3.53-1.24-4.07-3.12-.08-.31-.11-.62-.11-.9v-2.47zm15.52-5.13l4.58 11.46c.11.26.16.44.16.54 0 .13-.05.29-.16.55-.62 1.46-1.44 2.49-2.06 3.11a6.55 6.55 0 01-2.16 1.37l.39 1.03c.28-.11 1.18-.47 2.16-1.29 1.62-1.42 2.68-3.71 4.17-7.55l3.71-9.22H659l-3.02 8.01c-.38 1.01-.69 1.99-.95 2.73h-.05c-.23-.77-.57-1.77-.9-2.65l-3.25-8.09h-1.31zm234.58 72.31h2.84v-17.07c1.42.42 3.02.48 4.86.48 4.92 0 9.18-1.54 11.73-4.45 1.84-2.01 2.79-4.56 2.79-8 0-3.31-1.13-5.98-3.08-7.82-2.2-2.13-5.81-3.37-10.55-3.37-3.38 0-6.28.35-8.59.77v39.46zm2.84-37.39c1.07-.24 3.02-.47 5.63-.47 6.34 0 10.9 2.84 10.9 9.12 0 6.34-4.26 9.78-11.43 9.78-1.96 0-3.74-.12-5.1-.59v-17.84zm36.09 38.04c6.28 0 13.57-4.56 13.57-15.11 0-8.71-5.34-14.63-13.22-14.63-7.05 0-13.45 5.39-13.45 15.11 0 8.88 5.69 14.63 13.04 14.63h.06zm.06-2.37c-5.81 0-10.31-5.33-10.31-12.44 0-6.11 3.26-12.56 10.54-12.56 7.53 0 10.43 7.17 10.43 12.38 0 7.29-4.68 12.62-10.6 12.62h-.06zm20.68 1.72h2.84v-15.7c0-.95.06-1.9.24-2.73.77-4.56 3.55-7.94 7.47-7.94.53 0 .94 0 1.36.06v-2.67c-.36-.06-.77-.11-1.19-.11-3.85 0-6.81 2.78-8.06 6.4h-.17l-.12-5.75h-2.61c.18 2.78.24 5.69.24 8.53v19.91zm20.15-33.66v5.22h-4.8v2.31h4.8v17.95c0 2.91.47 5.34 1.77 6.82 1.07 1.3 2.79 1.95 4.86 1.95 1.72 0 3.02-.29 3.97-.65l-.35-2.13c-.71.24-1.78.41-3.26.41-3.02 0-4.15-2.25-4.15-5.86v-18.49h8.12v-2.31h-8.12v-6.28l-2.84 1.06zm34.96 15.77c0-5.04-1.6-11.2-9.84-11.2-2.55 0-5.75.71-8.35 2.43l.88 2.07c2.08-1.48 4.68-2.13 7.17-2.13 6.76-.06 7.29 5.57 7.29 8.35v.77c-11.61-.12-17.36 3.85-17.36 10.43 0 3.79 2.61 7.82 8.36 7.82 4.56 0 7.7-2.55 9.12-4.74h.12l.41 4.09h2.61c-.35-2.19-.41-4.5-.41-6.75v-11.14zm-2.85 8.76c0 .48-.06 1.13-.29 1.72-.95 2.79-3.68 5.69-8.42 5.69-2.96 0-5.69-1.83-5.69-5.92 0-6.82 8.18-7.77 14.4-7.59v6.1zm12.03 9.13h2.85v-42.13h-2.85v42.13zm12.68.65c1.48 0 2.43-1.24 2.43-2.66 0-1.54-.95-2.67-2.37-2.67-1.42 0-2.43 1.13-2.43 2.67-.06 1.42.95 2.66 2.31 2.66h.06zm9.48-.65h2.85v-15.7c0-.95.06-1.9.23-2.73.77-4.56 3.56-7.94 7.47-7.94.53 0 .95 0 1.36.06v-2.67c-.35-.06-.77-.11-1.18-.11-3.85 0-6.82 2.78-8.06 6.4h-.18l-.12-5.75h-2.6c.17 2.78.23 5.69.23 8.53v19.91zm27.62.65c6.28 0 13.57-4.56 13.57-15.11 0-8.71-5.34-14.63-13.22-14.63-7.05 0-13.45 5.39-13.45 15.11 0 8.88 5.69 14.63 13.04 14.63h.06zm.06-2.37c-5.81 0-10.31-5.33-10.31-12.44 0-6.11 3.25-12.56 10.54-12.56 7.53 0 10.43 7.17 10.43 12.38 0 7.29-4.68 12.62-10.6 12.62h-.06zm-345.36 2.06h10.02l-2.44-45.65h-13.54l-4.81 15.17c-1.56 5.08-3.12 11.11-4.34 16.39h-.27c-1.01-5.35-2.37-11.04-3.86-16.32l-4.47-15.24h-13.74l-2.92 45.65h9.55l.88-17.34c.27-5.69.54-12.73.75-18.89h.13c1.15 6.02 2.64 12.46 4.13 17.81l4.88 17.67h8.06l5.55-17.81c1.76-5.35 3.66-11.85 5.15-17.67h.13c0 6.7.21 13.27.41 18.75l.75 17.48zm48.82-33.12h-10.29v19.71c0 .88-.14 1.62-.41 2.23-.61 1.63-2.3 3.59-5.14 3.59-3.66 0-5.22-2.91-5.22-7.72v-17.81h-10.29v19.44c0 10.22 4.87 14.42 11.65 14.42 5.95 0 9.07-3.39 10.36-5.42h.2l.47 4.68h8.94c-.13-2.78-.27-6.3-.27-10.64v-22.48zm8.26 33.12h10.3v-19.1c0-.95.07-1.9.34-2.58.74-1.89 2.43-3.86 5.28-3.86 3.72 0 5.21 2.92 5.21 7.18v18.36h10.3v-19.58c0-9.75-5.08-14.28-11.85-14.28-5.56 0-8.88 3.18-10.23 5.35h-.2l-.48-4.61h-8.94c.14 2.98.27 6.43.27 10.56v22.56zm49.98-48.15h-10.29v48.15h10.29v-10.37l2.58-3.25 8.05 13.62h12.67l-13.55-19.71 11.85-13.41h-12.39l-6.7 9.95c-.82 1.22-1.63 2.58-2.37 4h-.14v-28.98zm54.31 28.57c0-7.78-3.45-14.28-14.49-14.28-6.03 0-10.56 1.69-12.87 2.98l1.9 6.56c2.17-1.28 5.76-2.43 9.14-2.43 5.08 0 6.03 2.5 6.03 4.26v.41c-11.72 0-19.44 4.06-19.44 12.66 0 5.28 4 10.16 10.7 10.16 3.93 0 7.32-1.42 9.48-4.06h.21l.61 3.32h9.28c-.41-1.83-.55-4.88-.55-8v-11.58zm-9.95 7.52c0 .61-.07 1.22-.2 1.76-.68 2.1-2.85 3.79-5.35 3.79-2.31 0-4.07-1.28-4.07-3.92 0-3.93 4.2-5.22 9.62-5.22v3.59z" fill="#1b1a1b" fill-rule="nonzero"/><path d="M1152.35 231.98v104.95h-61.5V221.66c2.33-2.47 4-4.82 6.02-8.31 2.39-4.12 5.26-9.82 7.74-16.57 2.49-6.75 4.57-14.54 5.76-21.91 1.18-7.36 1.47-14.3 1.33-21.39-.15-7.09-.72-14.33-1.6-20.86-.89-6.53-2.09-12.34-3.47-17.01-1.38-4.68-2.95-8.23-4.86-11.77-1.91-3.54-4.17-7.06-7.69-11.11-.99-1.15-2.08-2.33-3.23-3.51V38.43h116.43c22.39 0 42.12 4.13 59.13 12.32 17 8.19 30.09 19.87 39.25 34.99 9.17 15.11 13.72 32.32 13.72 51.63 0 29.25-10.01 52.34-30.02 69.28-20.01 16.86-47.72 25.33-83.13 25.33h-53.88zm0-49.96h54.93c16.23 0 28.62-3.85 37.23-11.48 8.53-7.63 12.8-18.54 12.8-32.75 0-14.62-4.34-26.45-12.94-35.47-8.61-9.03-20.51-13.65-35.69-13.93h-56.33v93.63z" fill="#d29420" fill-rule="nonzero"/><path class="fil2" d="M676.96 175.91V22.01c7.62-4.27 14.94-6.4 22.86-6.4 16.15 0 26.51 10.66 26.51 25.9v144.15c0 35.05-21.94 55.47-58.81 55.47-16.16 0-29.87-2.74-42.67-8.23l6.1-36.57c7.61 3.96 17.06 5.79 24.98 5.79 13.72 0 21.03-10.06 21.03-26.21zm368.46-95.09c-17.98 0-35.66 5.79-48.76 22.25V22.31c0-12.8-7.93-21.94-21.95-21.94-8.22 0-17.06 2.74-25.29 6.4v231.31c21.94 1.83 54.25 3.05 70.09 3.05 53.34 0 85.03-31.39 85.03-85.03 0-47.24-23.46-75.28-59.12-75.28zm-30.48 125.26c-5.18 0-11.27 0-18.28-.3v-44.5c0-32.3 13.1-43.27 31.39-43.27 18.59 0 28.64 14.32 28.64 38.09 0 31.69-15.84 49.98-41.75 49.98z"/><path d="M1121.79 49.27c1.73 0 3.43.45 5.09 1.34a9.49 9.49 0 013.86 3.83c.93 1.66 1.39 3.39 1.39 5.19 0 1.78-.45 3.5-1.37 5.15-.9 1.65-2.18 2.92-3.82 3.83-1.65.92-3.36 1.37-5.15 1.37-1.8 0-3.51-.45-5.16-1.37a9.603 9.603 0 01-3.83-3.83c-.92-1.65-1.38-3.37-1.38-5.15 0-1.8.47-3.53 1.39-5.19.94-1.66 2.23-2.94 3.88-3.83 1.66-.89 3.36-1.34 5.1-1.34zm0 1.72c-1.46 0-2.88.37-4.25 1.12-1.38.74-2.46 1.81-3.24 3.19-.77 1.39-1.16 2.83-1.16 4.33 0 1.49.38 2.92 1.15 4.29a8.075 8.075 0 003.2 3.2c1.37.76 2.8 1.15 4.3 1.15 1.49 0 2.92-.39 4.29-1.15a8.075 8.075 0 003.2-3.2c.76-1.37 1.14-2.8 1.14-4.29 0-1.5-.39-2.94-1.16-4.33-.78-1.38-1.85-2.45-3.24-3.19-1.38-.75-2.79-1.12-4.23-1.12zm-4.55 14.35V54.22h3.83c1.31 0 2.26.1 2.84.31.59.2 1.06.56 1.41 1.07.34.51.52 1.06.52 1.63 0 .81-.29 1.53-.88 2.12-.58.61-1.35.95-2.32 1.02.4.16.72.36.95.59.45.44 1 1.17 1.65 2.21l1.36 2.17h-2.19l-.99-1.75c-.78-1.38-1.41-2.24-1.89-2.59-.32-.25-.8-.38-1.43-.38h-1.06v4.72h-1.8zm1.8-6.26h2.18c1.04 0 1.76-.16 2.14-.47.37-.3.57-.72.57-1.22 0-.33-.1-.63-.28-.88-.18-.26-.43-.46-.76-.58-.33-.13-.93-.2-1.81-.2h-2.04v3.35z" fill="#fefefe" fill-rule="nonzero"/><path class="fil2" d="M901.81 206.83l-14.19 11.56-6.11-7.5 14.19-11.56z"/><path class="fil2" d="M906.42 208.8l-17.81 14.5-3.39-4.16 17.81-14.5z"/><path class="fil2" d="M956.72 266.22c3.41 4.18 5.8 9.76 1.74 13.06l-11.78 7.91c-4.06 3.31-9.67-.1-13.07-4.28l-46.1-56.61c-3.4-4.18.64-5.94 4.71-9.24l7.35-6c4.06-3.3 6.61-6.91 10.01-2.73l47.14 57.89z"/><path d="M851.85 55.23c45.86 7.29 77.13 50.38 69.84 96.24-7.29 45.86-50.38 77.13-96.24 69.84-45.86-7.29-77.13-50.37-69.84-96.24 7.29-45.86 50.37-77.13 96.24-69.84zm-3.44 24.87c32.44 5.15 54.56 35.63 49.4 68.08-5.15 32.44-35.63 54.56-68.08 49.41-32.44-5.16-54.56-35.64-49.41-68.08 5.16-32.45 35.64-54.57 68.09-49.41z" fill="#71b9d3"/><path id="Couple_x0020_Man_x0020_Woman-595b40b85ba036ed117dcdf0.svg" d="M811.24 107.66c-13.6 0-22.08 8.28-22.08 21.77v.31c0 1.56.38 3.64.87 5.88.38 1.77.87 3.31 1.29 4.7-.36.34-.69.46-1.05.99-.73 1.1-1.27 2.72-1.05 4.57.57 4.84 3.43 6.64 4.76 7.37.45 2.46 1.61 5.34 3.59 8.35 2.04 3.08 4.91 5.95 8.35 7.73.04.02.09.04.13.06 1.34 1.59 3.36 2.72 5.63 2.72 1.95 0 3.63-.93 4.94-2.16 3.89-1.68 6.97-4.95 9.22-8.29 2.01-2.99 3.25-5.88 3.71-8.35.52-.27.83-.3 1.61-1.05 1.29-1.24 2.61-3.31 2.97-6.31.21-1.81-.26-3.4-.93-4.52-.31-.53-.64-.7-.99-1.05.95-3.17 1.92-7.76 1.92-12.87 0-2.52-.57-5.62-2.29-8.35-.46-.73-1.07-1.38-1.73-1.98-1.33-1.7-3.27-2.84-6.06-3.03-.59-.86-1.64-2.34-3.41-3.65-.13-.1-.29-.2-.43-.31-.07-.05-.17-.07-.25-.12-1.71-1.21-4.07-2.2-7.29-2.35-.48-.04-.92-.06-1.43-.06zm44.48.55c-9.3 0-16.11 4.19-20.35 9.16 1.82 3.02 2.72 6.64 2.72 10.14 0 4.71-.78 9-1.49 11.88a11.11 11.11 0 011.49 6.99c-.58 4.9-3.06 7.84-5.07 9.46-.64 1.99-1.69 4.31-3.1 6.62 3.94 1.21 10.94 3.13 15.84 3.16 3.04 3.67 6.8 5.93 10.7 5.93 3.91 0 7.65-2.3 10.7-6 .09.02.16.07.25.07 11.75 0 18.93-1.96 19.24-2.04.69-.2 1.26-.78 1.42-1.49a1.98 1.98 0 00-.62-1.92c-4.32-3.84-3.44-8.6-2.35-14.66.53-2.93 1.05-5.98 1.05-9.21 0-13.44-6.27-21.61-16.82-22.09-1.56-1.86-5.87-6-13.61-6zm-34.58 16.83c1.32 2.11 3.4 6.12 3.4 10.39.03 2.19.87 5.72 3.65 6.31.17.36.46.67.81.87.11.06.51.38.8.86.29.48.54 1.06.43 1.98-.24 2.09-1.12 3.25-1.85 3.96-.74.71-1.24.87-1.24.87-.72.26-1.23.91-1.3 1.67-.14 1.34-1.31 4.56-3.28 7.48-1.96 2.92-4.72 5.65-7.54 6.87-.29.12-.55.31-.75.55-.64.79-1.52 1.3-2.59 1.3-1.08 0-2.02-.51-2.66-1.3-.2-.24-.46-.43-.75-.55-2.79-1.22-5.43-3.96-7.36-6.87-1.92-2.91-3.13-6.12-3.28-7.48-.07-.76-.58-1.41-1.3-1.67 0 0-2.72-.69-3.21-4.83-.11-.88.11-1.44.43-1.92.32-.47.79-.8.99-.92.58-.37.93-1 .93-1.68v-.06c1.06-1.5 1.55-3.92 1.85-5.44.86-4.25 5.53-5.44 12.25-5.44 6.33 0 9.89-2.96 11.57-4.95zm43.24 2.97c2.05 2.2 5.94 8.93 5.94 16.39 0 12.86-7.58 23.2-13.86 23.2-6.28 0-13.86-10.34-13.86-23.2 0-4.83 2.78-7.68 8.05-8.85 1.19-.26 2.45-.57 3.58-.92 5.2-1.64 8.45-4.62 10.15-6.62zm-61.36 13.85c-1.1 0-1.98.89-1.98 1.98 0 1.1.88 1.98 1.98 1.98 1.09 0 1.97-.88 1.97-1.98 0-1.09-.88-1.98-1.97-1.98zm17.81 0c-1.09 0-1.98.89-1.98 1.98 0 1.1.89 1.98 1.98 1.98 1.09 0 1.98-.88 1.98-1.98 0-1.09-.89-1.98-1.98-1.98zm27.71 1.98c-1.09 0-1.98.89-1.98 1.98 0 1.1.89 1.98 1.98 1.98 1.1 0 1.98-.88 1.98-1.98 0-1.09-.88-1.98-1.98-1.98zm15.84 0c-1.1 0-1.98.89-1.98 1.98 0 1.1.88 1.98 1.98 1.98 1.09 0 1.98-.88 1.98-1.98 0-1.09-.89-1.98-1.98-1.98z" fill="#d29420"/><path d="M809.04 160.66c4.19 1 9.45-1.14 10.23-4.58.32-1.42-2.06-1.9-2.76-.59-1.15 2.17-4.13 3.89-7.24 2.79-2.73-.97-3.21-3.16-3.67-5.18-.1-.45-.87-.42-1.15-.11-2.54 2.81.91 6.79 4.59 7.67zm50.3-.44c-4.51.99-10.17-1.12-11.01-4.53-.34-1.4 2.22-1.87 2.96-.58 1.25 2.15 4.46 3.85 7.8 2.76 2.94-.96 3.46-3.12 3.95-5.12.11-.44.94-.42 1.24-.11 2.74 2.77-.98 6.71-4.94 7.58z" fill="#d29420" fill-rule="nonzero"/></g></g></svg>