<svg xmlns="http://www.w3.org/2000/svg" width="200mm" height="100mm" viewBox="0 0 20000 10000" shape-rendering="geometricPrecision" text-rendering="geometricPrecision" image-rendering="optimizeQuality" fill-rule="evenodd" clip-rule="evenodd"><defs><style>.fil1,.fil4{fill-rule:nonzero}.fil4{fill:#bebebe}.fil1{fill:#b0b1b0}.fil0,.fil8{fill-rule:nonzero}.fil8{fill:#adadad}.fil0{fill:#9e9d9d}.fil19{fill:#7f7e7d}.fil19,.fil2,.fil5{fill-rule:nonzero}.fil2{fill:#7c7c7d}.fil5{fill:#3b3b3b}.fil14,.fil15,.fil9{fill-rule:nonzero}.fil9{fill:#363636}.fil15{fill:#2d2e2e}.fil14{fill:#272727}.fil21,.fil23{fill-rule:nonzero}.fil23{fill:#2b85a6}.fil21{fill:#71b9d3}</style></defs><g id="Layer_x0020_1"><g id="_2907237205040"><path class="fil0" d="M10213.01 5394.14l10.76 130.94-86.76 167.19s30.07 30.63 69.15-23.51l76.45-137.47.08-146.77-69.68 9.62z"/><path class="fil0" d="M10244.69 5440.22l18.08 130.2-77.23 171.75s31.69 28.88 67.62-27.35l68.76-141.58-8.15-146.46-69.08 13.44z"/><path class="fil1" d="M10387.76 5478.43l-13.61-152.34-13.61-188.86-116.07-23.84-53.08 194.74-16.54 102.98-21 140.73-9.23 45.29s35.84 14.27 69.15-56.62l38.53-131.51 43.94 108.21-55.01 181.4s4.77 96.89 35.93 62.46l113.69-252.22-3.09-30.42zm-194.06-2908.71l91.37 24.25s196.62 1211.68 90.16 1465.32c-106.37 253.61-247.69-8.44-294.3-33.91-46.61-25.39-407.98-1353.76-407.98-1353.76l520.75-101.9z"/><path class="fil1" d="M10015.86 3868.56s219.14 1006.04 228.61 1244.83c0 0 92.83 126.04 116.07 23.84 46.3-204.04 84.83-1236.77 37.69-1325.67-47.08-88.86-382.37 57-382.37 57z"/><path class="fil2" d="M10447.46 3588.56c-239.23 177.49-692.44 130.41-692.44 130.41l-106.07-1099.19s-33.85-217.16 244.14-306.46c0 0 370.15-106.35 454.21 229.89l100.16 1045.35z"/><path d="M9741.02 9316.1s.31 204.45 60.92 255.69c60.77 51.22 291.37 125.45 291.37 125.45l127.55 17.23s89.06 62.77-153.39 131.61c-242.45 68.85-670.74-129.07-670.74-129.07l43.31-400.91h300.98zm-874.13 427.14c-44.84-65.55-145.6-427.06-145.6-427.06l-198.61-.08-112.3 404.59s-17.93 67.78 23.37 91.7c0 0 250.07 78.54 458.84-17.77 0 0-2.76-17.91-25.7-51.38z" fill="#202020" fill-rule="nonzero"/><path class="fil4" d="M10028.77 4234.4l253.54-1549.78s87.45-232.97-87.31-349.44l-666.05-313.02h-469.68l-800.66 473.2 524.76 1739.04h1245.4z"/><path class="fil5" d="M8783.37 4234.4s-143.84 328.39-178.46 1083.29c0 0 1082.42 339.53 1421.95 0l1.91-1083.29h-1245.4z"/><path class="fil5" d="M9493.03 5317.69c0 253.35-198.84 458.69-444.06 458.69-245.31 0-444.06-205.34-444.06-458.69 0-253.33 198.75-458.69 444.06-458.69 245.22 0 444.06 205.36 444.06 458.69z"/><path class="fil5" d="M10026.86 5359.53c0 253.32-111.46 458.7-356.69 458.7-245.29 0-444.06-205.38-444.06-458.7 0-253.36 198.77-458.68 444.06-458.68 245.23 0 356.69 205.32 356.69 458.68z"/><path class="fil5" d="M8604.91 5373.53l-94.61 1907.26s167.37 524.14 538.67 218.46l328.44-2102.77s-102.77-547.1-772.5-22.95z"/><path class="fil5" d="M8510.3 7280.79s-148.08 314.22-136.77 779.13l89.22 1256.26h385.37l200.85-1816.93s-254.84-669.75-538.67-218.46zm824.35-1760.17l27.38 1755.33s446.45 397.97 562.91 106.84c0 0 126.15-1348.1 101.92-2023.26 0 0-536.91-450.42-692.21 161.09z"/><path class="fil5" d="M9362.03 7275.95s-174.76 388.29-97.15 1261.87l112.53 778.28h408.53l139-1933.31s-233.68-450.53-562.91-106.84z"/><path class="fil4" d="M8262.84 4014.28c-86.84 870.55-51.22 928.15-42.15 1277.27 0 0-46.3 122.86-125.23 53.87-78.91-68.91-204.83-1228.22-165.15-1320.71 58.92-137.19 332.53-10.43 332.53-10.43z"/><path class="fil4" d="M8207.92 5256.88l122.39 122.41 104.07 152.42c-51.54 34.63-105.53-50.71-105.53-50.71 33.68 134.4 98.98 252.97 98.98 252.97 15.86 48.15-29.6 44.59-29.6 44.59-50.85-52.14-115.84-205.99-115.84-205.99 24.45 91.61 86.53 237.64 86.53 237.64 5.92 41.9-36.07 29.99-36.07 29.99-86.39-51.1-115.16-237.65-115.16-237.65 8.62 70.74 64.46 216.14 64.46 216.14-9.99 28.76-24.07 18.92-24.07 18.92-74.69-29.99-101.77-209.63-101.77-209.63l11.92 66.99c24.47 90.28-31.54 66.99-31.54 66.99l-20.15-45.24c-59.07-138.96-41.22-263.99-41.22-263.99l.37-162.45 132.23-33.4zm123.54-2593.75l-93.84 10.91s-367.84 1171.15-298.77 1437.38c69.08 266.18 204.84 32.02 254.61 13.51 49.76-18.54 638.82-1286.5 638.82-1286.5l-500.82-175.3z"/><path class="fil2" d="M8466.68 3921.57c-218.77 66.49-596.59-262.64-596.59-262.64l313.14-1045.24s45.93-214.99 337.53-199.04c0 0 331.37 23.71 342.06 377.03l-396.14 1129.89z"/><path class="fil4" d="M9056.89 1679.85v502.06h530.91s-130.54-199.02-65.24-502.06h-465.67z"/><path d="M9326.27 2106.17c47.84 30.8 149.45 96.32 207.52 57.96 15.62-10.3 22.85-23.8 25.23-38.88-34.15-79.56-81.14-238.13-36.46-445.4h-465.67v45.52c58.08 146.94 132.61 292.67 269.38 380.8z" fill="#a8a9a9" fill-rule="nonzero"/><path d="M9049.9 1691.67s-90.85-38.13-195.92-260.44c0 0-225.46-261.65-71.78-563.8 0 0 89.86-255.07 541.45-189.66 0 0 49 679.86-273.75 1013.9z" fill="#b9bab8" fill-rule="nonzero"/><path class="fil4" d="M9606.64 1820.46l29.08-79.06s79.3-293.9 79.3-293.95c9.92-36.96 9.92-86.25 2.77-124.02-7.77-41.07-13-84.05-2.77-127.63 49.68-211.31-59.77-329.48-59.77-329.48-121.46-197.17-414.29-200.11-414.29-200.11-362.37 13.97-396.67 364.14-396.67 364.14-61.23 232.48 122.15 428.59 122.52 429 14.62 15.6 6.23 92.3 10.39 114.15 18.16 93.23 106.54 151.39 185 191.61 86.22 44.2 190.53 91.33 287.45 101.27 36.69 3.78 140.3-.55 156.99-45.92z"/><path class="fil8" d="M9530.26 1378.89l-100.46 31.95s131.91 16.27 139.39-21.87c0 0-15.47-76.31-32.86-148.74 0 0 8.86 133.92-6.07 138.66z"/><path class="fil9" d="M9367.42 1229.92c-1.31 20.74-13.77 36.81-27.85 35.96-14.08-.87-24.45-18.33-23.14-39.07 1.21-20.73 13.69-36.84 27.76-35.98 14.07.87 24.46 18.38 23.23 39.09zm285.06-14.18c-1.31 20.76-13.77 36.81-27.83 35.94-14.08-.86-24.47-18.31-23.16-39.04 1.23-20.76 13.69-36.87 27.77-36.01 14.08.86 24.45 18.37 23.22 39.11zm-254.22-56.37c9.01 2.55 12.08-9.6 12.08-9.6 3.77-11.7.92-22.08.92-22.08-3.07-8.67-10.08-11.8-10.08-11.8-23.38-4.95-69.68-2.29-109.37 6.61-21.93 4.91-57.92 18.5-61.62 38.15-1.07 5.9-2.3 16.1 4.32 18.36 0 0 75.61-17.78 163.75-19.64zm324.07-13.28c-25.76-1.11-71.3-1.47-127.38 5.54-8.62 3.79-13.38-7.73-13.46-7.73-5.31-11.1-4-21.69-4-21.7 1.76-9.03 8.22-13.17 8.22-13.17 22.46-8.32 54.16-12 94.69-8.96 12.16.92 33.08 3.81 46.85 9.24 0 0 2.24 7.73-4.92 36.78z"/><path d="M9588.26 1522.98c8.07.44 12.14 4.44 8.76 10.02 0 0-39.37 64.2-101.61 67.91-62.38 3.68-109.46-55.36-109.46-55.36-4.53-5.75.08-10.92 10.15-11.62 0 0 107.54-7.08 192.16-10.95z" fill="#fcfbfd" fill-rule="nonzero"/><path class="fil2" d="M9444.18 2370.5c-454.44 70.64-500.36-280.1-500.36-280.1l-685.21 404.96c44.69 148.26 89.16 296.61 133.92 444.89 82.61 273.35 162.92 547.47 247.92 820.07 0 0 27.77 250.92 14.06 387.23 1.17 51.62-137.98 978-105.06 984.89.23.05 1064.58-5.64 1542.41-212.12l-29.93-888.72 220.38-1346.98s87.45-232.97-87.31-349.44l-666.05-313.02s295.61 280.74-84.77 348.34z"/><path class="fil9" d="M9666.95 881.33s165.61-142.17 90.84-262.59c0 0-129.08-146.23-371.84-112.78-242.67 33.45-238.92-33.89-429.51 60.66-190.69 94.57-223.84 75.06-268.31 258.76-41.92 173.61-18.53 238.59 10.47 343.32 29 104.75 63.37 319.34 263.6 442.78 0 0-133.68-308.67 92.46-235.68l24.77-1.77s-51.38-158.63 50-238.54c-49.31-61.8-11.46-186.92-1.85-204.85 48.54-90.28 192.22-53.87 275.76-78.66 64.62-19.19 225.45-48.57 263.61 29.35z"/><path class="fil4" d="M9021.51 1492.79c-12.7 11.03-29.39 17.93-50.77 18.88-57.77 2.57-108.85-48.59-114.07-114.25-5.31-65.53 37.23-120.78 94.91-123.31 27.39-1.19 53.31 9.67 73.48 28.42 29.37 27.35 33.45 80.73 29.06 118-3.54 29.77-13.54 55.72-32.61 72.26z"/><path class="fil8" d="M8978.51 1333.85c-5.47-34.27-73.15 2.8-61.54 21.54 6.84 10.86 19.46 18.27 29.55 25.55 13.84 10.05 20.76 19.42 23.69 36.41.31 2 1.07 7.97-.86 9.51-8.61 6.79-40.15-25.16-47.14-31.89-13.55-13.17-16.7-36.98-11.62-54.58 5.47-18.78 16.99-28.2 36.84-28.14 15.61-.02 31.62.1 31.85 19.64 0 .43-.46 3.7-.77 1.96z"/><path class="fil8" d="M8958.36 1370.93c6.77-7.73 14.07-2.1 21.77 2.85 7.22 4.61 11.54 11.55 13.76 19.59 5 17.67 4.01 41.78-5.3 58.04-7.55 13.11-21.08 21.66-36.31 22.15-20.99.6-28.31-17.55-30.23-35.28-.46-4.75-1.54-16.02 3.01-19.22 4.84-3.39 8.83 4.15 12.38 7.3 4.92 4.18 11.92 5.49 18.16 5.65 12.07.34 23.45-6.41 30.45-15.77 1.15-1.65 2.3-3.65 2.85-5.6.68 11.63.23 14.27-1.39 7.93-1.15-2.93-2.62-5.55-4.46-7.94-5.31-7.8-13.92-12.81-19.7-20.15-2.84-3.37-8.45-15.61-4.99-19.55z"/><path d="M8814.05 2161.67l-555.44 333.69 346.3 1287.51-44.15 1074.94s815.43 20.98 1556.71-63.23l-38.53-742.11 242.98-1482.75s5.93-172.1-126.92-234.54l-430.83-202.46-285.84 665.75-664.28-636.8z" fill="#979494" fill-rule="nonzero"/><path d="M10101.16 4480.03H8576.3l10.08-245.63h1502.01zm8.69-616.3H8601.61l3.3-80.86-47.85-177.98h1595.24l-29.21 179.96z" fill="#81817f" fill-rule="nonzero"/><path d="M8537.3 4972.84h1554.47c25.7 0 25.7-35.34 25.7-35.34v-142.92c-3.23-51.38-31.62-51.8-31.62-51.8h-1516.4s-38.55-2.79-41.77 48.59l-11.15 131.66s-6.23 49.81 20.77 49.81z" fill="#353535" fill-rule="nonzero"/><path class="fil14" d="M9758.49 4512.97c0 8.8-7.16 15.92-15.93 15.92-8.85 0-16-7.12-16-15.92v-345.28c0-8.83 7.15-15.98 16-15.98 8.77 0 15.93 7.15 15.93 15.98v345.28z"/><path class="fil15" d="M9710.63 4564.97h63.77v-99.84h-63.77z"/><path class="fil15" d="M10005.09 4664.83v-81.56c0-30.02-24.39-54.38-54.39-54.38h-208.37c-30 0-54.31 24.36-54.31 54.38v81.56h317.07z"/><path d="M10005.09 5121.32c0 30.01-24.39 54.33-54.39 54.33h-208.37c-30 0-54.31-24.32-54.31-54.33v-501.99c0-30 24.31-54.36 54.31-54.36h208.37c30 0 54.39 24.36 54.39 54.36v501.99z" fill="#383839" fill-rule="nonzero"/><path fill="#494949" fill-rule="nonzero" d="M9736.25 4811.83h220.53v-191.37h-220.53z"/><path class="fil14" d="M9791.55 4905.25c0 5.85-4.76 10.57-10.62 10.57h-35.68c-5.84 0-10.62-4.72-10.62-10.57v-35.72c0-5.81 4.78-10.57 10.62-10.57h35.68c5.86 0 10.62 4.76 10.62 10.57v35.72zm83.39 0c0 5.85-4.69 10.57-10.55 10.57h-35.68c-5.84 0-10.54-4.72-10.54-10.57v-35.72c0-5.81 4.7-10.57 10.54-10.57h35.68c5.86 0 10.55 4.76 10.55 10.57v35.72zm83.45 0c0 5.85-4.68 10.57-10.54 10.57h-35.68c-5.85 0-10.62-4.72-10.62-10.57v-35.72c0-5.81 4.77-10.57 10.62-10.57h35.68c5.86 0 10.54 4.76 10.54 10.57v35.72zm-166.84 85.28c0 5.84-4.76 10.57-10.62 10.57h-35.68c-5.84 0-10.62-4.73-10.62-10.57v-35.69c0-5.84 4.78-10.58 10.62-10.58h35.68c5.86 0 10.62 4.74 10.62 10.58v35.69zm83.39 0c0 5.84-4.69 10.57-10.55 10.57h-35.68c-5.84 0-10.54-4.73-10.54-10.57v-35.69c0-5.84 4.7-10.58 10.54-10.58h35.68c5.86 0 10.55 4.74 10.55 10.58v35.69zm83.45 0c0 5.84-4.68 10.57-10.54 10.57h-35.68c-5.85 0-10.62-4.73-10.62-10.57v-35.69c0-5.84 4.77-10.58 10.62-10.58h35.68c5.86 0 10.54 4.74 10.54 10.58v35.69zm-166.84 85.3c0 5.81-4.76 10.57-10.62 10.57h-35.68c-5.84 0-10.62-4.76-10.62-10.57v-35.73c0-5.81 4.78-10.57 10.62-10.57h35.68c5.86 0 10.62 4.76 10.62 10.57v35.73zm83.39 0c0 5.81-4.69 10.57-10.55 10.57h-35.68c-5.84 0-10.54-4.76-10.54-10.57v-35.73c0-5.81 4.7-10.57 10.54-10.57h35.68c5.86 0 10.55 4.76 10.55 10.57v35.73zm83.45 0c0 5.81-4.68 10.57-10.54 10.57h-35.68c-5.85 0-10.62-4.76-10.62-10.57v-35.73c0-5.81 4.77-10.57 10.62-10.57h35.68c5.86 0 10.54 4.76 10.54 10.57v35.73z"/><path fill="#2d2c2c" fill-rule="nonzero" d="M9642.17 5199.72h397.68v-239.73h-397.68z"/><path class="fil19" d="M8025.86 5193.68l26.77 136.4 2.91 125.33s-5.31 132.58 53.7 271.54l20.15 45.25s63.31 13.05 38.84-77.23l-11.92-66.99s27.08 179.64 101.77 209.63c0 0 14.08 9.84 24.07-18.92 0 0-55.84-145.4-64.46-216.14 0 0 28.77 186.55 115.16 237.65 0 0 41.99 11.91 36.07-29.99 0 0-62.08-146.03-86.53-237.64 0 0 49.37 177 104.75 203.81 0 0 73.93 30.7 47.24-53.59 0 0-71.85-107.39-105.53-241.79 0 0 46.22 107.2 105.53 50.71l-67.69-139.52-108.08-135.31-18.38-110.48-214.37 47.28z"/><path d="M10209.92 5468.58l-92.45 232.34s34.3 38.59 68.07 24.29c0 0-36.07 52.82 51.08 43.27l99.3-260.06s-69.99-123.09-126-39.84z" fill="#7f7e7e" fill-rule="nonzero"/><path class="fil19" d="M10217.78 5132.44l-65.48 197.74-34.83 289.07s100.31 3.96 132.06-144.16l31.79 47.8s-119.39 179.85-27.55 266.57c0 0 25.15 3.77 50.38-39.89l102.69-245.95-29.23-371.18 29.23-131.34h-189.06v131.34z"/><path class="fil21" d="M9780.82 713.24c3.3-23.17 5.16-46.76 5.16-70.73 0-298.86-262.92-541.14-587.29-541.14-324.37 0-587.37 242.28-587.37 541.14 0 23.97 1.92 47.56 5.22 70.73 0 0 1.17 233.44 803.44 212.2 0 0 600.14-40.8 360.84-212.2z"/><path d="M9780.82 713.24c3.3-23.17 5.16-46.76 5.16-70.73 0-44.28-5.93-87.28-16.78-128.49-4.68 34.64-14.84 70.88-48.31 93.99-34.07 23.56-76.23 37.28-121.07 35.38-39.61-1.71-81.84-12.49-104.29-41.8-26.01-33.88-32.32-75.69-37.16-114.89-13-104.86-42.3-206.8-70.77-309.43-11.31-18.07-21.54-36.51-29.62-55.64-50.68-13.13-104.06-20.26-159.29-20.26-33.7 0-66.69 2.76-98.85 7.8 40.54 48.47 64.54 107.55 78.76 165.54 13.24 54.16 20.31 109.17 25.31 164.25 4.47 49.08 12.63 100.18-2.76 148.58-13.92 43.9-46.69 79.87-102.07 90.37-59.54 11.28-124.08 1.96-179.08-19.02-56.38-21.54-103.23-53.36-127.07-102.07-25.77-52.87-27.3-111.02-9.15-165.84 31.22-93.97 101.53-178.83 186.46-247.13-210.92 82.11-358.92 274.46-358.92 498.66 0 23.97 1.92 47.56 5.22 70.73 0 0 .94 178.19 536.3 209.04-10.92-8.9-19-19.53-22.16-32.48-21.76-91.06 131.38-95.74 202.54-100.36 74.85-4.85 149.69-16.26 224.07-24.3 80.54-8.69 161.38-18.89 238.38-40.5-4.63-3.74-9.39-7.51-14.85-11.4z" fill="#50a4c2" fill-rule="nonzero"/><path class="fil21" d="M9437.06 763.75c76.61-425.41-80.92-648.82-80.92-648.82-21.3-37.41-101.62-45.38-101.62-45.38h-93.46c-122.75 3.53-82.91 58.62-82.91 58.62s197.69 161.45 171.84 649.13l187.07-13.55z"/><path class="fil23" d="M9067.61 114.93s7.92 7.7 20.23 22.64c11.77 15.2 29.54 36.69 46.7 65.15 9.14 13.9 17.46 29.86 27.15 46.33 8.38 17.05 18.61 34.53 26.38 53.86 8.38 19.09 16.93 38.84 23.77 59.65 7.84 20.47 13.7 41.91 19.92 63.25 6.54 21.29 9.93 43.36 14.93 64.66 4.53 21.4 6.29 42.95 9.45 63.51 2.93 20.61 2.77 40.85 4.08 59.85 1.46 19 .24 37.05.08 53.63-.46 16.6-.15 31.81-2.24 45.19-1.53 13.37-2.92 25.04-4.07 34.64-2.54 19.1-4 30.01-4 30.01s-.15-11.02-.45-30.3c-.09-9.6-.09-21.25-.09-34.6.39-13.35-1.76-28.39-2.23-44.75-1-16.34-1.08-34.06-3.93-52.64-2.61-18.58-4.14-38.24-7.53-58.35-3.61-20.06-6.61-40.9-11.16-61.8-5.15-20.75-8.69-42.24-15.23-62.96-5.84-20.9-11.3-41.93-18.76-62.03-6.54-20.34-13.77-40.1-21.38-59.01-7.16-19.12-15.62-36.91-22.7-54.28-8.31-16.75-15.31-33.09-23.31-47.36-29.91-58.29-55.61-94.29-55.61-94.29zm288.53 0s6.78 8.04 16.68 23.56c9.55 15.66 22.79 38.49 35.32 67.54 5.69 14.73 12.69 30.44 18.16 47.7 6.22 17.05 11.76 35.37 16.53 54.58 5.31 19.08 8.84 39.26 13 59.59 2.93 20.55 6.23 41.43 8.46 62.41 1.31 21.04 3.61 42.04 3.85 62.78.23 20.74.62 41.17-.16 60.87-.92 19.7-2.46 38.73-3.85 56.73-2.23 17.9-4.45 34.81-6.45 50.45-3.24 31.3-10.85 56.64-14.16 74.63-4.07 17.81-6.46 27.98-6.46 27.98s.69-10.42 2-28.69c1.46-18.22 4.46-44.08 5.62-75.23.76-15.57 1.62-32.38 2.54-50.19-.08-17.83-.24-36.59.23-55.96.22-19.39-1.54-39.37-1.78-59.69-.46-20.32-3.08-40.81-4.54-61.39-1.84-20.52-4.83-40.94-7.45-61.06-4-19.84-6.16-39.83-10.77-58.58-4.16-18.86-7.93-37.18-12.77-54.28-4.07-17.31-9.69-33.09-14.16-47.97-5.53-14.46-9.69-28.16-14.45-39.84-4.47-11.87-9.01-21.88-12.69-30.21-7.62-16.53-12.7-25.73-12.7-25.73z"/><path class="fil23" d="M8765.93 740.35s15.85 2.52 43.62 5.45c13.92 1.46 30.6 4.2 49.99 5.48 19.39 1.5 41.24 3.19 65 5.6 23.77 2.68 49.7 2.84 77 4.52 27.38.84 56.07 3.72 85.92 3.54 29.84.42 60.62.82 91.92 1.22 31.3 1.2 63.07-.79 94.84-2.29 31.77-.96 63.53-1.89 94.85-2.84 31.38-.67 61.92-5.41 91.6-7.78 29.62-3.13 58.39-5.3 85.69-7.52 27.39-1.38 52.86-6.11 76.39-9.85 47.14-7.71 86.76-12.68 114.45-16.85 27.77-3.69 43.62-5.79 43.62-5.79s-15.54 3.7-42.7 10.23c-27.3 6-66.22 15.56-113.22 25.34-23.53 4.94-48.92 10.99-76.31 13.77-27.3 3.58-56.07 7.52-85.91 10.76-29.93 2.89-60.69 8.17-92.23 9.36-31.53 1.47-63.54 2.94-95.54 4.43-32.07.97-64.15 2.44-95.69.72-31.53-.95-62.54-1.87-92.61-2.76-30.07.08-58.92-4.68-86.3-6.84-27.39-3.04-53.39-4.52-77.15-8.39-23.77-3.34-45.54-6.89-64.77-10.04-19.31-2.86-35.92-7-49.62-9.57-27.45-5.4-42.84-9.9-42.84-9.9z"/></g></g></svg>