<?xml version="1.0" encoding="UTF-8"?>
<!DOCTYPE svg PUBLIC "-//W3C//DTD SVG 1.1//EN" "http://www.w3.org/Graphics/SVG/1.1/DTD/svg11.dtd">
<!-- Creator: CorelDRAW 2018 (64-Bit) -->
<svg xmlns="http://www.w3.org/2000/svg" xml:space="preserve" width="200mm" height="100mm" version="1.1" style="shape-rendering:geometricPrecision; text-rendering:geometricPrecision; image-rendering:optimizeQuality; fill-rule:evenodd; clip-rule:evenodd"
viewBox="0 0 20000 10000"
 xmlns:xlink="http://www.w3.org/1999/xlink">
 <defs>
  <style type="text/css">
   <![CDATA[
    .fil10 {fill:#5B5B5B;fill-rule:nonzero}
    .fil13 {fill:#2B85A6;fill-rule:nonzero}
    .fil19 {fill:#2E2E2E;fill-rule:nonzero}
    .fil29 {fill:#343434;fill-rule:nonzero}
    .fil18 {fill:#3C3C3C;fill-rule:nonzero}
    .fil17 {fill:#414141;fill-rule:nonzero}
    .fil26 {fill:#434343;fill-rule:nonzero}
    .fil2 {fill:#484848;fill-rule:nonzero}
    .fil15 {fill:#4A4A4A;fill-rule:nonzero}
    .fil20 {fill:#4D4D4D;fill-rule:nonzero}
    .fil12 {fill:#50A4C2;fill-rule:nonzero}
    .fil6 {fill:#5D5D5D;fill-rule:nonzero}
    .fil1 {fill:#5E5E5E;fill-rule:nonzero}
    .fil9 {fill:#606060;fill-rule:nonzero}
    .fil16 {fill:#616161;fill-rule:nonzero}
    .fil0 {fill:#6E6E6E;fill-rule:nonzero}
    .fil11 {fill:#71B9D3;fill-rule:nonzero}
    .fil8 {fill:#737373;fill-rule:nonzero}
    .fil25 {fill:#767676;fill-rule:nonzero}
    .fil21 {fill:#7B7B7B;fill-rule:nonzero}
    .fil27 {fill:#7C7C7C;fill-rule:nonzero}
    .fil22 {fill:#868686;fill-rule:nonzero}
    .fil7 {fill:#8A8A8A;fill-rule:nonzero}
    .fil24 {fill:#8D8D8D;fill-rule:nonzero}
    .fil28 {fill:#A0A0A0;fill-rule:nonzero}
    .fil5 {fill:#B1B1B1;fill-rule:nonzero}
    .fil4 {fill:#BFBFBF;fill-rule:nonzero}
    .fil14 {fill:#C1C1C1;fill-rule:nonzero}
    .fil3 {fill:#DADADA;fill-rule:nonzero}
    .fil23 {fill:#F1F1F1;fill-rule:nonzero}
    .fil30 {fill:#FAFAFA;fill-rule:nonzero}
   ]]>
  </style>
 </defs>
 <g id="Layer_x0020_1">
  <metadata id="CorelCorpID_0Corel-Layer"/>
  <g id="_2907235281680">
   <path class="fil0" d="M12817.35 9650.67c-97.37,-134.8 -135.98,-247.84 -136.7,-335.62 -103.93,58 -42.32,271.13 -42.32,271.13 -24.37,-59.81 -78.74,-137.82 -72.17,-189.8 -47.87,35.21 -61.65,193.58 -47.37,268.31 -206.84,-388.72 -169.25,-671.49 -171.38,-674.8 -62.97,16.87 -172.03,374.22 -180.13,451.4 -4.12,38.93 1.47,89.11 -23.07,108.84 -53.79,-101.88 -79.99,-215.9 -70.01,-294.2 -14.32,23.07 -30.28,77.26 -44.45,101.8 -67.74,-132.87 -89.58,-331.97 -84.53,-393.11 -47.33,37.09 -77.08,170.69 -88.33,241.06 -11.57,72.49 -26.27,182.66 -2.13,281.21 -69.75,-116.29 -105,-329.16 -122.13,-514.38 -35.54,74.63 -64.09,143.26 -67.95,356.13 -0.72,36.88 13.45,102.19 -1.55,126.61 -50.36,-115.97 -82.66,-269.87 -76.53,-320.78 -51.37,23.83 -33.63,319.3 -20.26,408.55 -56.74,-146.07 -94.52,-301.76 -87.02,-409.8 -40.81,165 11.82,414.71 41.85,649.14l1672.89 48.76c69.25,4 166.58,32.77 212.19,5.78 -443.48,-168.86 -366.91,-901.95 -366.91,-901.95 -66.73,229.53 -238.25,391.16 -221.99,715.72z"/>
   <path class="fil0" d="M10588.36 9632.79c50.11,-102.46 58.58,-191.32 42.3,-262.27 92.24,54.05 85.11,222.36 85.11,222.36 7.53,-46.76 34.96,-106.2 19.85,-148.77 44.17,31.86 85.3,160.95 88.5,220.39 86.92,-300.35 3.25,-531.78 4.3,-534.28 52.38,17.93 206.16,314.6 227.29,377.65 10.67,31.76 15.96,71.99 38.96,89.66 22.42,-78.69 20.98,-169.25 -1.87,-233.24 15.61,19.61 38.5,64.56 54.25,85.37 27.37,-102.88 6.21,-262.55 -9.48,-312.37 44.12,33.28 93.01,143.44 115.26,201.19 22.96,59.41 55.62,149.6 55.65,227.76 32.12,-89.37 18.78,-259.27 -3.43,-407.97 42.11,62.8 77.58,120.3 121.49,292.9 7.61,29.85 9.09,81.72 25.49,102.48 17.08,-90.33 12.72,-212.68 -1.8,-254.32 44.7,22.86 87.52,260.74 94.27,332.05 16.21,-114.35 15.81,-237.71 -10.78,-325.67 63.55,136.3 70.43,334.79 91.95,522.46l-1296.82 -75.2c-53.32,-1.51 -123.79,15.11 -164.53,-9.84 313.81,-106.27 113.27,-704.83 113.27,-704.83 96.18,190.27 261.14,332.88 310.77,594.49z"/>
   <path class="fil0" d="M7332.31 9720.56c-62.91,-87.13 -87.91,-160.19 -88.35,-216.98 -67.19,37.49 -27.37,175.31 -27.37,175.31 -15.75,-38.68 -50.89,-89.11 -46.64,-122.74 -30.96,22.81 -39.85,125.15 -30.62,173.46 -133.75,-251.3 -109.41,-434.06 -110.78,-436.2 -40.72,10.9 -111.23,241.9 -116.45,291.79 -2.67,25.17 0.94,57.61 -14.94,70.37 -34.77,-65.87 -51.7,-139.58 -45.24,-190.17 -9.25,14.89 -19.57,49.93 -28.72,65.8 -43.81,-85.91 -57.93,-214.64 -54.66,-254.15 -30.6,24.01 -49.83,110.35 -57.1,155.84 -7.48,46.87 -17,118.1 -1.38,181.8 -45.08,-75.2 -67.86,-212.79 -78.93,-332.52 -22.99,48.24 -41.46,92.62 -43.95,230.21 -0.44,23.87 8.72,66.08 -1,81.83 -32.56,-74.94 -53.42,-174.44 -49.47,-207.36 -33.22,15.43 -21.74,206.43 -13.1,264.1 -36.66,-94.41 -61.1,-195.06 -56.25,-264.88 -26.39,106.67 7.64,268.05 27.04,419.6l1081.46 31.55c44.74,2.59 107.68,21.19 137.13,3.75 -286.67,-109.2 -237.17,-583.05 -237.17,-583.05 -43.15,148.33 -154,252.83 -143.51,462.64z"/>
   <path class="fil0" d="M5891.42 9709.03c32.39,-66.26 37.83,-123.69 27.33,-169.57 59.64,34.93 55.02,143.75 55.02,143.75 4.87,-30.23 22.61,-68.67 12.84,-96.17 28.54,20.59 55.14,104.03 57.21,142.47 56.18,-194.17 2.09,-343.77 2.77,-345.39 33.88,11.57 133.3,203.39 146.94,244.09 6.9,20.58 10.33,46.57 25.18,58 14.52,-50.87 13.56,-109.41 -1.22,-150.8 10.12,12.69 24.89,41.76 35.07,55.19 17.71,-66.47 4.01,-169.71 -6.12,-201.91 28.51,21.52 60.11,92.73 74.49,130.04 14.85,38.43 35.95,96.71 36,147.26 20.77,-57.75 12.13,-167.6 -2.21,-263.74 27.22,40.63 50.13,77.76 78.54,189.36 4.89,19.3 5.86,52.81 16.45,66.26 11.05,-58.4 8.23,-137.52 -1.17,-164.42 28.9,14.75 56.58,168.53 60.94,214.64 10.48,-73.89 10.26,-153.67 -6.94,-210.53 41.07,88.15 45.5,216.4 59.45,337.75l-838.34 -48.6c-34.47,-0.97 -80.01,9.73 -106.37,-6.38 202.87,-68.71 73.25,-455.66 73.25,-455.66 62.16,123.04 168.78,215.18 200.89,384.36z"/>
   <path class="fil0" d="M8138.91 9658.67c-15.46,-23.15 -50,-89.4 -70.55,-112.69 -3.07,31.87 3.96,68.6 11.65,103.79 -6.86,-10.85 -33.67,-31.73 -40.89,-41.32 -1.47,11.9 -8.4,20.91 -9.73,33.85 -17.81,-18.85 -42.11,-29.27 -58.65,-55.37 -1.58,14.52 -14.06,46.9 -14.56,66.01 -9.95,-16.87 -22.53,-28.51 -31.29,-49.6 7.79,29.45 11.92,58.97 18.63,88.31 -105.65,-189.07 -94.7,-164.27 -217.66,-343.5 49.32,137.8 29.31,109.44 56.05,277.96 -35.25,-17.98 -45.49,-72.7 -51.76,-116.5 -27.55,38.78 -30.32,110.48 -33.49,170.18 -50.25,-45.92 -50.4,-148.59 -57.79,-209.15 -54.68,79.77 -93.51,205.33 -39.9,345.78l643.5 6.31c-28.32,-70.73 -72.02,-116.8 -103.56,-164.06z"/>
   <path class="fil0" d="M8630.29 9731.66c64.39,-79.59 86.62,-146.35 82.27,-198.23 80.02,34.28 46.39,160.09 46.39,160.09 14.64,-35.32 50.47,-81.36 42.72,-112.03 37.35,20.79 56.34,114.27 49.92,158.4 131.19,-229.52 87.64,-396.48 89.05,-398.42 47.43,9.96 147.95,220.95 158.21,266.51 5.2,23.01 3.9,52.63 23.15,64.28 34.07,-60.17 47.05,-127.51 35.29,-173.69 11.86,13.59 26.68,45.57 38.5,60.1 42.65,-78.48 47.7,-196.08 40.56,-232.16 37.06,21.95 66.47,100.8 78.69,142.33 12.59,42.82 29.6,107.89 17.24,166.11 45.05,-68.68 59.23,-194.42 61.57,-303.75 30.42,44.06 55.33,84.57 70.07,210.27 2.53,21.78 -4.25,60.35 8.19,74.73 30.72,-68.45 45.99,-159.34 38.65,-189.4 39.29,14.1 42.64,188.54 37.73,241.28 33.79,-86.27 53,-178.19 41.46,-242 39.33,97.44 14.39,244.88 5.26,383.31l-1233.2 28.8c-50.93,2.34 -121.22,19.36 -156.42,3.39 318.21,-99.68 220.78,-532.55 220.78,-532.55 62.11,135.51 197.83,230.93 203.92,422.63z"/>
   <path class="fil0" d="M10293.01 9721.07c-42.75,-60.49 -53.92,-112.98 -45.85,-154.87 -65.17,31.9 -50.5,131.29 -50.5,131.29 -8.18,-27.57 -31.76,-62.72 -22.97,-87.81 -30.85,18.78 -54.04,94.98 -53.1,130.13 -80.96,-177.36 -32.04,-314.02 -32.94,-315.49 -37.71,10.55 -134.79,185.75 -146.87,222.96 -6.12,18.78 -7.79,42.49 -23.79,52.95 -20.94,-46.47 -24.92,-99.96 -11.61,-137.71 -10.45,11.58 -24.83,38.15 -35.33,50.44 -25.95,-60.78 -19.21,-155.05 -10.42,-184.47 -30.71,19.61 -60.67,84.69 -73.93,118.79 -13.63,35.11 -32.73,88.32 -28.41,134.49 -28.73,-52.77 -28.34,-153.06 -20.22,-240.91 -27.61,37.09 -50.57,71.05 -73.4,172.96 -3.97,17.63 -2.16,48.27 -13.12,60.52 -17.66,-53.35 -21.27,-125.58 -12.87,-150.17 -31.73,13.48 -50.11,153.92 -51.08,196.08 -18.38,-67.53 -24.99,-140.39 -10.24,-192.33 -39.33,80.53 -33.34,197.73 -38.82,308.51l953.89 -44.41c39.3,-0.88 92.28,8.9 121.02,-5.82 -237.78,-62.71 -123.01,-416.18 -123.01,-416.18 -60.41,112.37 -174.32,196.54 -196.43,351.05z"/>
   <path class="fil0" d="M7703.11 9675.07c15.72,-21.16 49.49,-81.65 70.94,-102.88 6.28,29.05 1.37,62.65 -4.32,94.77 6.89,-9.92 35.69,-28.98 43.08,-37.74 2.74,10.85 11.43,19.1 14.06,30.89 18.74,-17.2 45.64,-26.75 62.29,-50.54 3.06,13.26 20.12,42.82 22.31,60.31 9.96,-15.43 23.29,-26.07 31.48,-45.35 -6.35,26.92 -8.55,53.86 -13.67,80.67 104.48,-172.67 94.01,-150.07 219.11,-313.73 -44.45,125.84 -24.01,99.93 -40.09,253.86 38.75,-16.44 45.75,-66.41 49.13,-106.38 34.8,35.39 44.2,100.9 52.97,155.4 53.45,-41.91 44.73,-135.68 48.01,-190.98 69.36,72.81 124.55,187.53 75.42,315.78l-734.94 5.78c26.32,-64.64 72.28,-106.72 104.22,-149.86z"/>
   <path class="fil1" d="M10973.88 4910.79c418.71,32.85 725.34,-260.69 873.85,-385.11 212.38,-177.79 267.71,-619.31 90.49,-507.56 -205.45,129.56 -518.99,607.92 -929.7,622.38 -201.7,7.1 -142.21,261.82 -34.64,270.29z"/>
   <path class="fil2" d="M12029.13 4026.19c-20.55,117.05 -86.43,265.03 -189.33,351.19 -148.51,124.4 -455.14,417.98 -873.86,385.08 -31.36,-2.45 -58.36,-26.11 -76.27,-58.18 -41.14,78.11 10.12,200.68 84.21,206.51 418.71,32.85 725.34,-260.69 873.85,-385.11 158.73,-132.91 229.71,-413.08 181.4,-499.49z"/>
   <path class="fil3" d="M11143.99 4749.73c-18.27,-94.01 -115.79,-152.81 -195.92,-137.24 -80.15,15.54 -112.55,99.6 -94.27,193.62 18.24,94.06 98.05,157.65 178.15,142.07 80.14,-15.54 130.32,-104.4 112.04,-198.45z"/>
   <path class="fil4" d="M11067.71 4801.21c-80.14,15.57 -159.92,-48.06 -178.16,-142.07 -0.89,-4.55 -1.11,-8.94 -1.76,-13.45 -34.53,36.16 -46.61,95.64 -33.99,160.42 18.24,94.06 98.05,157.65 178.15,142.07 78.77,-15.28 128.22,-101.44 112.55,-193.69 -19.76,23.76 -46.01,40.73 -76.79,46.72z"/>
   <path class="fil4" d="M10953.26 4883.58c-174.2,-10.88 -623.73,-814.42 -623.73,-814.42l23.86 -35.73c0,0 591.94,528.34 671.39,615.76 79.45,87.42 -7.93,238.36 -71.52,234.39z"/>
   <path class="fil5" d="M11037.5 4665.91c-18.28,53.68 -59.23,96.65 -93.51,94.53 -131.76,-8.26 -421.02,-469.98 -554.11,-694.38 -22.97,-20.55 -36.49,-32.63 -36.49,-32.63l-23.86 35.73c0,0 449.53,803.54 623.73,814.42 59.69,3.75 140.33,-129.09 84.24,-217.67z"/>
   <path class="fil0" d="M8335.23 6750.78c-87.38,460.81 -429.05,421.12 -659.44,357.53 -230.43,-63.59 -778.67,-540.27 -286.05,-929.63 0,0 -587.96,-333.71 -182.74,-834.25 0,0 -889.91,-897.84 -365.49,-1906.92 0,0 -508.54,-270.16 -373.45,-1001.11 135.09,-731.01 770.7,-1056.78 770.7,-1056.78 0,0 -548.22,-524.41 87.39,-1080.57 635.65,-556.17 1080.6,-39.73 1080.6,-39.73 0,0 238.36,-262.18 889.91,-103.28 651.51,158.91 826.31,460.82 826.31,460.82 0,0 794.52,-587.96 1374.55,405.22 580.03,993.19 135.08,1414.32 135.08,1414.32 0,0 95.35,150.94 -119.18,341.63 -214.53,190.7 -524.41,190.7 -524.41,190.7 0,0 333.71,222.45 262.22,587.95 -71.52,365.51 -349.6,397.3 -349.6,397.3 0,0 214.53,95.32 111.21,309.84 -103.28,214.53 -325.74,246.33 -325.74,246.33 0,0 683.31,293.98 -325.77,1318.96 0,0 262.22,476.71 -413.16,802.45 -675.37,325.81 -754.82,71.52 -754.82,71.52 0,0 -111.25,95.35 -365.47,174.81 -254.29,79.48 -492.65,-127.11 -492.65,-127.11z"/>
   <path class="fil6" d="M8931.16 3485.2c-821.06,0 -1529.24,696.08 -1856.49,1701.19 75.98,101.15 132.33,158.04 132.33,158.04 -405.22,500.54 182.74,834.25 182.74,834.25 -492.62,389.36 55.62,866.04 286.05,929.63 230.39,63.59 572.06,103.28 659.44,-357.53 0,0 238.36,206.59 492.65,127.11 254.22,-79.46 365.47,-174.81 365.47,-174.81 0,0 79.45,254.29 754.82,-71.52 675.38,-325.74 413.16,-802.45 413.16,-802.45 223.25,-226.78 363.55,-417.7 446.82,-577.65 -317.44,-1040.01 -1038.35,-1766.26 -1876.99,-1766.26z"/>
   <path class="fil7" d="M13118.71 3589.82c0,0 78.95,-10.21 131.33,-127.29 52.34,-117.13 -126.02,-188.39 -126.02,-188.39 0,0 235.25,-61.11 180.86,-300.44 -54.44,-239.33 -406.27,-178.22 -406.27,-178.22 0,0 107.2,-290.23 -40.42,-381.87 -147.62,-91.63 -328.15,5.09 -328.15,5.09 0,0 -289.91,-76.4 -518.6,10.16 -228.7,86.59 -72.61,346.28 -72.61,346.28 0,0 -75.95,-35.65 -115.24,25.42 -39.29,61.14 38.46,132.41 38.46,132.41 0,0 -273.94,30.53 -354.58,112.01 -80.64,81.46 16.33,218.95 16.33,218.95 0,0 -60.99,50.94 -109.08,147.66 -48.13,96.76 68.03,193.51 68.03,193.51 0,0 -156.39,50.91 -160.97,274.95 -4.61,224.05 223.15,224.05 223.15,224.05 0,0 -14.42,239.28 320.22,152.77l524.15 -5.12c0,0 131.59,193.51 450.91,224.05 319.39,30.53 342.99,-341.17 342.99,-341.17 0,0 143.23,-101.84 116.56,-315.69 -26.64,-213.84 -181.05,-229.12 -181.05,-229.12z"/>
   <path class="fil8" d="M13311.18 3012.82c-2.19,42.03 -16.04,89.36 -61.86,114.85 -94.41,52.52 -173.53,59.95 -173.53,59.95 0,0 2.08,168.24 -110.5,189.73 -112.62,21.48 -355.7,-108.4 -355.7,-108.4 0,0 23.73,102.77 -43.25,130.89 -66.98,28.12 -109.41,-44.31 -109.41,-44.31 0,0 -18.39,302.46 -255.91,244.31 -237.53,-58.12 -433.24,-285.22 -433.24,-285.22 0,0 -203.57,-22.45 -273.35,-181.58 -7.04,-16 -10.64,-32.19 -11.73,-48.37 -28.69,79.87 41.1,179.26 41.1,179.26 0,0 -60.99,50.94 -109.08,147.66 -48.13,96.76 68.03,193.51 68.03,193.51 0,0 -156.39,50.91 -160.97,274.95 -4.61,224.05 223.15,224.05 223.15,224.05 0,0 -14.42,239.28 320.22,152.77l524.15 -5.12c0,0 131.59,193.51 450.91,224.05 319.39,30.53 342.99,-341.17 342.99,-341.17 0,0 143.23,-101.84 116.56,-315.69 -26.64,-213.84 -181.05,-229.12 -181.05,-229.12 0,0 78.95,-10.21 131.33,-127.29 52.34,-117.13 -126.02,-188.39 -126.02,-188.39 0,0 208.9,-54.51 187.16,-261.32z"/>
   <path class="fil9" d="M12335.76 3509.03c-133.67,-175.38 -576.02,393.47 -576.02,727 0,13.06 0.76,25.78 1.27,38.61 30.35,-2.09 64.73,-7.61 104.14,-17.77l524.15 -5.12c0,0 48.27,70.3 156.27,132.84 7.97,-47.58 12.65,-97.18 12.65,-148.56 0,-333.53 -100.71,-567.34 -222.46,-727z"/>
   <path class="fil10" d="M12558.26 5698.01c-34.42,-255.59 -226.46,-872.68 -226.46,-872.68l-242.31 868.7c0,0 517.51,365.94 468.77,3.98z"/>
   <path class="fil10" d="M12526.46 5708.6c-34.42,-255.59 -226.42,-872.71 -226.42,-872.71l-242.35 868.75c0,0 517.52,365.9 468.77,3.96z"/>
   <path class="fil2" d="M12447.01 5793.34c-214.52,-937.55 241.03,-1611.59 119.18,-1632.8 -121.84,-21.19 -573.39,738.94 -562.8,1024.99 10.57,286.01 504.12,872.17 443.62,607.81z"/>
   <path class="fil11" d="M11510.75 9616.41c-397.25,-1419.61 -468.74,-3146.39 -394.59,-3612.53 74.15,-466.11 474.09,-1231.55 474.09,-1231.55l684.42 -89.07c0,0 -288.5,1263.69 283.59,1014.75 107.25,595.88 -171.48,2334.7 -337.81,3888.95l-36.88 -0.71 -392.03 -2358.76 -79.49 -63.55 -174.66 2439.25 -26.64 13.22z"/>
   <path class="fil12" d="M11383.6 5255.86c768.11,-59.77 903.22,1087.89 1049.43,2538.46 110.6,-925.88 191.38,-1728.69 125.23,-2096.31 -572.09,248.94 -283.59,-1014.75 -283.59,-1014.75l-684.42 89.07c0,0 -112.38,215.07 -228.99,486.56 7.38,-1.3 14.81,-2.45 22.34,-3.03z"/>
   <path class="fil13" d="M12002.07 7060.65c-169.3,84.32 -369,15.5 -536.34,-107.28l148.99 176.14 -107.46 2474.22c1.19,4.21 2.34,8.47 3.49,12.68l26.64 -13.22 171.6 -2396.07 70.62 40.23 88.2 439.26 3.14 -518.71 131.12 -107.25z"/>
   <path class="fil13" d="M12558.26 5698.01c-39.9,17.33 -75.45,27.1 -107.35,30.7 80.13,668.21 -113.05,2371.27 -257.1,3857.75l26.64 0.5c166.33,-1554.25 445.06,-3293.07 337.81,-3888.95z"/>
   <path class="fil11" d="M11941.86 3995.33c-318.2,223.51 -693.87,873.83 -628.58,951.16 65.25,77.36 805.16,86.33 815.93,4.65 24.62,-186.99 300.58,-883.28 357.89,-935.15 -7.81,-58.68 -499.17,-52.99 -545.24,-20.66z"/>
   <path class="fil13" d="M12113.32 4895.52c-10.39,78.65 -696.55,73.21 -805.7,3.63 -3.21,22.1 -1.77,38.58 5.66,47.34 65.25,77.36 830.31,108.83 841.09,27.14 24.62,-186.98 289.65,-875.12 346.94,-926.96 -90.05,14.56 -365.72,679.84 -387.99,848.85z"/>
   <path class="fil1" d="M12017.97 3973.81c-174.81,198.67 -287.04,387.74 -274.13,425.09 15.4,44.56 316.11,57.6 360.17,15.9 49.03,-46.36 296.07,-432.08 296.07,-432.08 -70.98,-21.89 -238.64,-11.32 -382.11,-8.91z"/>
   <path class="fil2" d="M11788.87 4385.67c-12.62,-36.55 94.81,-218.57 263.3,-412.55 -11.5,0.26 -22.96,0.51 -34.2,0.69 -174.81,198.67 -287.04,387.74 -274.13,425.09 14.68,42.5 288.4,56.2 351.95,21.2 -100.07,16.58 -294.62,1.19 -306.92,-34.43z"/>
   <path class="fil1" d="M11751.77 5155.07c413.16,-75.5 634.36,-437.82 746.07,-596.11 159.7,-226.28 100.15,-667.23 -42.53,-513.85 -165.43,177.91 -345.96,720.63 -739.29,839.8 -193.12,58.51 -70.41,289.55 35.75,270.16z"/>
   <path class="fil2" d="M12584.22 4121.68c-5.45,102.53 -34.47,217.45 -94.31,302.24 -111.71,158.25 -332.91,520.58 -746.07,596.07 -43.07,7.86 -88.86,-25.49 -115.17,-71.78 -49.64,88.91 41.57,221.75 123.1,206.86 413.16,-75.5 634.36,-437.82 746.07,-596.11 88.79,-125.77 109.74,-317.77 86.38,-437.28z"/>
   <path class="fil14" d="M12138.47 9762.09l495.25 0c0,0 -342.65,-236.84 -427.4,-207.71 -84.76,29.12 -67.85,207.71 -67.85,207.71z"/>
   <path class="fil14" d="M11601.96 9762.09l-542.8 0c0,0 375.57,-236.84 468.42,-207.71 92.9,29.12 74.38,207.71 74.38,207.71z"/>
   <path class="fil3" d="M11877.62 4965.6c-18.28,-94.03 -115.78,-152.85 -195.93,-137.28 -80.13,15.57 -112.54,99.64 -94.3,193.65 18.27,94.02 98.05,157.64 178.2,142.07 80.13,-15.57 130.31,-104.43 112.03,-198.44z"/>
   <path class="fil4" d="M11801.34 5017.04c-80.13,15.57 -159.91,-48.02 -178.15,-142.07 -0.9,-4.55 -1.11,-8.91 -1.77,-13.42 -34.57,36.16 -46.61,95.65 -34.03,160.42 18.27,94.02 98.05,157.64 178.2,142.07 78.76,-15.29 128.18,-101.44 112.53,-193.69 -19.75,23.76 -45.96,40.7 -76.78,46.69z"/>
   <path class="fil4" d="M11694.82 5111.37c-174.15,-10.92 -623.69,-814.42 -623.69,-814.42l23.83 -35.75c0,0 591.92,528.36 671.38,615.75 79.45,87.42 -7.93,238.35 -71.52,234.42z"/>
   <path class="fil5" d="M11766.34 4876.95l-7.93 -8.4c-17.24,56.13 -59.95,101.98 -95.35,99.78 -131.91,-8.25 -582.76,-685.14 -582.76,-685.14l-9.17 13.76c0,0 449.54,803.5 623.69,814.42 63.59,3.93 150.97,-147 71.52,-234.42z"/>
   <path class="fil4" d="M12069.58 3976.48l158.94 -397.26 297.94 -135.11 -163.07 531c0,0 -293.81,172.21 -293.81,1.37z"/>
   <path class="fil15" d="M7677.45 5737.22l0.54 -23c0,0 605.62,463.49 862.14,1184.53l120.66 790.13c-234.93,-964.35 -413.3,-1404.68 -983.34,-1951.66z"/>
   <path class="fil15" d="M9289.01 6105.42l-8.25 -22.09c0,0 -595.92,603.86 -675.38,1366.65l67.56 770.65c-27.4,-992.27 91.67,-1439.86 616.07,-2115.21z"/>
   <path class="fil16" d="M8883.5 9762.09c-111.24,-1056.74 -238.39,-1485.83 -185.11,-2473.68 0,0 -445.24,-1684.43 -21.48,-2563.74l-254.26 -397.29c-270.15,1962.55 556.17,3917.16 -15.9,5434.71l476.75 0z"/>
   <path class="fil15" d="M8683.17 7227.3c-74.36,-309.44 -382.15,-1722.67 -6.26,-2502.63l-254.26 -397.29c-147.8,1073.72 32.59,2144.99 132.63,3143.69 40.66,-92.14 83.55,-173.79 127.89,-243.77z"/>
   <path class="fil0" d="M10693.99 4299.12c-202.27,-248.27 -474.51,-448.09 -786.19,-521.78 36.73,-44.48 2.01,-117.48 -51.08,-139.97 -53.11,-22.5 -113.81,-10.28 -170.08,2.23 37.41,-225.27 -33.06,-466.04 -186.02,-635.61 -110.52,-122.57 -257.74,-205.99 -408.18,-273.94 -349.46,-157.83 -736.38,-243.37 -1118.28,-209.08 -381.9,34.28 -757.6,194.19 -1021.41,472.45 -96.86,102.17 -177.06,217.99 -243.02,342.18 72.61,70.4 131.78,101.91 131.78,101.91 -524.42,1009.08 365.49,1906.92 365.49,1906.92 -405.22,500.54 182.74,834.25 182.74,834.25l-7.24 6.16c50.57,-7.39 99.24,-24.69 142.75,-54.15 -15.72,75.6 30.49,159.2 102.84,186.12 72.39,26.97 162.01,-6.12 199.57,-73.57 -36.3,49.74 29.89,121.31 90.99,113.66 61.06,-7.64 105.66,-59.51 143.95,-107.71 156.16,-196.58 319.06,-409.84 336.43,-660.28 8.48,-121.99 -16.83,-254.14 44.74,-359.8 46.97,2.77 94.74,-18.13 124.55,-54.5 5.45,188.1 120.88,368.99 289.15,453.2 -3.49,108.22 155.52,177.14 232.13,100.58 -92.44,469.86 182.69,858.83 576.35,1018.85 80.09,-25.84 173.28,-63.16 282.22,-115.68 675.38,-325.74 413.16,-802.45 413.16,-802.45 1009.08,-1024.98 325.77,-1318.96 325.77,-1318.96 0,0 83.49,-22.67 153.72,-59.01 -37.79,-57.17 -103.46,-98.74 -146.83,-152.02z"/>
   <path class="fil17" d="M11783.03 4135.17c0.04,-0.04 0.04,-0.04 0.04,-0.04 0,0 0,0 -0.04,0.04zm1.27 -1.3c0,-0.04 0.03,-0.04 0.03,-0.07 0,0.03 -0.03,0.03 -0.03,0.07zm2.51 -2.63c0.04,-0.03 0.04,-0.03 0.08,-0.08l-0.08 0.08zm1.23 -1.26c0.04,-0.04 0.07,-0.07 0.11,-0.11 -0.04,0.04 -0.07,0.07 -0.11,0.11zm1.29 -1.34l0.05 -0.03c-0.05,0.03 0,0.03 -0.05,0.03zm1.27 -1.3c0.03,0 0.07,-0.03 0.07,-0.07 -0.04,0.04 -0.04,0.04 -0.07,0.07zm1.23 -1.22c0.03,-0.07 0.07,-0.11 0.14,-0.18 -0.04,0.03 -0.11,0.15 -0.14,0.18zm2.55 -2.63c0.04,-0.04 0.07,-0.07 0.11,-0.14 -0.04,0.07 -0.07,0.1 -0.11,0.14zm1.27 -1.3c0.03,0 0.03,-0.04 0.07,-0.07 -0.04,0.03 -0.04,0.03 -0.07,0.07zm1.3 -1.3c0,0 0,0 0,-0.04l0 0.04zm1.22 -1.26c0.03,-0.03 0.08,-0.07 0.11,-0.1 -0.03,0.03 -0.08,0.07 -0.11,0.1zm1.26 -1.26c0.04,-0.04 0.07,-0.07 0.07,-0.07 0,0 -0.03,0.03 -0.07,0.07zm2.57 -2.56c0,-0.03 0.03,-0.08 0.07,-0.11 -0.04,0.03 -0.07,0.08 -0.07,0.11zm1.22 -1.26c0.03,-0.04 0.07,-0.07 0.1,-0.07 -0.03,0.03 -0.03,0.03 -0.1,0.07zm1.3 -1.3c0,0 0.03,0 0.03,-0.04l-0.03 0.04zm1.23 -1.22c0.07,-0.05 0.1,-0.12 0.17,-0.15 -0.07,0.03 -0.14,0.1 -0.17,0.15zm1.18 -1.2c0.07,-0.07 0.18,-0.17 0.26,-0.25 -0.08,0.11 -0.15,0.18 -0.26,0.25zm2.64 -2.6c0.03,-0.03 0.07,-0.07 0.14,-0.14 -0.07,0.04 -0.11,0.11 -0.14,0.14zm1.29 -1.25c0,-0.04 0,-0.04 0.04,-0.04 -0.04,0 -0.04,0 -0.04,0.04zm1.26 -1.26l0 -0.04 0 0.04zm1.23 -1.2c0.07,-0.07 0.11,-0.14 0.18,-0.21 -0.07,0.07 -0.11,0.14 -0.18,0.21zm1.22 -1.22c0.04,-0.03 0.11,-0.1 0.19,-0.18 -0.04,0.04 -0.15,0.15 -0.19,0.18zm2.56 -2.53c0.07,-0.03 0.11,-0.1 0.18,-0.14 -0.07,0.07 -0.11,0.07 -0.18,0.14zm1.3 -1.25c0.04,0 0.04,-0.04 0.07,-0.04 -0.03,0 -0.03,0.04 -0.07,0.04zm3.79 -3.65c0.03,-0.03 0.07,-0.07 0.1,-0.1 -0.03,0.03 -0.07,0.07 -0.1,0.1zm658.29 -72.42c2.44,-3.17 4.65,-5.69 6.59,-7.46l0 0 -6.49 7.39c-0.03,0.04 -0.07,0.07 -0.1,0.07zm-541.17 -26.35c0.03,0 0.08,0 0.08,-0.03 0,0.03 -0.05,0.03 -0.08,0.03zm1.15 -0.79c0.07,-0.04 0.15,-0.11 0.22,-0.14 -0.07,0.07 -0.15,0.1 -0.22,0.14zm1.37 -0.98c0.08,-0.03 0.15,-0.1 0.22,-0.14 -0.07,0.04 -0.14,0.11 -0.22,0.14zm0.32 -0.22c0.05,-0.03 0.12,-0.07 0.15,-0.07 -0.03,0.04 -0.07,0.04 -0.15,0.07zm0.26 -0.17c0.07,0 0.1,-0.04 0.14,-0.07 -0.04,0.03 -0.11,0.07 -0.14,0.07zm0.29 -0.14c0.04,-0.04 0.04,-0.04 0.07,-0.07 -0.03,0.03 -0.03,0.03 -0.07,0.07zm0.25 -0.19l0 0 0 0zm456.99 -11.89l0 0c-0.1,-0.04 -0.29,-0.11 -0.39,-0.14 0.14,0.03 0.25,0.1 0.39,0.14zm-347.8 -9.6l0 0c6.31,-0.14 12.62,-0.31 18.96,-0.46l119.72 -299.35 0 0 -119.72 299.35c-6.34,0.15 -12.65,0.32 -18.96,0.46z"/>
   <path class="fil12" d="M11938.36 4487.88c-151.47,0 -262.15,-62.34 -307.2,-145.51 -3.28,-6.02 -5.3,-12.54 -7.68,-18.92 50.86,-67.05 104.86,-131.43 159.55,-188.28 0.04,-0.04 0.04,-0.04 0.04,-0.04 0.39,-0.43 0.83,-0.86 1.23,-1.26 0,-0.04 0.03,-0.04 0.03,-0.07 0.82,-0.83 1.65,-1.7 2.48,-2.56l0.08 -0.08c0.39,-0.39 0.79,-0.78 1.15,-1.18 0.04,-0.04 0.07,-0.07 0.11,-0.11 0.4,-0.4 0.8,-0.79 1.18,-1.23 0.05,0 0,0 0.05,-0.03 0.39,-0.44 0.79,-0.83 1.22,-1.27 0.03,-0.03 0.03,-0.03 0.07,-0.07 0.4,-0.4 0.76,-0.75 1.16,-1.15 0.03,-0.03 0.1,-0.15 0.14,-0.18 0.8,-0.79 1.58,-1.62 2.41,-2.45 0.04,-0.04 0.07,-0.07 0.11,-0.14 0.4,-0.37 0.76,-0.76 1.16,-1.16 0.03,-0.04 0.03,-0.04 0.07,-0.07 0.4,-0.4 0.79,-0.83 1.23,-1.23l0 -0.04c0.43,-0.39 0.82,-0.78 1.22,-1.22 0.03,-0.03 0.08,-0.07 0.11,-0.1 0.39,-0.4 0.79,-0.8 1.15,-1.16 0.04,-0.04 0.07,-0.07 0.07,-0.07 0.83,-0.83 1.67,-1.67 2.5,-2.49 0,-0.03 0.03,-0.08 0.07,-0.11 0.4,-0.36 0.78,-0.75 1.15,-1.15 0.07,-0.04 0.07,-0.04 0.1,-0.07 0.4,-0.44 0.8,-0.83 1.2,-1.23l0.03 -0.04c0.4,-0.39 0.8,-0.79 1.2,-1.18 0.03,-0.05 0.1,-0.12 0.17,-0.15 0.33,-0.36 0.68,-0.68 1.01,-1.05 0.11,-0.07 0.18,-0.14 0.26,-0.25 0.78,-0.79 1.58,-1.55 2.38,-2.35 0.03,-0.03 0.07,-0.1 0.14,-0.14 0.36,-0.36 0.76,-0.76 1.15,-1.11 0,-0.04 0,-0.04 0.04,-0.04 0.39,-0.43 0.79,-0.83 1.22,-1.22l0 -0.04c0.4,-0.4 0.83,-0.76 1.23,-1.16 0.07,-0.07 0.11,-0.14 0.18,-0.21 0.36,-0.33 0.69,-0.65 1.04,-1.01 0.04,-0.03 0.15,-0.14 0.19,-0.18 0.79,-0.79 1.58,-1.55 2.37,-2.35 0.07,-0.07 0.11,-0.07 0.18,-0.14 0.36,-0.36 0.76,-0.71 1.12,-1.11 0.04,0 0.04,-0.04 0.07,-0.04 1.22,-1.23 2.49,-2.41 3.72,-3.61 0.03,-0.03 0.07,-0.07 0.1,-0.1 39.23,-37.89 78.55,-71.38 117.02,-98.67 0.03,0 0.08,0 0.08,-0.03 0.35,-0.26 0.71,-0.52 1.07,-0.76 0.07,-0.04 0.15,-0.07 0.22,-0.14 0.39,-0.3 0.76,-0.55 1.15,-0.84l0 0c0.08,-0.03 0.15,-0.1 0.22,-0.14 0.03,-0.04 0.07,-0.04 0.1,-0.08 0.08,-0.03 0.12,-0.03 0.15,-0.07 0.04,-0.03 0.07,-0.07 0.11,-0.1 0.03,0 0.1,-0.04 0.14,-0.07 0.04,-0.04 0.07,-0.04 0.15,-0.07 0.04,-0.04 0.04,-0.04 0.07,-0.07 0.07,-0.05 0.11,-0.09 0.18,-0.12l0 0c9.91,-5.98 35.26,-10.99 69.75,-14.81 -162.65,185.97 -269.79,362.33 -269.89,411.96 0,2.78 0.32,5.19 1,7.14l0 0c0.37,1.09 0.91,2.13 1.6,3.17 0.03,0.04 0.07,0.07 0.07,0.11 0.03,0.04 0.03,0.04 0.07,0.07 5.08,7.39 18.24,13.85 36.65,19.22 0.11,0.04 0.19,0.04 0.3,0.07 0.14,0.04 0.24,0.07 0.39,0.11 41.17,11.86 108.25,18.45 170.91,18.45 68.53,0 131.76,-7.85 150.18,-25.3 48.74,-46.07 293.26,-427.69 296.03,-432.01 50.54,7.2 85.01,18.03 87.06,33.2 -1.94,1.77 -4.15,4.29 -6.59,7.46 -8.08,5.12 -16.48,12.29 -25.2,21.66 -73.65,79.21 -150.25,230.62 -247.3,384.83 -98.77,40.67 -189.87,57.94 -269.65,57.94zm461.72 -505.16c-0.04,0 -0.07,0 -0.11,0l0 0c0.04,0 0.07,0 0.11,0z"/>
   <path class="fil18" d="M11953.83 4440.1c-62.66,0 -129.74,-6.59 -170.91,-18.45 41.02,11.82 107.79,18.35 170.23,18.35 60.95,0 117.84,-6.24 142.64,-19.9 -27.32,4.54 -61.68,6.67 -97.44,6.67 -95.27,0 -200.54,-15.18 -209.48,-41.1 -12.62,-36.55 94.81,-218.57 263.3,-412.55 6.31,-0.14 12.62,-0.31 18.96,-0.46l-1.55 3.82c0,56.64 32.3,75.56 75.5,75.56 85.49,0 213.66,-74.19 218.19,-76.86 13.74,1.91 26.07,4.29 36.31,7.4 0.1,0.03 0.29,0.1 0.39,0.14 0.04,0 0.07,0 0.11,0l0 0 -0.04 0.03c0,0 0,0 0,0.04 -2.77,4.32 -247.29,385.94 -296.03,432.01 -18.42,17.45 -81.65,25.3 -150.18,25.3zm-171.3 -18.56c-0.11,-0.03 -0.19,-0.03 -0.3,-0.07 0.11,0.04 0.19,0.04 0.3,0.07zm-36.95 -19.29c-0.04,-0.03 -0.04,-0.03 -0.07,-0.07 0.03,0.04 0.03,0.04 0.07,0.07zm-0.14 -0.18c-0.69,-1.04 -1.23,-2.08 -1.6,-3.17 0.37,1.09 0.91,2.13 1.6,3.17z"/>
   <path class="fil19" d="M11953.15 4440c-62.44,0 -129.21,-6.53 -170.23,-18.35 -0.15,-0.04 -0.25,-0.07 -0.39,-0.11 -0.11,-0.03 -0.19,-0.03 -0.3,-0.07 -18.41,-5.37 -31.57,-11.83 -36.65,-19.22 -0.04,-0.03 -0.04,-0.03 -0.07,-0.07 0,-0.04 -0.04,-0.07 -0.07,-0.11 -0.69,-1.04 -1.23,-2.08 -1.6,-3.17l0 0c-0.68,-1.95 -1,-4.36 -1,-7.14 0.1,-49.63 107.24,-225.99 269.89,-411.96 0.04,0 0.08,-0.04 0.12,-0.04l5.12 -5.95c11.28,-0.18 22.7,-0.43 34.2,-0.69l0 0c-168.49,193.98 -275.92,376 -263.3,412.55 8.94,25.92 114.21,41.1 209.48,41.1 35.76,0 70.12,-2.13 97.44,-6.67 -24.8,13.66 -81.69,19.9 -142.64,19.9z"/>
   <path class="fil18" d="M12208.01 4429.94c97.05,-154.21 173.65,-305.62 247.3,-384.83 8.72,-9.37 17.12,-16.54 25.2,-21.66 0.03,0 0.07,-0.03 0.1,-0.07l-0.1 0.14c10.77,-6.84 20.94,-10.02 30.45,-10.02 34.97,0 60.61,43.44 73.26,108.22 -1.11,21.09 -3.25,42.69 -6.42,64.46 -48.63,37.05 -100.82,85.57 -153.32,122.68 -75.08,53.09 -147.62,92.75 -216.47,121.08z"/>
   <path class="fil19" d="M12577.8 4186.18c3.17,-21.77 5.31,-43.37 6.42,-64.46l0 0 0 0c2.88,14.71 5.05,30.49 6.52,47.12l0.15 1.8 0.25 5.62c-4.44,3.21 -8.87,6.53 -13.34,9.92z"/>
   <path class="fil20" d="M12448.78 3697.07l0 -0.04 38.65 -125.85c0.03,0 0.03,0 0.03,0l-38.68 125.89z"/>
   <polygon class="fil17" points="12363.39,3975.11 12363.39,3975.11 12363.39,3975.11 12448.78,3697.03 12448.78,3697.07 12363.39,3975.11 "/>
   <polygon class="fil18" points="12363.39,3975.11 12363.39,3975.11 "/>
   <path class="fil21" d="M12145.08 4052.04c-43.2,0 -75.5,-18.92 -75.5,-75.56l1.55 -3.82 119.72 -299.35c102.7,-48.42 203.86,-82.77 296.58,-102.13l-38.65 125.85 -85.39 278.08 0 0 0 0 -0.12 0.07 0 0c-4.53,2.67 -132.7,76.86 -218.19,76.86z"/>
   <path class="fil4" d="M11906.25 3988.31c411.1,-64.43 564.88,-210.28 651.4,-426.58 86.48,-216.25 59.37,-598.7 -125.95,-646.24 -335.01,-85.94 -384.33,-22.46 -542.54,326.21 -162.69,358.51 -17.2,676.27 17.09,746.61z"/>
   <path class="fil4" d="M12529.9 3751.21c38.82,-131.98 135.14,-348.26 202.41,-266.51 67.23,81.83 16.76,173.75 -42.21,219.86 -58.95,46.15 -160.2,46.65 -160.2,46.65z"/>
   <path class="fil22" d="M12569.76 3712.27c26.35,-89.47 91.64,-236.15 137.28,-180.67 45.6,55.44 11.35,117.77 -28.62,149.07 -39.98,31.29 -108.66,31.6 -108.66,31.6z"/>
   <path class="fil4" d="M12555.53 3711.52c17.98,-61.03 62.57,-161.07 93.69,-123.25 31.11,37.81 7.75,80.35 -19.55,101.7 -27.28,21.33 -74.14,21.55 -74.14,21.55z"/>
   <polygon class="fil13" points="12264.24,6083.33 11124.02,5969.08 11114.14,6017.21 12264.24,6142.95 "/>
   <polygon class="fil23" points="11753.11,6005.21 11574.34,5997.28 11574.34,6088.66 11753.11,6096.59 "/>
   <path class="fil6" d="M9753.83 1009.68c33.57,127.94 66.91,265.08 23.54,390.02 -43.44,124.94 -197.69,219.68 -311.46,152.16 -40.26,115.39 -171.74,168.78 -291.1,195.17 -548.99,121.34 -1147.4,-51.26 -1569.43,-422.82 -226.09,-198.99 -400.75,-451.3 -518.1,-728.77 -215.56,432.67 151.48,784.18 151.48,784.18 0,0 -122.31,62.72 -271.01,194.81 64.86,80.93 128.78,160.38 219.53,226.92 146.15,107.17 310.89,185.81 473.58,264.06 52.17,25.13 106.74,52.31 139.15,100.25 48.13,71.1 707.75,257.65 926.64,369.47 56.38,-16.5 112.55,-33.63 167.6,-53.85 253.52,-92.97 483.3,-249.79 662.25,-451.98 18.46,-20.85 38.28,-48.89 65.82,-44.85 7.46,1.11 11.47,6.13 13.12,12.4 215.33,-273.91 264.42,-670.33 118.39,-987.17z"/>
   <path class="fil6" d="M9638.37 3127.56c-19,47.37 -36.74,95.53 -52.85,144.23 46.79,-28.84 72.1,-91.96 52.85,-144.23z"/>
   <path class="fil6" d="M10446.55 4061.05c-251.63,-20.51 -511.18,-99.46 -683.49,-283.99 7.82,24.07 -24.22,45.64 -48.45,38.28 -24.26,-7.32 -39.36,-30.89 -51.37,-53.21 -66.4,-123.65 -102.05,-263.41 -104.36,-403.71 -50.76,178.88 -76.03,364.09 -52.96,547.66 33.24,264.02 180.46,524 419.65,640.66 43.76,21.34 99.64,36.52 138.21,6.81 -27.97,70.95 24.48,154.4 95.32,182.52 70.86,28.15 151.65,13.37 223.17,-13.05 71.52,-26.43 139.05,-64.14 212.95,-82.99 73.68,-18.81 150.4,-18.13 226.56,-21.99 -62.72,-76.85 -134.68,-107.89 -134.68,-107.89 0,0 222.46,-31.8 325.74,-246.33 64.86,-134.67 4.48,-222.34 -49.53,-268.99 -162.97,63.23 -339.87,80.64 -516.76,66.22z"/>
   <path class="fil6" d="M9560.53 3283.4c-1.73,24.95 -2.05,50 -1.65,75.02 8.25,-29.06 17.15,-57.93 26.64,-86.63 -7.82,4.83 -16.08,8.94 -24.99,11.61z"/>
   <path class="fil6" d="M7742.83 3452.83c-35.11,28.91 -66.47,63.66 -107.45,83.35 -36.3,17.38 -77.33,21.56 -117.53,24.04 -245.54,15.29 -477.51,-19.94 -687.64,-100.07 -59.68,119.43 -99.92,237.2 -124.16,352.02 77.99,5.52 156.21,7.86 234.6,6.2 399.82,-8.54 809.58,-128.4 1103.27,-399.78 55.04,-50.87 107.54,-111.93 130.14,-181.58 -135.55,84.14 -306.93,113.37 -431.23,215.82z"/>
   <path class="fil6" d="M9785.74 4126.05c-12.48,-41.18 -27.72,-85.51 -63.59,-111 -34.28,-24.3 -79.96,-25.74 -115.4,-48.37 -55.76,-35.59 -74.98,-115.93 -136.34,-140.13 -35.79,-14.09 -75.12,-4 -109.95,8.65 -214.02,77.91 -377.25,245.1 -515,421.42 -137.73,176.31 -258.43,367.77 -422.34,520.62 -71.19,66.37 -150.8,125.34 -241.67,163.63 -60.21,25.34 -124.49,41.27 -188.46,57.1 -167.24,41.34 -334.25,83.48 -501.78,123.9 106.74,-28.41 223.76,-4.44 333.57,-16.41 114.46,-12.44 223.64,-55.26 325.62,-102.41 253.68,-117.23 467.88,-301.44 656.6,-500.3 36.56,-38.53 73.73,-78.62 122.9,-100.53 32.19,-14.38 67.94,-20.16 103.31,-25.71 169.79,-26.64 345.32,-50.71 516.08,-9.98 170.8,40.73 337.63,161.79 380.13,329.23 -38.67,-191.48 -86.66,-381.71 -143.68,-569.71z"/>
   <path class="fil6" d="M9765.44 2001.36c87.6,-74.01 183.2,-138.26 284.35,-192.18 -108.86,21.19 -212.4,101.87 -284.35,192.18z"/>
   <path class="fil6" d="M11179.5 2620.03c-34.61,-76.75 -11.25,-195.31 -90.52,-223.72 -29.96,-10.71 -64.31,-1.48 -94.12,-12.58 -73.94,-27.58 -55.78,-134 -60.46,-212.76 -12,-201.74 -261.32,-360.42 -203.53,-554.08 -237.46,13.41 -471.3,80.39 -681.08,192.29 46.65,-9.09 94.23,-7.46 140.77,9.34 102.96,37.19 168.39,136.12 226.42,228.91 43.37,69.32 87.64,140.98 101.45,221.59 18.42,107.61 -19.57,219.76 3.83,326.39 23.57,107.6 106.94,196.13 123.5,305.04 2.88,19 3.82,38.94 13.08,55.77 13.49,24.66 41.43,37.16 67.81,46.93 118.31,43.7 244.74,64.21 370.83,62.48 -57.67,-62.94 -108.47,-96.9 -108.47,-96.9 0,0 309.88,0 524.41,-190.7 47.26,-41.99 79.45,-82.08 100.97,-119.03 -38.53,15.97 -78.29,29.16 -117.98,39.94 -114.75,31.11 -268.03,29.41 -316.91,-78.91z"/>
   <path class="fil6" d="M9351.02 6306.65c0.07,7.03 0.97,14.13 3.82,21.23 -1.62,-7.03 -2.55,-14.16 -3.82,-21.23z"/>
   <path class="fil6" d="M10631.84 5144.83c-37.75,-34.68 -94.27,-37.46 -145.46,-35.15 -283.53,12.95 -561.32,128.45 -770.43,320.33 -209.13,191.93 -347.99,458.76 -385.19,740.16l26.93 -65.11c-16.69,65.72 -18.89,134.9 -6.67,201.59 -0.43,-36.66 32.94,-71.77 64.46,-96.18 137.31,-106.27 285.51,-198.49 441.48,-274.73 93.37,-45.64 200.94,-86.15 298.82,-51.15 17.3,6.2 34.86,14.78 53.06,12.43 20.27,-2.59 36.27,-18.05 55.19,-25.66 47.05,-18.96 95.03,12.98 131.48,51.69 -14.68,-58.25 -34.18,-93.94 -34.18,-93.94 146.47,-148.81 257.1,-282.08 339.51,-401.41 -1.8,-58.72 -7.96,-117.3 -19.64,-174.91 -8.01,-39.43 -19.69,-80.75 -49.36,-107.96z"/>
   <path class="fil6" d="M7703.58 4331.38c0,-171.15 -133.42,-309.87 -297.94,-309.87 -164.56,0 -297.97,138.72 -297.97,309.87 0,171.13 133.41,309.88 297.97,309.88 164.52,0 297.94,-138.75 297.94,-309.88z"/>
   <path class="fil24" d="M7675.79 4262.52c0,-136.04 -137.75,-264.88 -246.33,-203.96 -92.7,-47.66 -246.32,67.92 -246.32,203.96 0,136.02 110.28,246.29 246.32,246.29 136.05,0 246.33,-110.27 246.33,-246.29z"/>
   <path class="fil25" d="M7518.86 4379.04c-130.56,0 -236.38,-84.5 -236.38,-188.68 0,-55.99 30.69,-106.13 79.18,-140.67 -85.11,13.45 -178.52,106.71 -178.52,212.83 0,136.02 110.28,246.29 246.32,246.29 109.12,0 201.55,-71.05 233.89,-169.35 -39.98,24.73 -90.01,39.58 -144.49,39.58z"/>
   <path class="fil25" d="M7358.74 4086.97c-54,82.98 190.37,150.97 190.37,150.97 0,0 -20.91,-184.36 -101.7,-202.08 -80.78,-17.77 -88.67,51.11 -88.67,51.11z"/>
   <path class="fil25" d="M7448.14 4078.75c50.76,77.73 -237.18,212.91 -237.18,212.91 0,0 15.51,-208.33 127.2,-253.54 109.54,-44.38 109.98,40.63 109.98,40.63z"/>
   <path class="fil0" d="M7438.19 4028.31c39.69,-89.54 -375.32,-30.3 -375.32,-30.3 0,0 130.25,134.17 264.94,110.92 134.68,-23.26 110.38,-80.62 110.38,-80.62z"/>
   <path class="fil0" d="M7428.23 4049.41c23.4,96.21 240.42,-35.15 240.42,-35.15 0,0 -148.56,-111.14 -216.87,-64.46 -68.28,46.65 -23.55,99.61 -23.55,99.61z"/>
   <path class="fil0" d="M7374.15 4042.34c-38.78,91.13 213.71,115.68 213.71,115.68 0,0 -52.6,-177.94 -135.25,-181.39 -82.63,-3.47 -78.46,65.71 -78.46,65.71z"/>
   <path class="fil6" d="M10150.77 3306.4c0,-171.12 -133.38,-309.84 -297.94,-309.84 -164.58,0 -297.95,138.72 -297.95,309.84 0,171.16 133.37,309.88 297.95,309.88 164.56,0 297.94,-138.72 297.94,-309.88z"/>
   <path class="fil24" d="M10122.97 3237.55c0,-136.01 -137.7,-264.86 -246.32,-203.94 -92.68,-47.65 -246.28,67.93 -246.28,203.94 0,136.01 110.26,246.32 246.28,246.32 136.05,0 246.32,-110.31 246.32,-246.32z"/>
   <path class="fil25" d="M9966.05 3354.09c-130.57,0 -236.37,-84.5 -236.37,-188.72 0,-55.98 30.68,-106.09 79.16,-140.66 -85.08,13.48 -178.47,106.75 -178.47,212.84 0,136.01 110.26,246.32 246.28,246.32 109.16,0 201.55,-71.05 233.89,-169.4 -39.99,24.73 -90.02,39.62 -144.49,39.62z"/>
   <path class="fil25" d="M9805.92 3061.99c-54,82.99 190.42,150.97 190.42,150.97 0,0 -20.91,-184.31 -101.74,-202.09 -80.78,-17.73 -88.68,51.12 -88.68,51.12z"/>
   <path class="fil25" d="M9895.32 3053.76c50.8,77.77 -237.16,212.92 -237.16,212.92 0,0 15.5,-208.3 127.18,-253.53 109.56,-44.38 109.98,40.61 109.98,40.61z"/>
   <path class="fil0" d="M9885.37 3003.34c39.73,-89.55 -375.3,-30.32 -375.3,-30.32 0,0 130.24,134.21 264.96,110.96 134.64,-23.29 110.34,-80.64 110.34,-80.64z"/>
   <path class="fil0" d="M9875.43 3024.43c23.43,96.21 240.44,-35.11 240.44,-35.11 0,0 -148.56,-111.14 -216.87,-64.46 -68.31,46.64 -23.57,99.57 -23.57,99.57z"/>
   <path class="fil0" d="M9821.35 3017.4c-38.79,91.1 213.7,115.64 213.7,115.64 0,0 -52.59,-177.91 -135.26,-181.36 -82.62,-3.46 -78.44,65.72 -78.44,65.72z"/>
   <path class="fil6" d="M8402.78 1296.2c0,-171.13 -133.41,-309.88 -297.94,-309.88 -164.56,0 -297.98,138.75 -297.98,309.88 0,171.17 133.42,309.87 297.98,309.87 164.53,0 297.94,-138.7 297.94,-309.87z"/>
   <path class="fil24" d="M8374.96 1227.38c0,-136.08 -137.71,-264.89 -246.29,-203.96 -92.71,-47.69 -246.32,67.88 -246.32,203.96 0,136.01 110.27,246.29 246.32,246.29 136.01,0 246.29,-110.28 246.29,-246.29z"/>
   <path class="fil25" d="M8218.04 1343.89c-130.54,0 -236.38,-84.49 -236.38,-188.71 0,-55.95 30.72,-106.09 79.2,-140.63 -85.11,13.45 -178.51,106.7 -178.51,212.8 0,136.04 110.27,246.32 246.32,246.32 109.12,0 201.51,-71.05 233.85,-169.36 -39.94,24.7 -89.97,39.58 -144.48,39.58z"/>
   <path class="fil25" d="M8057.95 1051.78c-54.01,82.99 190.37,150.98 190.37,150.98 0,0 -20.91,-184.32 -101.7,-202.09 -80.82,-17.74 -88.67,51.11 -88.67,51.11z"/>
   <path class="fil25" d="M8147.35 1043.61c50.75,77.71 -237.18,212.86 -237.18,212.86 0,0 15.51,-208.28 127.15,-253.49 109.59,-44.42 110.03,40.63 110.03,40.63z"/>
   <path class="fil0" d="M8137.4 993.17c39.68,-89.58 -375.31,-30.35 -375.31,-30.35 0,0 130.21,134.21 264.92,110.96 134.69,-23.29 110.39,-80.61 110.39,-80.61z"/>
   <path class="fil0" d="M8127.41 1014.26c23.43,96.18 240.45,-35.18 240.45,-35.18 0,0 -148.56,-111.11 -216.87,-64.42 -68.28,46.65 -23.58,99.6 -23.58,99.6z"/>
   <path class="fil0" d="M8073.33 1007.19c-38.78,91.1 213.71,115.66 213.71,115.66 0,0 -52.57,-177.91 -135.23,-181.38 -82.65,-3.45 -78.48,65.72 -78.48,65.72z"/>
   <path class="fil6" d="M10230.22 5221.26c0,-171.14 -133.38,-309.85 -297.95,-309.85 -164.56,0 -297.94,138.71 -297.94,309.85 0,171.16 133.38,309.87 297.94,309.87 164.57,0 297.95,-138.71 297.95,-309.87z"/>
   <path class="fil24" d="M10202.42 5152.4c0,-136.02 -137.7,-264.85 -246.32,-203.93 -92.68,-47.66 -246.28,67.91 -246.28,203.93 0,136.04 110.26,246.32 246.28,246.32 136.06,0 246.32,-110.28 246.32,-246.32z"/>
   <path class="fil25" d="M10045.51 5268.95c-130.58,0 -236.38,-84.5 -236.38,-188.72 0,-55.95 30.68,-106.09 79.16,-140.66 -85.11,13.48 -178.47,106.73 -178.47,212.83 0,136.04 110.26,246.32 246.28,246.32 109.16,0 201.56,-71.05 233.89,-169.39 -39.98,24.76 -90.02,39.62 -144.48,39.62z"/>
   <path class="fil25" d="M9885.41 4976.84c-54,82.98 190.38,151.01 190.38,151.01 0,0 -20.91,-184.36 -101.7,-202.1 -80.82,-17.77 -88.68,51.09 -88.68,51.09z"/>
   <path class="fil25" d="M9974.81 4968.65c50.76,77.72 -237.2,212.88 -237.2,212.88 0,0 15.5,-208.29 127.18,-253.5 109.55,-44.38 110.02,40.62 110.02,40.62z"/>
   <path class="fil0" d="M9964.83 4918.22c39.72,-89.57 -375.31,-30.35 -375.31,-30.35 0,0 130.25,134.21 264.92,110.96 134.72,-23.29 110.39,-80.61 110.39,-80.61z"/>
   <path class="fil0" d="M9954.88 4939.31c23.43,96.18 240.44,-35.18 240.44,-35.18 0,0 -148.56,-111.11 -216.87,-64.46 -68.31,46.69 -23.57,99.64 -23.57,99.64z"/>
   <path class="fil0" d="M9900.8 4932.24c-38.79,91.1 213.7,115.66 213.7,115.66 0,0 -52.59,-177.91 -135.22,-181.37 -82.66,-3.46 -78.48,65.71 -78.48,65.71z"/>
   <path class="fil26" d="M12396.04 3392.02c16.76,-49.17 1.99,-104.36 -32.94,-123.54 -34.68,-18.82 -76.35,5.12 -93.34,53.71 -17.12,48.7 -2.88,104.19 31.83,123.68 34.97,19.68 77.4,-4.32 94.45,-53.85z"/>
   <path class="fil26" d="M12067.74 3278.72c16.87,-48.06 5.09,-94.92 -26.41,-105.34 -31.19,-10.2 -70.05,19.79 -87.11,67.3 -17.08,47.66 -5.76,95.28 25.57,105.95 31.62,10.89 70.94,-19.72 87.95,-67.91z"/>
   <path class="fil26" d="M11937.75 3208.38c0,0 103.65,-27.25 179.89,11.68 0,0 -10.6,-41.24 -71.81,-51.98 -60.49,-10.49 -108.08,40.3 -108.08,40.3z"/>
   <path class="fil26" d="M12453.9 3364.33c0,0 -78.33,-98.45 -165.83,-120.8 0,0 31.33,-26.32 90.7,8.15 60.1,34.82 75.13,112.65 75.13,112.65z"/>
   <path class="fil27" d="M11985.91 3080.92l0.68 -14.89c72.32,-56.68 172.9,-50.07 214.18,-30.93l-12.04 37.52c-30.46,-20.68 -131,-33.35 -202.82,8.3z"/>
   <path class="fil27" d="M12499.18 3286.83c-31.07,-79.6 -143.95,-152.92 -177.25,-167.09l16.54 -38.61c37.14,18.38 139.22,98.84 171.81,198.16l-11.1 7.54z"/>
   <path class="fil28" d="M12086.42 3529.8l-2.38 1.47c-19.14,7.14 -45.28,-1.8 -58.29,-19.71 -7.61,-10.5 -8.37,-21.49 -4.33,-30.5 -16.69,7.93 -20.91,26.53 -8.72,43.51 12.98,18.14 39.15,27.08 58.29,19.97 7.9,-2.96 12.55,-8.44 15.43,-14.74z"/>
   <path class="fil29" d="M12128.85 3652.55l-166.37 -51.23c0,0 -35.54,131.03 34.75,152.27 94.27,28.87 131.62,-101.04 131.62,-101.04z"/>
   <path class="fil30" d="M11963.35 3657.84c1.72,-24.76 7.1,-45.02 7.1,-45.02l144.23 44.45c0,0 -8.94,30.53 -29.16,56.3l-122.17 -55.73z"/>
   <path class="fil4" d="M11146.66 4377.24c-51.02,-50.26 -80.11,-68.1 -91.13,-81.51 -11.07,-13.44 -52.31,-52.67 -45.64,-74.81 6.85,-22.67 89.19,-86.69 106.84,-62.6 17.67,24.04 24.3,112.32 53.04,195.34 18.77,54.18 -23.11,23.58 -23.11,23.58z"/>
   <path class="fil4" d="M11036.09 4264.98c-33.63,-34.39 -138.75,-127.73 -136.91,-143.66 1.87,-16.14 155.84,100.66 155.84,100.66l-18.93 43z"/>
   <path class="fil4" d="M11151.89 4321.61c5.12,-64.24 64.3,-158.94 52.08,-170.4 -12.18,-11.5 -97.87,117.26 -97.87,117.26l45.79 53.14z"/>
   <path class="fil4" d="M11056.89 4222.95c-22.6,-42.64 -99.74,-164.72 -93.32,-182.41 6.56,-17.99 124.33,139.47 124.33,139.47l-31.01 42.94z"/>
   <path class="fil4" d="M11086.1 4234.96c-3.07,-46.26 -23.94,-186.92 -10.42,-203.72 13.8,-17.2 55.91,168.6 55.91,168.6l-45.49 35.12z"/>
  </g>
 </g>
</svg>
