<?xml version="1.0" encoding="UTF-8"?>
<!DOCTYPE svg PUBLIC "-//W3C//DTD SVG 1.1//EN" "http://www.w3.org/Graphics/SVG/1.1/DTD/svg11.dtd">
<!-- Creator: CorelDRAW 2018 (64-Bit) -->
<svg xmlns="http://www.w3.org/2000/svg" xml:space="preserve" width="200mm" height="100mm" version="1.1" style="shape-rendering:geometricPrecision; text-rendering:geometricPrecision; image-rendering:optimizeQuality; fill-rule:evenodd; clip-rule:evenodd"
viewBox="0 0 20000 10000"
 xmlns:xlink="http://www.w3.org/1999/xlink">
 <defs>
  <style type="text/css">
   <![CDATA[
    .fil7 {fill:#2B85A6;fill-rule:nonzero}
    .fil2 {fill:#2F2F2F;fill-rule:nonzero}
    .fil1 {fill:#3E3E3E;fill-rule:nonzero}
    .fil8 {fill:#5C5C5C;fill-rule:nonzero}
    .fil6 {fill:#71B9D3;fill-rule:nonzero}
    .fil4 {fill:#757575;fill-rule:nonzero}
    .fil3 {fill:#7E7E7E;fill-rule:nonzero}
    .fil5 {fill:#868686;fill-rule:nonzero}
    .fil0 {fill:#C1C1C1;fill-rule:nonzero}
   ]]>
  </style>
 </defs>
 <g id="Layer_x0020_1">
  <metadata id="CorelCorpID_0Corel-Layer"/>
  <g id="_2907240040368">
   <path class="fil0" d="M7780.99 3062.01l249.07 -291.14 -36.26 -29.72 -133.22 -109.17 -23.82 -19.47 0.39 -70.22 4.54 -581.26 1.61 -277.43 0.49 -61.3 275.23 39.62 334.91 48.22 689.56 99.31 0 300.86 -79.69 179.73 -2.83 5.91 137.17 357.75 -213.3 130.99 -144.45 418.94 -281.87 0 -89.06 -73.15 -119.03 188.86c-174.45,-78.33 -407.58,-184.18 -569.44,-257.33z"/>
   <path class="fil1" d="M7837.15 2542.29l23.67 89.94 132.98 108.68c0,0 192.67,-209.35 225.85,-245.23l-135.18 -151.13 34.3 -162.7 171.94 -64.27 68.6 104.87c143.72,-158.02 262.01,-367.75 240.79,-354.15l102 -678.23 -500.94 -57.38 -357.37 489.86 -6.64 919.74z"/>
   <polygon class="fil0" points="8532.37,5156.1 8528.42,5203.37 8532.37,5156.34 "/>
   <path class="fil2" d="M8565.31 4765.44l-698.69 191.2 -195.53 -1134.89 771.87 -301.11c0,0 194.76,277.05 288.02,584.83l-165.67 659.97z"/>
   <path class="fil2" d="M7780.99 3062.01c161.86,73.15 394.99,179 569.44,257.33l-0.73 1.22 0.73 1.12 -841.17 58.57 271.73 -318.24z"/>
   <polygon class="fil3" points="8565.31,4765.44 8532.37,5156.34 8528.42,5203.37 8382.25,5863.06 7055.31,5863.06 7322.36,4976.36 7182.59,3763.17 7509.26,3380.25 8350.43,3321.68 8442.96,3520.64 7671.09,3821.75 7866.62,4956.64 "/>
   <path class="fil4" d="M5190.65 9677.89l358.45 -239.95c0,0 152.84,-825.85 169.87,-919.11 32.06,36.85 245.71,138.89 524.65,262.74 622.31,275.58 1569.82,656.62 1569.82,656.62l263.02 -3014.46 -1229.13 -2.34 165.39 1953.72 -706.2 -146.3 -893.72 -260.05 -222.15 1709.13z"/>
   <path class="fil0" d="M8336.97 6026.26c-16.16,72.66 -32.31,145.22 -48.61,217.84 14.94,-66.96 29.87,-133.96 44.8,-200.92l3.81 -16.92z"/>
   <path class="fil0" d="M9316.19 8098.8c-3.6,-463.35 -9.26,-846.38 -20.49,-828.48 12.94,-21.08 17.91,309.15 20.49,828.48z"/>
   <path class="fil3" d="M8480.82 5375.31l-143.85 868.79 1798.93 542.17 -91.65 1477.58 4.19 -69.73 -731.51 0c0,30.11 0,60.71 0,91.06 -0.14,-64.66 -0.39,-126.58 -0.74,-186.38 -2.58,-519.33 -7.55,-647.14 -20.49,-626.05 -9.12,15.28 -2116.67,-331.35 -2116.67,-331.35l-345.27 -759.25 401.29 -1116.26 1245.77 109.42z"/>
   <path class="fil2" d="M10048.44 8194.12l-4.19 69.73 -57.14 823.51 521.33 229.32 160.36 340.72 -1351.38 -106.97c0,0 1.36,-546.81 0,-1115 -0.49,-80.32 -0.25,-70.7 -0.49,-150.25 0,-30.35 0,-60.95 0,-91.06l731.51 0z"/>
   <path class="fil2" d="M5190.65 9677.89l557.94 -285.33c0,0 199.1,-641.58 216.09,-734.84 32.1,36.89 0,0 278.94,123.85l62.9 -552.76 -893.72 -260.05 -222.15 1709.13z"/>
   <polygon class="fil2" points="11509.73,2682.2 12288.83,2682.2 12288.83,2545.86 11509.73,2545.86 "/>
   <path class="fil0" d="M8066.08 4403.25l1493.24 210.47 1288.72 -903.24 -32.94 -320.58 -1352.6 721.86c0,0 -886.84,-237.46 -1158.96,-303.83l-237.46 595.32z"/>
   <polygon class="fil5" points="11639.24,2470.75 11390.42,4428.92 11055.01,4420.04 11273,2456.2 "/>
   <polygon class="fil6" points="8312.91,1957.36 8312.91,2470.4 8349.7,3061.52 8845.57,3442.56 9075.13,3263.56 9457.43,1656.71 9153.11,1164.27 8565.55,1017.37 "/>
   <polygon class="fil7" points="9336.54,2162.97 8884.8,1972.01 8766.61,2388.12 9232.9,2545.89 "/>
   <polygon class="fil5" points="8312.67,1957.6 7837.15,1742.45 7850.47,1850.01 8312.67,2079.61 "/>
   <polygon class="fil7" points="8845.57,3442.56 8459.6,3146 8349.7,3061.52 8312.91,2470.4 8312.91,1957.36 8565.55,1017.37 9153.11,1164.27 8702.1,2080.09 8651.92,2854.41 "/>
   <polygon class="fil3" points="9950.36,3743.91 10165.48,4420.04 10815.1,3733.56 11068.47,3807.93 11537.94,3807.93 11639.24,3076.8 11142.22,3076.8 10815.1,3389.9 "/>
   <polygon class="fil3" points="12277.75,2413.16 11976.36,1286.9 11761.1,1387.32 "/>
   <polygon class="fil4" points="12147.21,2399.1 11485.28,1910.96 11374.89,2032.96 "/>
   <polygon class="fil3" points="12096.51,2854.41 11701.91,3520.64 11899.26,3586.03 "/>
   <polygon class="fil4" points="12204.84,2788.29 12147.21,4084 11974.65,4037.77 "/>
   <polygon class="fil5" points="12288.83,9686.63 12946.57,9686.63 12946.57,38.15 12288.83,38.15 "/>
   <polygon class="fil8" points="12946.57,9686.63 12288.83,9686.63 12935.24,38.15 12946.57,38.15 "/>
  </g>
 </g>
</svg>
