<?xml version="1.0" encoding="UTF-8" standalone="no"?> <svg xmlns="http://www.w3.org/2000/svg" xmlns:xlink="http://www.w3.org/1999/xlink" xmlns:serif="http://www.serif.com/" width="100%" height="100%" viewBox="0 0 85 40" version="1.1" xml:space="preserve" style="fill-rule:evenodd;clip-rule:evenodd;stroke-linejoin:round;stroke-miterlimit:1.41421;"><path d="M1.336,31.626c0,0.109 -0.003,0.236 -0.013,0.339l0.135,0l0.012,-0.26l0.007,0c0.119,0.195 0.294,0.292 0.538,0.292c0.328,0 0.669,-0.256 0.669,-0.771c0,-0.435 -0.263,-0.742 -0.641,-0.742c-0.266,0 -0.451,0.117 -0.55,0.304l-0.007,0l0,-0.968l-0.15,0l0,1.806Zm0.15,-0.509c0,-0.052 0.009,-0.091 0.019,-0.126c0.072,-0.242 0.282,-0.387 0.5,-0.387c0.341,0 0.528,0.293 0.528,0.624c0,0.377 -0.196,0.649 -0.54,0.649c-0.235,0 -0.428,-0.145 -0.494,-0.365c-0.01,-0.037 -0.013,-0.073 -0.013,-0.106l0,-0.289Zm1.884,-0.601l0.556,1.342c0.013,0.031 0.02,0.052 0.02,0.063c0,0.016 -0.007,0.034 -0.02,0.065c-0.075,0.171 -0.175,0.291 -0.25,0.364c-0.09,0.082 -0.187,0.133 -0.262,0.16l0.047,0.121c0.034,-0.013 0.143,-0.055 0.262,-0.151c0.197,-0.166 0.326,-0.435 0.507,-0.884l0.45,-1.08l-0.159,0l-0.367,0.938c-0.046,0.118 -0.083,0.233 -0.115,0.32l-0.006,0c-0.028,-0.09 -0.069,-0.207 -0.109,-0.31l-0.395,-0.948l-0.159,0Z" style="fill:#1b1a1b;fill-rule:nonzero;stroke:#000;stroke-width:0.09px;"></path><path d="M31.852,38.983l0.345,0l0,-1.999c0.173,0.049 0.367,0.056 0.59,0.056c0.598,0 1.115,-0.18 1.424,-0.521c0.224,-0.235 0.339,-0.534 0.339,-0.936c0,-0.388 -0.137,-0.701 -0.374,-0.916c-0.267,-0.249 -0.705,-0.395 -1.281,-0.395c-0.41,0 -0.762,0.041 -1.043,0.091l0,4.62Zm0.345,-4.378c0.13,-0.028 0.367,-0.055 0.684,-0.055c0.769,0 1.323,0.332 1.323,1.068c0,0.742 -0.517,1.145 -1.388,1.145c-0.238,0 -0.454,-0.014 -0.619,-0.069l0,-2.089Zm4.382,4.454c0.763,0 1.648,-0.534 1.648,-1.769c0,-1.02 -0.649,-1.713 -1.605,-1.713c-0.856,0 -1.633,0.631 -1.633,1.769c0,1.04 0.69,1.713 1.583,1.713l0.007,0Zm0.007,-0.278c-0.705,0 -1.251,-0.624 -1.251,-1.456c0,-0.716 0.395,-1.471 1.279,-1.471c0.915,0 1.267,0.84 1.267,1.45c0,0.853 -0.569,1.477 -1.287,1.477l-0.008,0Zm2.511,0.202l0.345,0l0,-1.839c0,-0.111 0.007,-0.222 0.029,-0.319c0.094,-0.534 0.431,-0.93 0.907,-0.93c0.065,0 0.114,0 0.165,0.007l0,-0.312c-0.043,-0.007 -0.093,-0.013 -0.144,-0.013c-0.468,0 -0.827,0.325 -0.979,0.749l-0.02,0l-0.015,-0.673l-0.317,0c0.022,0.325 0.029,0.666 0.029,0.999l0,2.331Zm2.447,-3.941l0,0.611l-0.583,0l0,0.27l0.583,0l0,2.102c0,0.341 0.057,0.625 0.215,0.798c0.13,0.153 0.339,0.229 0.59,0.229c0.209,0 0.367,-0.034 0.482,-0.076l-0.043,-0.25c-0.086,0.028 -0.216,0.048 -0.395,0.048c-0.367,0 -0.504,-0.263 -0.504,-0.686l0,-2.165l0.986,0l0,-0.27l-0.986,0l0,-0.735l-0.345,0.124Zm4.245,1.846c0,-0.59 -0.195,-1.311 -1.195,-1.311c-0.31,0 -0.698,0.083 -1.014,0.284l0.107,0.243c0.252,-0.174 0.568,-0.25 0.87,-0.25c0.821,-0.007 0.886,0.652 0.886,0.978l0,0.09c-1.41,-0.014 -2.108,0.451 -2.108,1.221c0,0.444 0.317,0.916 1.015,0.916c0.554,0 0.935,-0.299 1.107,-0.555l0.015,0l0.05,0.479l0.316,0c-0.042,-0.257 -0.049,-0.527 -0.049,-0.791l0,-1.304Zm-0.346,1.026c0,0.056 -0.008,0.132 -0.036,0.201c-0.115,0.327 -0.446,0.666 -1.022,0.666c-0.359,0 -0.691,-0.214 -0.691,-0.693c0,-0.798 0.993,-0.91 1.749,-0.888l0,0.714Zm1.46,1.069l0.346,0l0,-4.933l-0.346,0l0,4.933Zm1.54,0.076c0.18,0 0.295,-0.145 0.295,-0.312c0,-0.18 -0.115,-0.312 -0.288,-0.312c-0.172,0 -0.295,0.132 -0.295,0.312c-0.007,0.167 0.115,0.312 0.281,0.312l0.007,0Zm1.151,-0.076l0.346,0l0,-1.839c0,-0.111 0.007,-0.222 0.028,-0.319c0.093,-0.534 0.432,-0.93 0.907,-0.93c0.064,0 0.115,0 0.165,0.007l0,-0.312c-0.042,-0.007 -0.093,-0.013 -0.143,-0.013c-0.468,0 -0.828,0.325 -0.979,0.749l-0.022,0l-0.014,-0.673l-0.316,0c0.021,0.325 0.028,0.666 0.028,0.999l0,2.331Zm3.353,0.076c0.763,0 1.648,-0.534 1.648,-1.769c0,-1.02 -0.648,-1.713 -1.605,-1.713c-0.856,0 -1.633,0.631 -1.633,1.769c0,1.04 0.691,1.713 1.583,1.713l0.007,0Zm0.008,-0.278c-0.706,0 -1.252,-0.624 -1.252,-1.456c0,-0.716 0.395,-1.471 1.28,-1.471c0.914,0 1.266,0.84 1.266,1.45c0,0.853 -0.568,1.477 -1.287,1.477l-0.007,0Z" style="fill:#1b1a1b;fill-rule:nonzero;"></path><path d="M11.022,39.023l1.216,0l-0.296,-5.345l-1.644,0l-0.584,1.776c-0.189,0.595 -0.379,1.301 -0.527,1.919l-0.033,0c-0.122,-0.627 -0.287,-1.293 -0.468,-1.911l-0.543,-1.784l-1.668,0l-0.355,5.345l1.16,0l0.107,-2.031c0.032,-0.666 0.065,-1.49 0.091,-2.211l0.015,0c0.14,0.704 0.321,1.458 0.502,2.085l0.592,2.069l0.979,0l0.674,-2.086c0.214,-0.626 0.444,-1.387 0.625,-2.068l0.016,0c0,0.784 0.025,1.553 0.05,2.195l0.091,2.047Zm5.927,-3.878l-1.249,0l0,2.307c0,0.103 -0.017,0.19 -0.05,0.262c-0.074,0.19 -0.279,0.42 -0.624,0.42c-0.444,0 -0.634,-0.341 -0.634,-0.904l0,-2.085l-1.249,0l0,2.276c0,1.196 0.591,1.688 1.414,1.688c0.723,0 1.102,-0.397 1.258,-0.634l0.025,0l0.057,0.548l1.085,0c-0.016,-0.326 -0.033,-0.738 -0.033,-1.246l0,-2.632Zm1.003,3.878l1.251,0l0,-2.237c0,-0.111 0.008,-0.222 0.041,-0.302c0.09,-0.221 0.295,-0.452 0.641,-0.452c0.452,0 0.633,0.342 0.633,0.841l0,2.15l1.251,0l0,-2.293c0,-1.142 -0.617,-1.672 -1.439,-1.672c-0.675,0 -1.078,0.372 -1.242,0.626l-0.025,0l-0.058,-0.539l-1.085,0c0.017,0.349 0.032,0.753 0.032,1.236l0,2.642Zm6.069,-5.638l-1.25,0l0,5.638l1.25,0l0,-1.215l0.313,-0.38l0.977,1.595l1.539,0l-1.645,-2.308l1.438,-1.57l-1.504,0l-0.813,1.165c-0.1,0.143 -0.198,0.302 -0.288,0.468l-0.017,0l0,-3.393Zm6.594,3.345c0,-0.911 -0.419,-1.672 -1.759,-1.672c-0.732,0 -1.282,0.198 -1.563,0.349l0.231,0.768c0.263,-0.15 0.699,-0.284 1.109,-0.284c0.617,0 0.733,0.292 0.733,0.498l0,0.048c-1.423,0 -2.361,0.476 -2.361,1.483c0,0.618 0.486,1.189 1.299,1.189c0.478,0 0.889,-0.166 1.151,-0.475l0.026,0l0.074,0.389l1.127,0c-0.05,-0.215 -0.067,-0.572 -0.067,-0.937l0,-1.356Zm-1.208,0.88c0,0.072 -0.009,0.143 -0.024,0.207c-0.083,0.245 -0.346,0.443 -0.65,0.443c-0.28,0 -0.494,-0.15 -0.494,-0.459c0,-0.46 0.51,-0.611 1.168,-0.611l0,0.42Z" style="fill:#1b1a1b;fill-rule:nonzero;"></path><path d="M64.423,27.313l0,12.288l-7.467,0l0,-13.496c0.282,-0.29 0.485,-0.565 0.73,-0.973c0.291,-0.483 0.639,-1.15 0.94,-1.94c0.303,-0.791 0.555,-1.703 0.7,-2.566c0.143,-0.862 0.178,-1.674 0.161,-2.504c-0.018,-0.83 -0.087,-1.678 -0.194,-2.443c-0.108,-0.764 -0.254,-1.444 -0.422,-1.991c-0.167,-0.548 -0.358,-0.964 -0.59,-1.378c-0.232,-0.415 -0.506,-0.827 -0.933,-1.301c-0.121,-0.135 -0.253,-0.273 -0.392,-0.411l0,-5.947l14.136,0c2.719,0 5.114,0.484 7.18,1.443c2.064,0.959 3.653,2.326 4.765,4.096c1.114,1.77 1.666,3.785 1.666,6.046c0,3.424 -1.215,6.128 -3.645,8.111c-2.429,1.974 -5.794,2.966 -10.093,2.966l-6.542,0Zm0,-5.85l6.669,0c1.971,0 3.475,-0.45 4.521,-1.344c1.035,-0.893 1.554,-2.171 1.554,-3.834c0,-1.712 -0.527,-3.097 -1.571,-4.153c-1.046,-1.058 -2.491,-1.598 -4.334,-1.631l-6.839,0l0,10.962Z" style="fill:#d29420;fill-rule:nonzero;"></path><path d="M6.702,20.748l0,-18.019c0.925,-0.5 1.814,-0.75 2.775,-0.75c1.961,0 3.219,1.248 3.219,3.033l0,16.878c0,4.103 -2.664,6.494 -7.14,6.494c-1.963,0 -3.627,-0.321 -5.181,-0.963l0.74,-4.282c0.924,0.463 2.072,0.678 3.033,0.678c1.666,0 2.554,-1.178 2.554,-3.069Zm44.737,-11.134c-2.183,0 -4.329,0.678 -5.92,2.606l0,-9.456c0,-1.499 -0.963,-2.569 -2.665,-2.569c-0.998,0 -2.071,0.321 -3.071,0.749l0,27.083c2.664,0.214 6.587,0.357 8.511,0.357c6.476,0 10.324,-3.675 10.324,-9.955c0,-5.532 -2.849,-8.815 -7.179,-8.815Zm-3.7,14.666c-0.629,0 -1.369,0 -2.22,-0.035l0,-5.21c0,-3.782 1.591,-5.066 3.811,-5.066c2.258,0 3.478,1.676 3.478,4.46c0,3.71 -1.923,5.851 -5.069,5.851Z" style="fill:#71b9d3;fill-rule:nonzero;"></path><path d="M60.712,5.92c0.21,0 0.417,0.053 0.618,0.157c0.201,0.104 0.357,0.254 0.469,0.449c0.113,0.194 0.169,0.397 0.169,0.607c0,0.209 -0.055,0.41 -0.167,0.603c-0.109,0.194 -0.264,0.342 -0.464,0.449c-0.2,0.108 -0.407,0.16 -0.625,0.16c-0.218,0 -0.426,-0.052 -0.626,-0.16c-0.199,-0.107 -0.355,-0.255 -0.465,-0.449c-0.112,-0.193 -0.168,-0.394 -0.168,-0.603c0,-0.21 0.057,-0.413 0.169,-0.607c0.114,-0.195 0.271,-0.345 0.471,-0.449c0.202,-0.104 0.408,-0.157 0.619,-0.157Zm0,0.202c-0.177,0 -0.35,0.043 -0.516,0.131c-0.167,0.087 -0.299,0.212 -0.393,0.373c-0.094,0.163 -0.141,0.332 -0.141,0.507c0,0.175 0.046,0.342 0.14,0.503c0.092,0.16 0.222,0.285 0.388,0.374c0.166,0.089 0.34,0.135 0.522,0.135c0.181,0 0.355,-0.046 0.521,-0.135c0.166,-0.089 0.296,-0.214 0.389,-0.374c0.092,-0.161 0.138,-0.328 0.138,-0.503c0,-0.175 -0.047,-0.344 -0.141,-0.507c-0.095,-0.161 -0.224,-0.286 -0.393,-0.373c-0.168,-0.088 -0.339,-0.131 -0.514,-0.131Zm-0.552,1.68l0,-1.302l0.465,0c0.159,0 0.274,0.012 0.345,0.036c0.071,0.024 0.128,0.066 0.171,0.126c0.041,0.059 0.063,0.124 0.063,0.19c0,0.095 -0.035,0.18 -0.107,0.249c-0.07,0.071 -0.164,0.111 -0.282,0.119c0.049,0.019 0.088,0.042 0.116,0.069c0.054,0.052 0.121,0.137 0.2,0.259l0.165,0.254l-0.266,0l-0.12,-0.205c-0.095,-0.162 -0.171,-0.262 -0.229,-0.303c-0.039,-0.029 -0.098,-0.045 -0.174,-0.045l-0.129,0l0,0.553l-0.218,0Zm0.218,-0.733l0.265,0c0.126,0 0.214,-0.019 0.26,-0.055c0.045,-0.035 0.069,-0.084 0.069,-0.143c0,-0.039 -0.012,-0.074 -0.034,-0.103c-0.022,-0.03 -0.052,-0.054 -0.092,-0.068c-0.04,-0.015 -0.113,-0.023 -0.22,-0.023l-0.248,0l0,0.392Z" style="fill:#fefefe;fill-rule:nonzero;"></path><path d="M34.003,24.368l-1.723,1.354l-0.742,-0.878l1.723,-1.354l0.742,0.878Z" style="fill:#71b9d3;fill-rule:nonzero;"></path><path d="M34.562,24.599l-2.162,1.698l-0.412,-0.487l2.163,-1.698l0.411,0.487Z" style="fill:#71b9d3;fill-rule:nonzero;"></path><path d="M40.67,31.322c0.414,0.489 0.704,1.143 0.211,1.529l-1.43,0.926c-0.493,0.388 -1.174,-0.012 -1.587,-0.501l-5.598,-6.628c-0.412,-0.49 0.078,-0.696 0.572,-1.082l0.893,-0.703c0.493,-0.386 0.802,-0.809 1.215,-0.319l5.724,6.778Z" style="fill:#71b9d3;fill-rule:nonzero;"></path><path d="M27.937,6.618c5.568,0.854 9.365,5.899 8.479,11.268c-0.885,5.37 -6.117,9.031 -11.685,8.178c-5.568,-0.854 -9.365,-5.898 -8.48,-11.269c0.885,-5.369 6.116,-9.03 11.686,-8.177Zm-0.418,2.912c3.939,0.603 6.624,4.172 5.998,7.971c-0.625,3.798 -4.326,6.388 -8.266,5.785c-3.939,-0.604 -6.625,-4.173 -5.999,-7.971c0.626,-3.799 4.327,-6.389 8.267,-5.785Z" style="fill:#71b9d3;"></path><path id="Couple_x0020_Man_x0020_Woman-595b40b85ba036ed117dcdf0.svg" d="M23.006,12.757c-1.652,0 -2.681,0.969 -2.681,2.549l0,0.036c0,0.183 0.046,0.426 0.105,0.689c0.047,0.207 0.106,0.387 0.157,0.55c-0.044,0.04 -0.084,0.054 -0.127,0.116c-0.089,0.129 -0.155,0.318 -0.128,0.535c0.069,0.567 0.417,0.777 0.578,0.863c0.055,0.288 0.196,0.625 0.436,0.977c0.248,0.361 0.596,0.697 1.014,0.906c0.005,0.002 0.011,0.004 0.016,0.007c0.162,0.186 0.408,0.318 0.683,0.318c0.237,0 0.441,-0.109 0.6,-0.253c0.472,-0.197 0.846,-0.579 1.119,-0.97c0.245,-0.351 0.395,-0.689 0.451,-0.978c0.063,-0.032 0.101,-0.035 0.195,-0.123c0.157,-0.145 0.317,-0.388 0.361,-0.739c0.026,-0.212 -0.032,-0.398 -0.113,-0.529c-0.038,-0.062 -0.078,-0.082 -0.12,-0.123c0.115,-0.371 0.233,-0.909 0.233,-1.507c0,-0.295 -0.069,-0.658 -0.278,-0.978c-0.056,-0.085 -0.13,-0.161 -0.21,-0.231c-0.162,-0.199 -0.397,-0.333 -0.736,-0.355c-0.072,-0.101 -0.199,-0.274 -0.414,-0.428c-0.016,-0.011 -0.035,-0.023 -0.052,-0.036c-0.009,-0.006 -0.021,-0.008 -0.03,-0.014c-0.208,-0.142 -0.495,-0.257 -0.886,-0.275c-0.058,-0.005 -0.111,-0.007 -0.173,-0.007Zm5.4,0.064c-1.129,0 -1.956,0.491 -2.47,1.073c0.221,0.353 0.33,0.777 0.33,1.187c0,0.552 -0.095,1.054 -0.181,1.391c0.149,0.241 0.216,0.528 0.181,0.818c-0.071,0.574 -0.372,0.918 -0.616,1.108c-0.077,0.233 -0.205,0.505 -0.376,0.775c0.478,0.142 1.328,0.367 1.923,0.37c0.369,0.43 0.826,0.694 1.299,0.694c0.475,0 0.929,-0.269 1.299,-0.702c0.011,0.002 0.02,0.008 0.031,0.008c1.426,0 2.298,-0.229 2.336,-0.239c0.084,-0.023 0.153,-0.091 0.172,-0.174c0.02,-0.083 -0.009,-0.169 -0.075,-0.225c-0.524,-0.45 -0.418,-1.007 -0.285,-1.716c0.064,-0.343 0.127,-0.701 0.127,-1.079c0,-1.573 -0.761,-2.53 -2.042,-2.586c-0.189,-0.218 -0.713,-0.703 -1.653,-0.703Zm-4.198,1.971c0.16,0.247 0.413,0.716 0.413,1.216c0.003,0.257 0.105,0.67 0.443,0.739c0.02,0.042 0.056,0.079 0.098,0.102c0.014,0.007 0.062,0.045 0.097,0.101c0.035,0.056 0.066,0.124 0.052,0.232c-0.029,0.244 -0.135,0.38 -0.224,0.463c-0.09,0.083 -0.151,0.102 -0.151,0.102c-0.087,0.031 -0.149,0.107 -0.158,0.196c-0.017,0.157 -0.159,0.534 -0.398,0.875c-0.238,0.342 -0.573,0.662 -0.915,0.805c-0.035,0.014 -0.067,0.036 -0.091,0.064c-0.078,0.093 -0.185,0.152 -0.315,0.152c-0.131,0 -0.245,-0.059 -0.323,-0.152c-0.024,-0.028 -0.056,-0.05 -0.091,-0.064c-0.339,-0.143 -0.659,-0.464 -0.893,-0.805c-0.234,-0.34 -0.381,-0.716 -0.399,-0.875c-0.008,-0.089 -0.07,-0.165 -0.158,-0.196c0,0 -0.33,-0.081 -0.389,-0.565c-0.014,-0.103 0.013,-0.169 0.052,-0.225c0.039,-0.055 0.096,-0.094 0.12,-0.108c0.07,-0.043 0.113,-0.117 0.113,-0.197c0,-0.002 0,-0.004 0,-0.007c0.129,-0.175 0.188,-0.459 0.225,-0.637c0.104,-0.497 0.671,-0.637 1.487,-0.637c0.769,0 1.201,-0.346 1.405,-0.579Zm5.25,0.348c0.249,0.257 0.721,1.045 0.721,1.919c0,1.505 -0.92,2.716 -1.683,2.716c-0.762,0 -1.683,-1.211 -1.683,-2.716c0,-0.566 0.338,-0.9 0.978,-1.037c0.144,-0.03 0.297,-0.066 0.435,-0.107c0.631,-0.192 1.026,-0.541 1.232,-0.775Zm-7.45,1.621c-0.134,0 -0.241,0.104 -0.241,0.232c0,0.129 0.107,0.232 0.241,0.232c0.132,0 0.239,-0.103 0.239,-0.232c0,-0.128 -0.107,-0.232 -0.239,-0.232Zm2.162,0c-0.132,0 -0.24,0.104 -0.24,0.232c0,0.129 0.108,0.232 0.24,0.232c0.133,0 0.241,-0.103 0.241,-0.232c0,-0.128 -0.108,-0.232 -0.241,-0.232Zm3.365,0.232c-0.133,0 -0.241,0.104 -0.241,0.232c0,0.129 0.108,0.232 0.241,0.232c0.133,0 0.24,-0.103 0.24,-0.232c0,-0.128 -0.107,-0.232 -0.24,-0.232Zm1.923,0c-0.134,0 -0.24,0.104 -0.24,0.232c0,0.129 0.106,0.232 0.24,0.232c0.132,0 0.24,-0.103 0.24,-0.232c0,-0.128 -0.108,-0.232 -0.24,-0.232Z" style="fill:#d29420;"></path><path d="M22.739,18.962c0.508,0.118 1.147,-0.133 1.242,-0.536c0.039,-0.166 -0.25,-0.222 -0.335,-0.069c-0.14,0.254 -0.502,0.456 -0.879,0.327c-0.332,-0.114 -0.39,-0.37 -0.446,-0.607c-0.012,-0.052 -0.106,-0.049 -0.14,-0.013c-0.308,0.329 0.111,0.795 0.558,0.898Z" style="fill:#d29420;fill-rule:nonzero;"></path><path d="M28.846,18.911c-0.548,0.116 -1.235,-0.131 -1.337,-0.53c-0.041,-0.164 0.27,-0.219 0.36,-0.068c0.151,0.251 0.541,0.45 0.947,0.323c0.357,-0.113 0.42,-0.366 0.479,-0.6c0.014,-0.051 0.114,-0.049 0.151,-0.013c0.332,0.325 -0.119,0.786 -0.6,0.888Z" style="fill:#d29420;fill-rule:nonzero;"></path></svg> 