<?xml version="1.0" encoding="UTF-8"?>
<!DOCTYPE svg PUBLIC "-//W3C//DTD SVG 1.1//EN" "http://www.w3.org/Graphics/SVG/1.1/DTD/svg11.dtd">
<!-- Creator: CorelDRAW 2018 (64-Bit) -->
<svg xmlns="http://www.w3.org/2000/svg" xml:space="preserve" width="200mm" height="100mm" version="1.1" style="shape-rendering:geometricPrecision; text-rendering:geometricPrecision; image-rendering:optimizeQuality; fill-rule:evenodd; clip-rule:evenodd"
viewBox="0 0 20000 10000"
 xmlns:xlink="http://www.w3.org/1999/xlink">
 <defs>
  <style type="text/css">
   <![CDATA[
    .fil0 {fill:#E5E6E6;fill-rule:nonzero}
    .fil8 {fill:#E3E3E3;fill-rule:nonzero}
    .fil1 {fill:#C4C5C5;fill-rule:nonzero}
    .fil3 {fill:#B9B9BA;fill-rule:nonzero}
    .fil11 {fill:#B9B9B8;fill-rule:nonzero}
    .fil9 {fill:#AFAFAF;fill-rule:nonzero}
    .fil5 {fill:#939393;fill-rule:nonzero}
    .fil6 {fill:#646464;fill-rule:nonzero}
    .fil4 {fill:#5C5C5C;fill-rule:nonzero}
    .fil10 {fill:#535454;fill-rule:nonzero}
    .fil2 {fill:#3F3F3F;fill-rule:nonzero}
    .fil7 {fill:#71B9D3;fill-rule:nonzero}
   ]]>
  </style>
 </defs>
 <g id="Layer_x0020_1">
  <metadata id="CorelCorpID_0Corel-Layer"/>
  <g id="_2907238191920">
   <path class="fil0" d="M14609.28 9765.57c0,88.61 384.85,160.38 859.48,160.38 474.73,0 859.55,-71.77 859.55,-160.38 0,-88.71 -384.82,-160.49 -859.55,-160.49 -474.63,0 -859.48,71.78 -859.48,160.49z"/>
   <path class="fil0" d="M3746.03 9760.33c0,91.53 480.09,165.62 1072.19,165.62 592.1,0 1072.13,-74.09 1072.13,-165.62 0,-91.42 -480.03,-165.55 -1072.13,-165.55 -592.1,0 -1072.19,74.13 -1072.19,165.55z"/>
   <path class="fil1" d="M15187.26 9085.79c-342.41,-192.06 -1099.7,-774.45 -1099.7,-774.45l-528.17 538.91c0,0 1303.59,399.44 1406.08,510.84 102.53,111.54 132.68,399.81 318.45,399.24 185.77,-0.49 610.69,-1.89 787.34,-0.96 176.53,0.96 -541.59,-481.52 -884,-673.58z"/>
   <path class="fil2" d="M5622.73 8294.83c0,0 121.71,-1022.18 163.43,-1409.69 20.71,-192.07 -66.74,-477.68 -66.74,-477.68l241.51 241.64 2576.53 38.71 -436.66 -1212.27c0,0 -1365.52,155.48 -2364.68,276.93 -148.09,17.99 -436.48,177.58 -509.91,281.4 -318.78,450.87 -119,2260.96 -119,2260.96l515.52 0z"/>
   <path class="fil3" d="M4186.95 9752.15c-342.87,20.54 -213.1,-126.49 35.33,-103.13 419.19,-208.53 921.18,-287.33 936.03,-449.93 18.46,-202.61 -51.1,-904.26 -51.1,-904.26l515.52 0c0,0 -116.78,877.81 -105.21,959.66 11.46,81.72 15.67,128.71 44.07,218.61 39.76,125.66 37.64,264.67 -216.85,279.05 -368.46,20.44 -1092.44,-4.11 -1157.79,0z"/>
   <path class="fil4" d="M9963.85 663.9c59.75,129.5 -117.34,1447.44 -403.05,1748.82 -282.19,297.41 -268.18,1383.42 407.03,1430.28 334.12,23.16 380.51,-389.17 677.92,-523.7 341.02,-154.09 -74.23,-461.87 207.74,-832.91 281.83,-370.84 -274.14,-755.07 -166.58,-1040.22 213.7,-566.25 -244.92,-904.81 -392.21,-1093.36 -211.49,-270.73 -403.19,-153.03 -487.95,-113.96 -84.73,39.03 59.38,213.34 157.1,425.05z"/>
   <path class="fil5" d="M9692.19 663.9c97.72,211.91 160.85,391.02 245.62,351.85 84.86,-39.03 217.54,-140.4 61.47,-493.31 -138.98,-314.24 -226.66,-320.77 -311.43,-281.6 -84.73,39.03 -93.38,211.35 4.34,423.06z"/>
   <path class="fil2" d="M13559.39 8850.25c-326.61,-204.36 -1187.48,-812.36 -1187.48,-812.36 0,0 -454.15,-148.36 -815.15,-250.85 -929.13,-263.88 -2190.74,-771.57 -2499.11,-1080.64 -266.43,-256.02 1216.93,-981.63 1216.93,-981.63 0,0 1681.75,1306.37 2285.42,1685.96 320.57,158.03 1339.24,758.08 1527.56,900.61 13.32,160.15 -338.66,511.07 -528.17,538.91z"/>
   <path class="fil2" d="M7557.45 5851.62c-1.75,-179.21 192.53,-452.89 192.53,-452.89l1528.39 -940.93c0,0 680.35,790.95 818.06,940.93l178.15 326.04 -1216.93 981.63 -520.19 -18.59c0,0 -974.74,-268.88 -980.01,-836.19z"/>
   <path class="fil4" d="M9006.32 2302.14c-578.42,-1.42 -726.41,-592.92 -745.36,-911.24 -18.92,-318.22 -166.68,-607.31 16.73,-930.06 144.94,-255.1 928.08,-391.16 1311.38,-249.96 278.72,102.66 388,650.92 371.17,971.22 -27.93,529.21 -575.5,1121.11 -953.92,1120.04z"/>
   <path class="fil6" d="M7749.98 5398.73c0,0 246.67,-752.71 277.89,-940.93 31.21,-188.46 -54.48,-555.06 9.01,-813.06 63.59,-257.88 61.47,-895.67 258.21,-971.56 76.58,-29.59 211.61,-47.45 211.61,-47.45l432.28 301.02 465.05 -313.88c0,0 101.1,-15.44 201.64,16.37 67.7,21.38 196.64,674.85 261.65,967.35 64.99,292.6 -143.35,861.21 -143.35,861.21l372.46 940.93 -2346.45 0z"/>
   <path class="fil7" d="M7752.94 5412.62c0,0 246.67,-752.71 277.89,-940.93 31.21,-188.46 -54.48,-555.05 9.01,-813.06 63.59,-257.88 61.47,-895.67 258.21,-971.56 76.58,-29.59 211.61,-47.45 211.61,-47.45l432.28 301.02 465.05 -313.87c0,0 101.1,-15.45 201.64,16.36 67.7,21.38 196.64,674.85 261.65,967.35 64.99,292.6 -143.35,861.21 -143.35,861.21l372.46 940.93 -2346.45 0z"/>
   <path class="fil1" d="M8506.7 2625.73c-44.07,221.39 -177.58,631.96 409.38,631.96 634.65,0 552,-383.1 487.95,-644.82 -52.62,-10.87 -248.3,-53.68 -198.03,-19.78 0,0 -123.57,-205.72 -13.45,-479.4 47.12,-73.53 -629.15,-133.84 -562.51,31.81 66.61,165.53 54.21,448.78 54.21,448.78 0,0 -132.55,25.12 -177.55,31.45z"/>
   <path class="fil8" d="M8684.39 2486.39l-8.88 -102.99c1.06,0.1 2.08,0.1 3.14,0.23 3.15,36.91 4.91,72.11 5.74,102.76l0 0z"/>
   <path class="fil9" d="M8684.39 2486.39c-0.83,-30.65 -2.59,-65.85 -5.74,-102.76 2.12,0.1 4.11,0.1 6.2,0.1 0.13,0 0.23,0 0.36,0 97.49,-0.33 252.51,-52.36 402.59,-144.94 -44.87,92.68 -151.27,208.53 -403.41,247.6z"/>
   <path class="fil1" d="M9491.48 706.78l25.58 935.34c-32.47,442.48 -597.93,740.68 -831.85,741.61 -166.81,0.69 -405.66,-409.84 -418.06,-665.27 -11.79,-247.13 -29.69,-866.6 95.27,-968.53l1129.06 -43.15z"/>
   <path class="fil1" d="M9384.74 1477.06l122.88 195.57c0,0 36.35,56.47 124.36,8.99 88.05,-47.32 150.91,-343.8 -40.79,-352.09 -131.85,-5.86 -206.45,147.53 -206.45,147.53z"/>
   <path class="fil10" d="M9509.01 1347.16l-17.53 -640.38c0,0 130.79,141.23 119.23,286.41 -5.27,66.87 -45.47,211.38 -87.22,347.67 -4.9,1.86 -9.81,3.98 -14.48,6.3zm-1261.71 -213.11l28.4 -111.64c-3.14,27.94 -5.73,57.07 -7.95,86.99 -6.66,7.82 -13.45,16.14 -20.45,24.65zm90.37 -354.43l18.56 -72.84 1135.25 0 -1129.06 43.15c-8.98,7.35 -17.29,17.29 -24.75,29.69z"/>
   <path class="fil9" d="M9423.78 1648.68c0,0 -70.38,-160.29 -104.52,-419.22 -23.36,-177.45 -94.34,-210.56 -197.89,-210.56 -30.75,0 -64.32,2.95 -100.31,5.73 -36.02,2.92 -74.46,5.87 -115.02,5.87 -51.46,0 -106.27,-4.67 -163.66,-19.88 -98.92,-26.08 -172.09,-39.17 -230.44,-39.17 -109.75,0 -166.91,46.06 -244.19,137.95 2.22,-29.92 4.81,-59.05 7.95,-86.99l61.97 -242.79c7.46,-12.4 15.77,-22.34 24.75,-29.69l1129.06 -43.15 0 0 17.53 640.38c-80.33,39.4 -124.27,129.9 -124.27,129.9l63 100.4c-14.62,43.85 -23.96,71.22 -23.96,71.22z"/>
   <path class="fil9" d="M9447.74 1577.46l-63 -100.4c0,0 43.94,-90.5 124.27,-129.9 4.67,-2.32 9.58,-4.44 14.48,-6.3 -27.8,90.97 -56.33,178.38 -75.75,236.6z"/>
   <path class="fil4" d="M8269.61 596.67c-61.01,224.57 -4.08,546.73 -4.08,546.73 0,0 29.1,-158.86 137.59,-254.13 75.98,-66.64 327.1,86.52 484.66,10.54 295.65,-142.86 596.57,141.56 557.64,329.65 -59.85,288.39 -21.64,419.22 -21.64,419.22 0,0 126.95,-87.12 167.41,-319.15 29.92,-171.25 105.81,-395.82 95.73,-608.47 0,0 -508.62,-361.92 -931.92,-333.42 -423.43,28.53 -485.39,209.03 -485.39,209.03z"/>
   <path class="fil1" d="M4611.54 3067.02c0,0 1395.58,286.54 1759.13,338.66 294.59,42.22 960.59,41.72 1493.43,-45.82 45.24,-7.36 152.9,413.25 152.9,413.25 0,0 106.74,-43.47 169.86,-377.6 62.2,-329.55 108.23,-722.33 108.23,-722.33 0,0 -235.31,-35.65 -550.71,159.69 -493.68,94.81 -1139.1,162.38 -1325.2,178.75 -552.46,-206.45 -1782.62,-151.41 -1782.62,-151.41l-25.02 206.81z"/>
   <path class="fil11" d="M4214.33 2617.18c0,0 132.91,148.22 112.56,170.69 -22.8,25.25 -202.6,-103.22 -202.6,-103.22 0,0 -181.53,-151.87 -261.49,-225.63 -54.14,-49.91 -11.46,-88.84 69.79,-41.39 111.97,65.35 281.74,199.55 281.74,199.55z"/>
   <path class="fil11" d="M4194.67 2664.63c0,0 140.54,140.87 121.45,164.4 -21.37,26.41 -207.7,-92.12 -207.7,-92.12 0,0 -205.75,-155.48 -289.46,-224.94 -56.69,-46.99 -26.08,-97.85 51.2,-44.17 118.43,82.28 324.51,196.83 324.51,196.83z"/>
   <path class="fil11" d="M4198.29 2755.6c0,0 116.11,141.23 97.29,160.75 -21.18,21.97 -374.22,-253.21 -452.43,-319.85 -53.08,-45.13 -22.56,-87.91 49.81,-35.55 111.17,80.32 305.33,194.65 305.33,194.65z"/>
   <path class="fil11" d="M4347.01 2872.14l-30.62 111.08c0,0 -322.06,-205.65 -397.02,-263.15 -65.91,-50.5 -43.61,-115.85 34.73,-62.66 88.84,60.21 392.91,214.73 392.91,214.73z"/>
   <path class="fil1" d="M4405.79 2672.12c129.67,104.29 278.59,185.08 278.59,185.08 0,0 207.84,264.76 75.05,237.42 -119.36,-24.55 -410.67,-64.32 -476.25,-136.32 -65.57,-71.88 -79.86,-221.06 -79.86,-221.06 0,0 -132.91,-153.59 -158.86,-179.54 -68.16,-68.53 -55.63,-165.09 8.19,-124.99 194.65,123.1 267.22,170.45 353.14,239.41z"/>
   <path class="fil1" d="M13294.98 3021.66c0,0 -1395.58,286.77 -1759.03,338.79 -294.69,42.09 -960.68,41.72 -1493.53,-45.83 -45.23,-7.49 -162.47,413.13 -162.47,413.13 0,0 -97.16,-43.38 -160.29,-377.6 -62.2,-329.42 -108.26,-722.33 -108.26,-722.33 0,0 235.34,-35.43 550.75,159.82 493.54,94.67 1139.06,162.37 1325.16,178.74 552.5,-206.44 1782.65,-151.4 1782.65,-151.4l25.02 206.68z"/>
   <path class="fil11" d="M13692.2 2572.05c0,0 -132.91,148.02 -112.57,170.56 22.8,25.38 202.57,-103.23 202.57,-103.23 0,0 181.56,-151.83 261.39,-225.6 54.24,-49.93 11.6,-88.84 -69.56,-41.38 -112.1,65.24 -281.83,199.65 -281.83,199.65z"/>
   <path class="fil11" d="M13711.72 2619.4c0,0 -140.4,140.87 -121.35,164.26 21.41,26.55 207.74,-92.12 207.74,-92.12 0,0 205.75,-155.48 289.32,-224.8 56.83,-46.99 26.21,-97.96 -51.06,-44.31 -118.44,82.55 -324.65,196.97 -324.65,196.97z"/>
   <path class="fil11" d="M13708.21 2710.36c0,0 -116.08,141.2 -97.26,160.75 21.17,21.84 374.09,-253.33 452.42,-319.84 53.05,-45.26 22.54,-88.04 -49.8,-35.65 -111.18,80.42 -305.36,194.74 -305.36,194.74z"/>
   <path class="fil11" d="M13559.52 2826.78l30.52 111.3c0,0 322.16,-205.85 397.08,-263.27 65.85,-50.5 43.61,-115.85 -34.69,-62.76 -88.84,60.31 -392.91,214.73 -392.91,214.73z"/>
   <path class="fil1" d="M13500.7 2626.89c-129.73,104.05 -278.55,185.04 -278.55,185.04 0,0 -207.87,264.8 -75.06,237.33 119.36,-24.56 410.77,-64.06 476.25,-136.2 65.58,-72 79.96,-221.05 79.96,-221.05 0,0 132.82,-153.5 158.86,-179.67 68.03,-68.4 55.54,-164.96 -8.28,-124.73 -194.65,122.97 -267.25,170.32 -353.18,239.28z"/>
  </g>
 </g>
</svg>
