<?xml version="1.0" ?><!DOCTYPE svg  PUBLIC '-//W3C//DTD SVG 1.1//EN'  'http://www.w3.org/Graphics/SVG/1.1/DTD/svg11.dtd'><svg height="100%" style="fill-rule:evenodd;clip-rule:evenodd;stroke-linejoin:round;stroke-miterlimit:1.41421;" version="1.1" viewBox="0 0 100 126" width="100%" xml:space="preserve" xmlns="http://www.w3.org/2000/svg" xmlns:serif="http://www.serif.com/" xmlns:xlink="http://www.w3.org/1999/xlink"><clipPath id="_clip1"><rect height="125" width="100" x="0" y="0.121"/></clipPath><g clip-path="url(#_clip1)"><path d="M100,42.158c0,-16.313 -13.224,-29.537 -29.537,-29.537c-12.909,0 -28.017,0 -40.926,0c-16.313,0 -29.537,13.224 -29.537,29.537c0,12.909 0,28.017 0,40.926c0,16.313 13.224,29.537 29.537,29.537c12.909,0 28.017,0 40.926,0c16.313,0 29.537,-13.224 29.537,-29.537c0,-12.909 0,-28.017 0,-40.926Z" style="fill:#ff4a58;"/><path d="M66,33.071c-5.7,0 -11.5,2.4 -15.8,6.6l-0.1,0.1c0,0 -0.1,0 -0.1,-0.1c-3.9,-3.7 -9.1,-7.4 -14.2,-7.4c-5.2,0 -10.4,2 -14.3,5.9c-7.9,7.9 -7.9,20.8 0,28.7l27,25.4c0.5,0.4 1.1,0.7 1.7,0.7c0.6,0 1.2,-0.2 1.7,-0.7l27,-25.4c3.9,-3.9 5.9,-9.1 5.9,-14.3c0,-5.2 -2,-10.4 -5.9,-14.3c-3.8,-3.5 -8.3,-5.2 -12.9,-5.2Zm7.1,28.1l-23.1,21.8l-23.1,-21.8c-2.3,-2.3 -3.5,-5.3 -3.5,-8.6c0,-3.3 1.3,-6.4 3.6,-8.7c2.3,-2.3 5.4,-3.6 8.7,-3.6c0.8,0 3.6,0.4 8.7,5.2c1.5,1.5 3.5,2.3 5.6,2.3c2.1,0 4.2,-0.8 5.7,-2.3c2.8,-2.7 6.6,-4.4 10.3,-4.4c1.9,0 4.7,0.5 7,2.8c2.3,2.3 3.6,5.4 3.6,8.7c0,3.3 -1.3,6.3 -3.5,8.6Z" style="fill-opacity:0.5;fill-rule:nonzero;"/></g></svg>