<?xml version="1.0" encoding="UTF-8"?>
<!DOCTYPE svg PUBLIC "-//W3C//DTD SVG 1.1//EN" "http://www.w3.org/Graphics/SVG/1.1/DTD/svg11.dtd">
<!-- Creator: CorelDRAW 2018 (64-Bit) -->
<svg xmlns="http://www.w3.org/2000/svg" xml:space="preserve" width="19.4732mm" height="3.3866mm" version="1.1" style="shape-rendering:geometricPrecision; text-rendering:geometricPrecision; image-rendering:optimizeQuality; fill-rule:evenodd; clip-rule:evenodd"
viewBox="0 0 1947.32 338.66"
 xmlns:xlink="http://www.w3.org/1999/xlink">
 <defs>
  <style type="text/css">
   <![CDATA[
    .fil4 {fill:#71B9D3}
    .fil5 {fill:#D29420}
    .fil3 {fill:#FEFEFE;fill-rule:nonzero}
    .fil0 {fill:#1B1A1B;fill-rule:nonzero}
    .fil2 {fill:#71B9D3;fill-rule:nonzero}
    .fil1 {fill:#D29420;fill-rule:nonzero}
    .fil6 {fill:#D29420;fill-rule:nonzero}
   ]]>
  </style>
 </defs>
 <g id="Layer_x0020_1">
  <metadata id="CorelCorpID_0Corel-Layer"/>
  <g id="_1904600678784">
   <path class="fil0" d="M632.77 268.82c0,0.93 -0.03,2.01 -0.11,2.89l1.11 0 0.1 -2.22 0.06 0c0.98,1.67 2.42,2.5 4.43,2.5 2.7,0 5.51,-2.19 5.51,-6.59 0,-3.71 -2.17,-6.34 -5.28,-6.34 -2.19,0 -3.71,1 -4.53,2.6l-0.06 0 0 -8.27 -1.23 0 0 15.43zm1.23 -4.35c0,-0.44 0.08,-0.78 0.16,-1.08 0.59,-2.06 2.32,-3.3 4.12,-3.3 2.81,0 4.35,2.5 4.35,5.33 0,3.22 -1.62,5.54 -4.45,5.54 -1.94,0 -3.53,-1.24 -4.07,-3.12 -0.08,-0.31 -0.11,-0.62 -0.11,-0.9l0 -2.47zm15.52 -5.13l4.58 11.46c0.11,0.26 0.16,0.44 0.16,0.54 0,0.13 -0.05,0.29 -0.16,0.55 -0.62,1.46 -1.44,2.49 -2.06,3.11 -0.74,0.7 -1.54,1.14 -2.16,1.37l0.39 1.03c0.28,-0.11 1.18,-0.47 2.16,-1.29 1.62,-1.42 2.68,-3.71 4.17,-7.55l3.71 -9.22 -1.31 0 -3.02 8.01c-0.38,1.01 -0.69,1.99 -0.95,2.73l-0.05 0c-0.23,-0.77 -0.57,-1.77 -0.9,-2.65l-3.25 -8.09 -1.31 0z"/>
   <path class="fil0" d="M884.1 331.65l2.84 0 0 -17.07c1.42,0.42 3.02,0.48 4.86,0.48 4.92,0 9.18,-1.54 11.73,-4.45 1.84,-2.01 2.79,-4.56 2.79,-8 0,-3.31 -1.13,-5.98 -3.08,-7.82 -2.2,-2.13 -5.81,-3.37 -10.55,-3.37 -3.38,0 -6.28,0.35 -8.59,0.77l0 39.46zm2.84 -37.39c1.07,-0.24 3.02,-0.47 5.63,-0.47 6.34,0 10.9,2.84 10.9,9.12 0,6.34 -4.26,9.78 -11.43,9.78 -1.96,0 -3.74,-0.12 -5.1,-0.59l0 -17.84zm36.09 38.04c6.28,0 13.57,-4.56 13.57,-15.11 0,-8.71 -5.34,-14.63 -13.22,-14.63 -7.05,0 -13.45,5.39 -13.45,15.11 0,8.88 5.69,14.63 13.04,14.63l0.06 0zm0.06 -2.37c-5.81,0 -10.31,-5.33 -10.31,-12.44 0,-6.11 3.26,-12.56 10.54,-12.56 7.53,0 10.43,7.17 10.43,12.38 0,7.29 -4.68,12.62 -10.6,12.62l-0.06 0zm20.68 1.72l2.84 0 0 -15.7c0,-0.95 0.06,-1.9 0.24,-2.73 0.77,-4.56 3.55,-7.94 7.47,-7.94 0.53,0 0.94,0 1.36,0.06l0 -2.67c-0.36,-0.06 -0.77,-0.11 -1.19,-0.11 -3.85,0 -6.81,2.78 -8.06,6.4l-0.17 0 -0.12 -5.75 -2.61 0c0.18,2.78 0.24,5.69 0.24,8.53l0 19.91zm20.15 -33.66l0 5.22 -4.8 0 0 2.31 4.8 0 0 17.95c0,2.91 0.47,5.34 1.77,6.82 1.07,1.3 2.79,1.95 4.86,1.95 1.72,0 3.02,-0.29 3.97,-0.65l-0.35 -2.13c-0.71,0.24 -1.78,0.41 -3.26,0.41 -3.02,0 -4.15,-2.25 -4.15,-5.86l0 -18.49 8.12 0 0 -2.31 -8.12 0 0 -6.28 -2.84 1.06zm34.96 15.77c0,-5.04 -1.6,-11.2 -9.84,-11.2 -2.55,0 -5.75,0.71 -8.35,2.43l0.88 2.07c2.08,-1.48 4.68,-2.13 7.17,-2.13 6.76,-0.06 7.29,5.57 7.29,8.35l0 0.77c-11.61,-0.12 -17.36,3.85 -17.36,10.43 0,3.79 2.61,7.82 8.36,7.82 4.56,0 7.7,-2.55 9.12,-4.74l0.12 0 0.41 4.09 2.61 0c-0.35,-2.19 -0.41,-4.5 -0.41,-6.75l0 -11.14zm-2.85 8.76c0,0.48 -0.06,1.13 -0.29,1.72 -0.95,2.79 -3.68,5.69 -8.42,5.69 -2.96,0 -5.69,-1.83 -5.69,-5.92 0,-6.82 8.18,-7.77 14.4,-7.59l0 6.1zm12.03 9.13l2.85 0 0 -42.13 -2.85 0 0 42.13zm12.68 0.65c1.48,0 2.43,-1.24 2.43,-2.66 0,-1.54 -0.95,-2.67 -2.37,-2.67 -1.42,0 -2.43,1.13 -2.43,2.67 -0.06,1.42 0.95,2.66 2.31,2.66l0.06 0zm9.48 -0.65l2.85 0 0 -15.7c0,-0.95 0.06,-1.9 0.23,-2.73 0.77,-4.56 3.56,-7.94 7.47,-7.94 0.53,0 0.95,0 1.36,0.06l0 -2.67c-0.35,-0.06 -0.77,-0.11 -1.18,-0.11 -3.85,0 -6.82,2.78 -8.06,6.4l-0.18 0 -0.12 -5.75 -2.6 0c0.17,2.78 0.23,5.69 0.23,8.53l0 19.91zm27.62 0.65c6.28,0 13.57,-4.56 13.57,-15.11 0,-8.71 -5.34,-14.63 -13.22,-14.63 -7.05,0 -13.45,5.39 -13.45,15.11 0,8.88 5.69,14.63 13.04,14.63l0.06 0zm0.06 -2.37c-5.81,0 -10.31,-5.33 -10.31,-12.44 0,-6.11 3.25,-12.56 10.54,-12.56 7.53,0 10.43,7.17 10.43,12.38 0,7.29 -4.68,12.62 -10.6,12.62l-0.06 0z"/>
   <path class="fil0" d="M712.54 331.99l10.02 0 -2.44 -45.65 -13.54 0 -4.81 15.17c-1.56,5.08 -3.12,11.11 -4.34,16.39l-0.27 0c-1.01,-5.35 -2.37,-11.04 -3.86,-16.32l-4.47 -15.24 -13.74 0 -2.92 45.65 9.55 0 0.88 -17.34c0.27,-5.69 0.54,-12.73 0.75,-18.89l0.13 0c1.15,6.02 2.64,12.46 4.13,17.81l4.88 17.67 8.06 0 5.55 -17.81c1.76,-5.35 3.66,-11.85 5.15,-17.67l0.13 0c0,6.7 0.21,13.27 0.41,18.75l0.75 17.48zm48.82 -33.12l-10.29 0 0 19.71c0,0.88 -0.14,1.62 -0.41,2.23 -0.61,1.63 -2.3,3.59 -5.14,3.59 -3.66,0 -5.22,-2.91 -5.22,-7.72l0 -17.81 -10.29 0 0 19.44c0,10.22 4.87,14.42 11.65,14.42 5.95,0 9.07,-3.39 10.36,-5.42l0.2 0 0.47 4.68 8.94 0c-0.13,-2.78 -0.27,-6.3 -0.27,-10.64l0 -22.48zm8.26 33.12l10.3 0 0 -19.1c0,-0.95 0.07,-1.9 0.34,-2.58 0.74,-1.89 2.43,-3.86 5.28,-3.86 3.72,0 5.21,2.92 5.21,7.18l0 18.36 10.3 0 0 -19.58c0,-9.75 -5.08,-14.28 -11.85,-14.28 -5.56,0 -8.88,3.18 -10.23,5.35l-0.2 0 -0.48 -4.61 -8.94 0c0.14,2.98 0.27,6.43 0.27,10.56l0 22.56zm49.98 -48.15l-10.29 0 0 48.15 10.29 0 0 -10.37 2.58 -3.25 8.05 13.62 12.67 0 -13.55 -19.71 11.85 -13.41 -12.39 0 -6.7 9.95c-0.82,1.22 -1.63,2.58 -2.37,4l-0.14 0 0 -28.98zm54.31 28.57c0,-7.78 -3.45,-14.28 -14.49,-14.28 -6.03,0 -10.56,1.69 -12.87,2.98l1.9 6.56c2.17,-1.28 5.76,-2.43 9.14,-2.43 5.08,0 6.03,2.5 6.03,4.26l0 0.41c-11.72,0 -19.44,4.06 -19.44,12.66 0,5.28 4,10.16 10.7,10.16 3.93,0 7.32,-1.42 9.48,-4.06l0.21 0 0.61 3.32 9.28 0c-0.41,-1.83 -0.55,-4.88 -0.55,-8l0 -11.58zm-9.95 7.52c0,0.61 -0.07,1.22 -0.2,1.76 -0.68,2.1 -2.85,3.79 -5.35,3.79 -2.31,0 -4.07,-1.28 -4.07,-3.92 0,-3.93 4.2,-5.22 9.62,-5.22l0 3.59z"/>
   <path class="fil1" d="M1152.35 231.98l0 104.95 -61.5 0 0 -115.27c2.33,-2.47 4,-4.82 6.02,-8.31 2.39,-4.12 5.26,-9.82 7.74,-16.57 2.49,-6.75 4.57,-14.54 5.76,-21.91 1.18,-7.36 1.47,-14.3 1.33,-21.39 -0.15,-7.09 -0.72,-14.33 -1.6,-20.86 -0.89,-6.53 -2.09,-12.34 -3.47,-17.01 -1.38,-4.68 -2.95,-8.23 -4.86,-11.77 -1.91,-3.54 -4.17,-7.06 -7.69,-11.11 -0.99,-1.15 -2.08,-2.33 -3.23,-3.51l0 -50.79 116.43 0c22.39,0 42.12,4.13 59.13,12.32 17,8.19 30.09,19.87 39.25,34.99 9.17,15.11 13.72,32.32 13.72,51.63 0,29.25 -10.01,52.34 -30.02,69.28 -20.01,16.86 -47.72,25.33 -83.13,25.33l-53.88 0zm0 -49.96l54.93 0c16.23,0 28.62,-3.85 37.23,-11.48 8.53,-7.63 12.8,-18.54 12.8,-32.75 0,-14.62 -4.34,-26.45 -12.94,-35.47 -8.61,-9.03 -20.51,-13.65 -35.69,-13.93l-56.33 0 0 93.63z"/>
   <path class="fil2" d="M676.96 175.91l0 -153.9c7.62,-4.27 14.94,-6.4 22.86,-6.4 16.15,0 26.51,10.66 26.51,25.9l0 144.15c0,35.05 -21.94,55.47 -58.81,55.47 -16.16,0 -29.87,-2.74 -42.67,-8.23l6.1 -36.57c7.61,3.96 17.06,5.79 24.98,5.79 13.72,0 21.03,-10.06 21.03,-26.21zm368.46 -95.09c-17.98,0 -35.66,5.79 -48.76,22.25l0 -80.76c0,-12.8 -7.93,-21.94 -21.95,-21.94 -8.22,0 -17.06,2.74 -25.29,6.4l0 231.31c21.94,1.83 54.25,3.05 70.09,3.05 53.34,0 85.03,-31.39 85.03,-85.03 0,-47.24 -23.46,-75.28 -59.12,-75.28zm-30.48 125.26c-5.18,0 -11.27,0 -18.28,-0.3l0 -44.5c0,-32.3 13.1,-43.27 31.39,-43.27 18.59,0 28.64,14.32 28.64,38.09 0,31.69 -15.84,49.98 -41.75,49.98z"/>
   <path class="fil3" d="M1121.79 49.27c1.73,0 3.43,0.45 5.09,1.34 1.65,0.89 2.94,2.17 3.86,3.83 0.93,1.66 1.39,3.39 1.39,5.19 0,1.78 -0.45,3.5 -1.37,5.15 -0.9,1.65 -2.18,2.92 -3.82,3.83 -1.65,0.92 -3.36,1.37 -5.15,1.37 -1.8,0 -3.51,-0.45 -5.16,-1.37 -1.64,-0.91 -2.92,-2.18 -3.83,-3.83 -0.92,-1.65 -1.38,-3.37 -1.38,-5.15 0,-1.8 0.47,-3.53 1.39,-5.19 0.94,-1.66 2.23,-2.94 3.88,-3.83 1.66,-0.89 3.36,-1.34 5.1,-1.34zm0 1.72c-1.46,0 -2.88,0.37 -4.25,1.12 -1.38,0.74 -2.46,1.81 -3.24,3.19 -0.77,1.39 -1.16,2.83 -1.16,4.33 0,1.49 0.38,2.92 1.15,4.29 0.76,1.37 1.83,2.44 3.2,3.2 1.37,0.76 2.8,1.15 4.3,1.15 1.49,0 2.92,-0.39 4.29,-1.15 1.37,-0.76 2.44,-1.83 3.2,-3.2 0.76,-1.37 1.14,-2.8 1.14,-4.29 0,-1.5 -0.39,-2.94 -1.16,-4.33 -0.78,-1.38 -1.85,-2.45 -3.24,-3.19 -1.38,-0.75 -2.79,-1.12 -4.23,-1.12zm-4.55 14.35l0 -11.12 3.83 0c1.31,0 2.26,0.1 2.84,0.31 0.59,0.2 1.06,0.56 1.41,1.07 0.34,0.51 0.52,1.06 0.52,1.63 0,0.81 -0.29,1.53 -0.88,2.12 -0.58,0.61 -1.35,0.95 -2.32,1.02 0.4,0.16 0.72,0.36 0.95,0.59 0.45,0.44 1,1.17 1.65,2.21l1.36 2.17 -2.19 0 -0.99 -1.75c-0.78,-1.38 -1.41,-2.24 -1.89,-2.59 -0.32,-0.25 -0.8,-0.38 -1.43,-0.38l-1.06 0 0 4.72 -1.8 0zm1.8 -6.26l2.18 0c1.04,0 1.76,-0.16 2.14,-0.47 0.37,-0.3 0.57,-0.72 0.57,-1.22 0,-0.33 -0.1,-0.63 -0.28,-0.88 -0.18,-0.26 -0.43,-0.46 -0.76,-0.58 -0.33,-0.13 -0.93,-0.2 -1.81,-0.2l-2.04 0 0 3.35z"/>
   <polygon class="fil2" points="901.81,206.83 887.62,218.39 881.51,210.89 895.7,199.33 "/>
   <polygon class="fil2" points="906.42,208.8 888.61,223.3 885.22,219.14 903.03,204.64 "/>
   <path class="fil2" d="M956.72 266.22c3.41,4.18 5.8,9.76 1.74,13.06l-11.78 7.91c-4.06,3.31 -9.67,-0.1 -13.07,-4.28l-46.1 -56.61c-3.4,-4.18 0.64,-5.94 4.71,-9.24l7.35 -6c4.06,-3.3 6.61,-6.91 10.01,-2.73l47.14 57.89z"/>
   <path class="fil4" d="M851.85 55.23c45.86,7.29 77.13,50.38 69.84,96.24 -7.29,45.86 -50.38,77.13 -96.24,69.84 -45.86,-7.29 -77.13,-50.37 -69.84,-96.24 7.29,-45.86 50.37,-77.13 96.24,-69.84zm-3.44 24.87c32.44,5.15 54.56,35.63 49.4,68.08 -5.15,32.44 -35.63,54.56 -68.08,49.41 -32.44,-5.16 -54.56,-35.64 -49.41,-68.08 5.16,-32.45 35.64,-54.57 68.09,-49.41z"/>
   <path id="Couple_x0020_Man_x0020_Woman-595b40b85ba036ed117dcdf0.svg" class="fil5" d="M811.24 107.66c-13.6,0 -22.08,8.28 -22.08,21.77 0,0.03 0,0.09 0,0.12 0,0.07 0,0.13 0,0.19 0,1.56 0.38,3.64 0.87,5.88 0.38,1.77 0.87,3.31 1.29,4.7 -0.36,0.34 -0.69,0.46 -1.05,0.99 -0.73,1.1 -1.27,2.72 -1.05,4.57 0.57,4.84 3.43,6.64 4.76,7.37 0.45,2.46 1.61,5.34 3.59,8.35 2.04,3.08 4.91,5.95 8.35,7.73 0.04,0.02 0.09,0.04 0.13,0.06 1.34,1.59 3.36,2.72 5.63,2.72 1.95,0 3.63,-0.93 4.94,-2.16 3.89,-1.68 6.97,-4.95 9.22,-8.29 2.01,-2.99 3.25,-5.88 3.71,-8.35 0.52,-0.27 0.83,-0.3 1.61,-1.05 1.29,-1.24 2.61,-3.31 2.97,-6.31 0.21,-1.81 -0.26,-3.4 -0.93,-4.52 -0.31,-0.53 -0.64,-0.7 -0.99,-1.05 0.95,-3.17 1.92,-7.76 1.92,-12.87 0,-2.52 -0.57,-5.62 -2.29,-8.35 -0.46,-0.73 -1.07,-1.38 -1.73,-1.98 -1.33,-1.7 -3.27,-2.84 -6.06,-3.03 -0.59,-0.86 -1.64,-2.34 -3.41,-3.65 -0.13,-0.1 -0.29,-0.2 -0.43,-0.31 -0.07,-0.05 -0.17,-0.07 -0.25,-0.12 -1.71,-1.21 -4.07,-2.2 -7.29,-2.35 -0.48,-0.04 -0.92,-0.06 -1.43,-0.06zm44.48 0.55c-9.3,0 -16.11,4.19 -20.35,9.16 1.82,3.02 2.72,6.64 2.72,10.14 0,4.71 -0.78,9 -1.49,11.88 1.23,2.06 1.78,4.51 1.49,6.99 -0.58,4.9 -3.06,7.84 -5.07,9.46 -0.64,1.99 -1.69,4.31 -3.1,6.62 3.94,1.21 10.94,3.13 15.84,3.16 3.04,3.67 6.8,5.93 10.7,5.93 3.91,0 7.65,-2.3 10.7,-6 0.09,0.02 0.16,0.07 0.25,0.07 11.75,0 18.93,-1.96 19.24,-2.04 0.69,-0.2 1.26,-0.78 1.42,-1.49 0.16,-0.71 -0.08,-1.44 -0.62,-1.92 -4.32,-3.84 -3.44,-8.6 -2.35,-14.66 0.53,-2.93 1.05,-5.98 1.05,-9.21 0,-13.44 -6.27,-21.61 -16.82,-22.09 -1.56,-1.86 -5.87,-6 -13.61,-6zm-34.58 16.83c1.32,2.11 3.4,6.12 3.4,10.39 0.03,2.19 0.87,5.72 3.65,6.31 0.17,0.36 0.46,0.67 0.81,0.87 0.11,0.06 0.51,0.38 0.8,0.86 0.29,0.48 0.54,1.06 0.43,1.98 -0.24,2.09 -1.12,3.25 -1.85,3.96 -0.74,0.71 -1.24,0.87 -1.24,0.87 -0.72,0.26 -1.23,0.91 -1.3,1.67 -0.14,1.34 -1.31,4.56 -3.28,7.48 -1.96,2.92 -4.72,5.65 -7.54,6.87 -0.29,0.12 -0.55,0.31 -0.75,0.55 -0.64,0.79 -1.52,1.3 -2.59,1.3 -1.08,0 -2.02,-0.51 -2.66,-1.3 -0.2,-0.24 -0.46,-0.43 -0.75,-0.55 -2.79,-1.22 -5.43,-3.96 -7.36,-6.87 -1.92,-2.91 -3.13,-6.12 -3.28,-7.48 -0.07,-0.76 -0.58,-1.41 -1.3,-1.67 0,0 -2.72,-0.69 -3.21,-4.83 -0.11,-0.88 0.11,-1.44 0.43,-1.92 0.32,-0.47 0.79,-0.8 0.99,-0.92 0.58,-0.37 0.93,-1 0.93,-1.68 0,-0.02 0,-0.04 0,-0.06 1.06,-1.5 1.55,-3.92 1.85,-5.44 0.86,-4.25 5.53,-5.44 12.25,-5.44 6.33,0 9.89,-2.96 11.57,-4.95zm43.24 2.97c2.05,2.2 5.94,8.93 5.94,16.39 0,12.86 -7.58,23.2 -13.86,23.2 -6.28,0 -13.86,-10.34 -13.86,-23.2 0,-4.83 2.78,-7.68 8.05,-8.85 1.19,-0.26 2.45,-0.57 3.58,-0.92 5.2,-1.64 8.45,-4.62 10.15,-6.62zm-61.36 13.85c-1.1,0 -1.98,0.89 -1.98,1.98 0,1.1 0.88,1.98 1.98,1.98 1.09,0 1.97,-0.88 1.97,-1.98 0,-1.09 -0.88,-1.98 -1.97,-1.98zm17.81 0c-1.09,0 -1.98,0.89 -1.98,1.98 0,1.1 0.89,1.98 1.98,1.98 1.09,0 1.98,-0.88 1.98,-1.98 0,-1.09 -0.89,-1.98 -1.98,-1.98zm27.71 1.98c-1.09,0 -1.98,0.89 -1.98,1.98 0,1.1 0.89,1.98 1.98,1.98 1.1,0 1.98,-0.88 1.98,-1.98 0,-1.09 -0.88,-1.98 -1.98,-1.98zm15.84 0c-1.1,0 -1.98,0.89 -1.98,1.98 0,1.1 0.88,1.98 1.98,1.98 1.09,0 1.98,-0.88 1.98,-1.98 0,-1.09 -0.89,-1.98 -1.98,-1.98z"/>
   <path class="fil6" d="M809.04 160.66c4.19,1 9.45,-1.14 10.23,-4.58 0.32,-1.42 -2.06,-1.9 -2.76,-0.59 -1.15,2.17 -4.13,3.89 -7.24,2.79 -2.73,-0.97 -3.21,-3.16 -3.67,-5.18 -0.1,-0.45 -0.87,-0.42 -1.15,-0.11 -2.54,2.81 0.91,6.79 4.59,7.67z"/>
   <path class="fil6" d="M859.34 160.22c-4.51,0.99 -10.17,-1.12 -11.01,-4.53 -0.34,-1.4 2.22,-1.87 2.96,-0.58 1.25,2.15 4.46,3.85 7.8,2.76 2.94,-0.96 3.46,-3.12 3.95,-5.12 0.11,-0.44 0.94,-0.42 1.24,-0.11 2.74,2.77 -0.98,6.71 -4.94,7.58z"/>
  </g>
 </g>
</svg>
