<?xml version="1.0" encoding="UTF-8" standalone="no"?><!DOCTYPE svg PUBLIC "-//W3C//DTD SVG 1.1//EN" "http://www.w3.org/Graphics/SVG/1.1/DTD/svg11.dtd"><svg width="100%" height="100%" viewBox="0 0 500 511" version="1.1" xmlns="http://www.w3.org/2000/svg" xmlns:xlink="http://www.w3.org/1999/xlink" xml:space="preserve" xmlns:serif="http://www.serif.com/" style="fill-rule:evenodd;clip-rule:evenodd;stroke-linejoin:round;stroke-miterlimit:1.41421;"><ellipse cx="249.847" cy="255.084" rx="249.847" ry="255.084" style="fill:#393939;"/><path d="M285.816,339.282l0,98.895l-56.763,0l0,-281.256l107.455,0c20.664,0 38.875,3.89 54.567,11.604c15.692,7.714 27.768,18.724 36.227,32.965c8.46,14.24 12.657,30.459 12.657,48.656c0,27.558 -9.235,49.315 -27.703,65.27c-18.469,15.889 -44.041,23.866 -76.717,23.866l-49.723,0l0,0Zm0,-47.074l50.692,0c14.982,0 26.412,-3.625 34.355,-10.812c7.879,-7.186 11.817,-17.471 11.817,-30.855c0,-13.779 -4.004,-24.921 -11.947,-33.426c-7.942,-8.505 -18.92,-12.856 -32.933,-13.12l-51.984,0l0,88.213Z" style="fill:#d29420;fill-rule:nonzero;"/><path d="M224.768,145.524c6.893,-0.097 15.699,-0.097 19.624,4.398c3.925,4.496 2.968,13.488 2.872,38.116c-0.096,24.629 0.67,64.895 0.67,89.328c0,24.433 -0.766,33.034 -2.297,40.657c-1.532,7.624 -3.829,14.269 -6.721,19.058c-2.891,4.789 -6.377,7.721 -9.057,11.142c-2.68,3.421 -4.556,7.33 -8.174,10.848c-3.618,3.519 -8.978,6.646 -11.276,2.248c-2.297,-4.398 -1.531,-16.321 -1.244,-51.212c0.287,-34.891 0.096,-92.749 -0.192,-123.926c-0.287,-31.177 -0.67,-35.672 1.627,-38.018c2.298,-2.346 7.276,-2.541 14.168,-2.639l0,0Z" style="fill:#393939;"/><path d="M176.791,277.023l0,-195.928c9.5,-5.43 18.62,-8.147 28.5,-8.147c20.141,0 33.061,13.579 33.061,32.977l0,183.512c0,44.617 -27.36,70.611 -73.342,70.611c-20.14,0 -37.241,-3.491 -53.201,-10.474l7.601,-46.557c9.499,5.043 21.28,7.372 31.16,7.372c17.1,0 26.221,-12.803 26.221,-33.366l0,0Z" style="fill:#71b9d3;fill-rule:nonzero;"/><g transform="matrix(0.0151001,0.999886,-0.999876,0.0157396,278.399,-99.2964)"><text x="189.574px" y="91.699px" style="font-family:'Poppins-ExtraBold', 'Poppins';font-weight:800;font-size:45.368px;fill:#d29421;stroke:#393939;stroke-width:2px;">J<tspan x="215.976px 252.521px 283.509px 312.875px 324.779px 350.069px " y="91.699px 91.699px 91.699px 91.699px 91.699px 91.699px ">OBP.EU</tspan></text></g></svg>