<?xml version="1.0" encoding="UTF-8"?>
<!DOCTYPE svg PUBLIC "-//W3C//DTD SVG 1.1//EN" "http://www.w3.org/Graphics/SVG/1.1/DTD/svg11.dtd">
<!-- Creator: CorelDRAW 2018 (64-Bit) -->
<svg xmlns="http://www.w3.org/2000/svg" xml:space="preserve" width="200mm" height="100mm" version="1.1" style="shape-rendering:geometricPrecision; text-rendering:geometricPrecision; image-rendering:optimizeQuality; fill-rule:evenodd; clip-rule:evenodd"
viewBox="0 0 20000 10000"
 xmlns:xlink="http://www.w3.org/1999/xlink">
 <defs>
  <style type="text/css">
   <![CDATA[
    .fil13 {fill:#2B2B2B;fill-rule:nonzero}
    .fil21 {fill:#2B85A6;fill-rule:nonzero}
    .fil26 {fill:#313131;fill-rule:nonzero}
    .fil15 {fill:#333333;fill-rule:nonzero}
    .fil14 {fill:#3B3B3B;fill-rule:nonzero}
    .fil24 {fill:#4E4E4E;fill-rule:nonzero}
    .fil16 {fill:#50A4C2;fill-rule:nonzero}
    .fil5 {fill:#565656;fill-rule:nonzero}
    .fil7 {fill:#5C5C5C;fill-rule:nonzero}
    .fil12 {fill:#606060;fill-rule:nonzero}
    .fil11 {fill:#676767;fill-rule:nonzero}
    .fil2 {fill:#6E6E6E;fill-rule:nonzero}
    .fil9 {fill:#767676;fill-rule:nonzero}
    .fil23 {fill:#868686;fill-rule:nonzero}
    .fil19 {fill:#878787;fill-rule:nonzero}
    .fil3 {fill:#8D8D8D;fill-rule:nonzero}
    .fil18 {fill:#929292;fill-rule:nonzero}
    .fil1 {fill:#A5A5A5;fill-rule:nonzero}
    .fil6 {fill:#B6B6B6;fill-rule:nonzero}
    .fil0 {fill:#BBBBBB;fill-rule:nonzero}
    .fil22 {fill:#BEBEBE;fill-rule:nonzero}
    .fil4 {fill:#C5C5C5;fill-rule:nonzero}
    .fil8 {fill:lightgrey;fill-rule:nonzero}
    .fil10 {fill:#DBDBDB;fill-rule:nonzero}
    .fil25 {fill:#E4E4E4;fill-rule:nonzero}
    .fil17 {fill:#ECECEC;fill-rule:nonzero}
    .fil20 {fill:#F6F6F6;fill-rule:nonzero}
   ]]>
  </style>
 </defs>
 <g id="Layer_x0020_1">
  <metadata id="CorelCorpID_0Corel-Layer"/>
  <g id="_2907294494160">
   <polygon class="fil0" points="11974.72,2566.44 12135.14,2300.2 12235.72,2327.98 12145.76,2639.91 "/>
   <path class="fil1" d="M12658.56 2300.78c0,26.03 -441.34,113.94 -522.69,36.59 -21.53,-19.63 -5.02,-43.15 45.58,-75.01 50.53,-31.87 477.11,12.37 477.11,38.42z"/>
   <path class="fil2" d="M12281.38 1543.77c0,0 28.03,14.6 28.03,29.27 0,14.68 -29.35,26.7 -29.35,26.7l94.54 0c0,0 -23.96,-14.68 -23.96,-26.7 0,-11.93 28.02,-29.27 28.02,-29.27l-97.28 0z"/>
   <polygon class="fil2" points="13161.49,2236.54 13175.64,2212.72 11481.51,2212.72 11497.23,2236.54 "/>
   <path class="fil3" d="M12419.3 1514.48c0,19.84 -40.27,35.92 -89.9,35.92 -49.71,0 -89.98,-16.08 -89.98,-35.92 0,-19.9 40.27,-35.98 89.98,-35.98 49.63,0 89.9,16.08 89.9,35.98z"/>
   <path class="fil2" d="M11497.23 2236.54c0,16.51 372.54,74.63 832.17,74.63 459.55,0 832.09,-60.84 832.09,-74.63 0,-13.86 -372.54,-74.72 -832.09,-74.72 -459.63,0 -832.17,58.12 -832.17,74.72z"/>
   <path class="fil2" d="M11527.61 2180.34c0,15.05 358.97,67.78 801.79,67.78 442.74,0 801.71,-55.24 801.71,-67.78 0,-12.61 -358.97,-67.78 -801.71,-67.78 -442.82,0 -801.79,52.66 -801.79,67.78z"/>
   <path class="fil3" d="M11622.17 2173.92c0,13.28 316.63,59.73 707.23,59.73 390.52,0 707.15,-48.67 707.15,-59.73 0,-11.06 -78.11,-575.58 -707.15,-575.58 -629.12,0 -707.23,562.22 -707.23,575.58z"/>
   <path class="fil4" d="M12419.3 1514.48c0,-0.06 0,-0.14 0,-0.2 0,0.06 0,0.14 0,0.2zm0 -0.29c0,-0.08 0,-0.08 0,-0.14 0,0.06 0,0.06 0,0.14zm0 -0.23c0,-0.06 0,-0.06 0,-0.14 0,0 0,0.08 0,0.14zm0 -0.21c0,-0.08 -0.06,-0.08 -0.06,-0.14 0,0.06 0.06,0.06 0.06,0.14zm-0.06 -0.23c0,-0.06 0,-0.06 0,-0.14 0,0.08 0,0.08 0,0.14zm0 -0.21c0,-0.08 0,-0.08 0,-0.08 0,0 0,0 0,0.08zm-0.09 -0.81l0 0 0 0z"/>
   <path class="fil5" d="M12329.4 1550.4c-0.23,0 -0.37,0 -0.58,0 0.21,0 0.35,0 0.58,0 17.33,0 33.56,-1.92 47.27,-5.31l0 0c-13.71,3.39 -29.94,5.31 -47.27,5.31zm-0.81 0c-0.09,0 -0.23,0 -0.3,0 0.07,0 0.21,0 0.3,0zm-0.53 0c-0.14,0 -0.21,0 -0.29,0 0.08,0 0.15,0 0.29,0zm-0.58 0c-0.09,0 -0.23,0 -0.29,0 0.06,0 0.2,0 0.29,0zm-0.59 0c-0.08,0 -0.14,0 -0.23,0 0.09,0 0.15,0 0.23,0zm-0.52 0c-0.06,0 -0.15,0 -0.21,0 0.06,0 0.15,0 0.21,0zm-0.59 0c-0.08,0 -0.14,0 -0.23,0 0.09,0 0.15,0 0.23,0zm-0.52 0c0,0 -0.06,0 -0.14,0 0.08,0 0.14,0 0.14,0zm-2.07 -0.06l0 0 0 0z"/>
   <path class="fil2" d="M12329.4 1550.4c-0.23,0 -0.37,0 -0.58,0 -0.09,0 -0.17,0 -0.23,0 -0.09,0 -0.23,0 -0.3,0 -0.08,0 -0.14,0 -0.23,0 -0.14,0 -0.21,0 -0.29,0 -0.15,0 -0.21,0 -0.29,0 -0.09,0 -0.23,0 -0.29,0 -0.09,0 -0.23,0 -0.3,0 -0.08,0 -0.14,0 -0.23,0 -0.06,0 -0.21,0 -0.29,0 -0.06,0 -0.15,0 -0.21,0 -0.17,0 -0.23,0 -0.38,0 -0.08,0 -0.14,0 -0.23,0 -0.06,0 -0.14,0 -0.29,0 0,0 -0.06,0 -0.14,0 -0.59,0 -1.26,0 -1.93,-0.06l0 0c-41.37,-1.11 -74.84,-13.42 -82.16,-29.44 13.21,2.22 28.18,3.54 44.41,3.54 49.63,0 89.91,-11.8 89.91,-26.47 0,-7.15 -9.88,-13.72 -25.75,-18.44 38.36,3.53 67.34,16.74 69.55,32.97l0 0c0,0.21 0.09,0.52 0.09,0.73 0,0 0,0 0,0.08l0 0.07c0,0.08 0,0.08 0,0.14l0 0.09c0,0.06 0.06,0.06 0.06,0.14l0 0.07c0,0.08 0,0.08 0,0.14l0 0.09c0,0.06 0,0.06 0,0.14 0,0 0,0 0,0.09 0,0.06 0,0.14 0,0.2l0 0c0,12.9 -17.04,24.28 -42.63,30.61 -13.71,3.39 -29.94,5.31 -47.27,5.31z"/>
   <path class="fil6" d="M12341.42 1494.27c0.67,6.79 -16.83,14.03 -39.01,16.24 -22.14,2.13 -40.64,-1.55 -41.31,-8.34 -0.67,-6.79 16.75,-14.01 38.95,-16.22 22.12,-2.14 40.7,1.54 41.37,8.32z"/>
   <path class="fil7" d="M12339.73 2233.65c-3.7,0 -7.38,0 -11.14,0 0,0 0,0 -0.09,0 0.32,0 0.61,0 0.9,0 380.27,0 690.4,-46.16 706.56,-58.77 0,0.3 0,0.53 0,0.67 0,10.98 -310.73,58.1 -696.23,58.1z"/>
   <path class="fil8" d="M11629.84 2127.76c3.02,-12.54 6.93,-27.37 11.94,-43.88 0.23,0.06 0.38,0.21 0.59,0.29 -4.94,16.29 -8.85,30.96 -11.71,43.51 -0.31,0.08 -0.52,0.08 -0.82,0.08z"/>
   <path class="fil9" d="M11623.57 2158.05c1.32,-7.59 3.33,-17.83 6.27,-30.29 0.3,0 0.51,0 0.82,-0.08 -2.97,12.31 -4.95,22.49 -6.27,30.23 -0.29,0 -0.52,0.08 -0.82,0.14z"/>
   <path class="fil7" d="M11622.17 2173.34c-0.37,-0.38 -0.58,-0.76 -0.58,-1.11 0,-1.11 0.58,-6.04 1.98,-14.18 0.3,-0.06 0.53,-0.14 0.82,-0.14 -1.4,8.19 -2.07,13.5 -2.22,15.43z"/>
   <path class="fil7" d="M12330.36 1598.34c-0.08,0 -0.14,0 -0.23,0l0 0c0.09,0 0.15,0 0.23,0z"/>
   <path class="fil9" d="M12329.4 2233.65c-0.29,0 -0.58,0 -0.9,0 -380.33,-0.88 -690.48,-45.72 -706.33,-60.31 0.15,-1.93 0.82,-7.24 2.22,-15.43 1.32,-7.74 3.3,-17.92 6.27,-30.23 2.86,-12.55 6.77,-27.22 11.71,-43.51 112.41,54.21 247.45,83.63 380.94,89.67 24.65,1.11 48.25,1.63 71.04,1.63 625.27,0 550.87,-408.96 235.78,-577.13 0.09,0 0.15,0 0.23,0 620.7,1.63 703.53,551.54 705.6,576.54 -16.16,12.61 -326.29,58.77 -706.56,58.77z"/>
   <path class="fil6" d="M11769.81 1960.84c-1.23,-83.86 186.68,-333.59 434.05,-318.62 247.3,15.06 48.17,348.41 -155.69,418.93 -137.11,47.35 -276.72,1.4 -278.36,-100.31z"/>
   <path class="fil6" d="M12251.73 2033.43c-1.77,-28.85 74.49,-165.96 128.62,-169.28 54.21,-3.39 88.52,109.9 35.19,172.23 -47.94,55.9 -160.42,51.18 -163.81,-2.95z"/>
   <path class="fil10" d="M10811.1 2288.68c159.68,139.26 441.19,1169.43 511.33,1183.48 215.36,-372.93 364.57,-586.05 655.97,-942.01l185.42 85.55c-119.86,731.27 -550.66,1526.96 -950.98,1506.43 -311.7,-16.02 -550.05,-430.74 -732.21,-745.85 -182.16,-315.25 330.47,-1087.6 330.47,-1087.6z"/>
   <path class="fil11" d="M9849.65 1486.91c-75.87,-11.37 -610.12,-834.82 -373.77,-1027.69 120.69,-98.38 333.04,268.46 333.04,268.46 0,0 207.69,737.69 40.73,759.23z"/>
   <path class="fil12" d="M9475.88 459.22c-223.31,182.16 94.52,1082.63 359.4,1020.89 -17.98,-51.84 -30.02,-118.22 -44.17,-214.1 -3.52,-53.1 -6.63,-102.3 -9.26,-149.21l10.82 78.34 49.68 4.64c0,0 -48.13,-364.72 7.19,-578.89 -37.57,36.42 -244.65,217.49 -375.11,51.85 -85.9,-109.17 1.45,-213.52 1.45,-213.52z"/>
   <path class="fil13" d="M10405.99 9634.49c0,0 71.71,103.72 228.05,165.9 156.34,62.22 253.68,48.31 245.07,89.81 -8.64,41.46 -602.01,20.66 -600.04,-27.66 1.96,-48.29 32.47,-117.41 30.17,-228.05 -2.3,-110.55 96.75,0 96.75,0z"/>
   <path class="fil13" d="M9754.14 9634.49c10.98,142.88 53.34,214.21 58.46,255.71 5.14,41.46 -386.33,46.02 -396.16,0 -13.74,-64.39 203.11,-113.12 215.36,-255.71 11.5,-133.57 122.34,0 122.34,0z"/>
   <path class="fil14" d="M9207.14 4699.78c0,0 -86.78,795.64 231.54,2332.24 0,0 -107.52,681.51 -119.87,914.03 -14.37,270.47 218.53,1732.56 218.53,1732.56l274.78 0c18.37,-636.51 97.55,-1203.16 122.03,-1696.58 17.5,-352 -20.36,-666.77 -2.7,-943.01 59.96,-937.85 113.86,-1431.35 113.86,-1431.35l46.56 0c0,0 107.77,1284.65 103.76,1424.35 -3.99,139.69 -114.44,743.02 -120.72,960.26 -6.2,217.3 151.35,1686.33 151.35,1686.33l294.55 0c196.52,-3677.6 241.54,-3671.83 260.5,-4973.1l-1574.17 -5.73z"/>
   <path class="fil15" d="M10226.26 9678.61l294.55 0c233.28,-2761.2 257.03,-3357.5 263.15,-4978.39l-583.4 -2.66 -47.94 802.36 -130.56 107.75 69.83 0c0,0 107.75,1284.65 103.74,1424.35 -3.99,139.69 -154.27,743.02 -163.32,960.26 -9.08,217.3 193.95,1686.33 193.95,1686.33z"/>
   <path class="fil15" d="M10783.96 4700.22l-1576.82 -0.44c0,0 -2.36,24.62 -4.76,72.42 110.28,67.94 453.73,236.68 1079.24,183.64 215.44,-18.29 373.2,-46.33 499.69,-78.55 0.79,-56.28 1.75,-115.48 2.65,-177.07z"/>
   <path class="fil16" d="M9067.44 2218.83l623.8 -228.49c198.27,13.21 407.03,30.98 680.55,72.5l439.31 225.84c0,0 23.31,546.5 2.13,1224.56 -21.24,678 -28.01,1260.15 -28.01,1260.15 -522.96,105.01 -1076.46,119.84 -1578.08,-73.61 0,0 -38.82,-36.3 -15.51,-144.95 23.29,-108.61 141.81,-767.84 141.81,-767.84 0,0 -110.78,-823.09 -266,-1568.16z"/>
   <path class="fil17" d="M10371.79 2062.84c-273.52,-41.52 -482.28,-59.29 -680.55,-72.5l-220.11 80.62c63.2,108.94 402.08,674.72 812.41,1020.24 0,0 223.74,-431.53 300.95,-918.97l-212.7 -109.39z"/>
   <path class="fil18" d="M9756.17 1199.04c0,0 77.59,501.68 -16.37,816.16 0,0 365.28,175.68 471.8,164.99 106.54,-10.7 132.74,-65.64 132.74,-65.64 0,0 -47.98,-121.99 -32.34,-378l-555.83 -537.51z"/>
   <path class="fil19" d="M9975.75 2117.64c175.98,-74.05 289.92,-180.99 334.41,-228.05 -0.63,-17.18 -1.09,-35.1 -1.09,-54.36l9.39 -287.11 -558.86 -345.75 -2.26 4.64c9.06,62.91 69.77,516.06 -17.54,808.19 0,0 115.76,55.69 235.95,102.44z"/>
   <path class="fil20" d="M10224.9 2188.16l37.36 -218.45c0,0 53.23,-106.59 69.22,-103.87 16.01,2.66 63.93,205.12 63.93,205.12 0,0 -47.94,118.52 -170.51,117.2z"/>
   <path class="fil20" d="M10198.33 2188.16l-85.28 -218.45c0,0 -319.66,-210.43 -362.27,-202.4 -21.6,4.05 -74.58,239.78 -74.58,239.78 0,0 101.23,191.75 522.13,181.07z"/>
   <path class="fil21" d="M10783.96 4785.41l0 -38.59c-87.2,14.38 -268.19,42.71 -588.33,54.56 -431.53,16.04 -703.24,-111.87 -703.24,-143.81 0,-32.01 103.89,-775.22 95.88,-903.02 -7.99,-127.89 -279.69,-1118.84 -279.69,-1118.84l-100.81 334.96c77.42,457.88 125.67,816.32 125.67,816.32 0,0 -118.52,659.23 -141.81,767.84 -23.31,108.65 15.51,144.95 15.51,144.95 501.62,193.45 1053.8,190.62 1576.82,85.63z"/>
   <path class="fil1" d="M9136.73 5492.64c0,0 37.94,60.61 51.97,113.27 13.59,51.03 34.37,152.81 45.75,189.62 11.41,36.8 15.47,47.71 12.06,52.88 -5.83,8.92 -35.85,16.68 -53.83,-39.1 -17.96,-55.65 -38.41,-144.11 -38.41,-144.11l-17.54 -172.56z"/>
   <path class="fil0" d="M9007.57 5521.99c0,0 -39.26,179.95 -37.82,338.75 1.42,158.85 13.8,178.19 29.43,175.89 15.64,-2.28 15.96,-35.37 12.34,-84.88l12.21 -82.77c5.12,-0.67 7.61,85.72 7.4,101.5 -0.21,15.7 3.05,124.29 27.83,122.87 23.7,-1.4 20.88,-78.78 19.19,-120.88 0,0 5.54,-104.64 12.86,-104.49 7.33,0.04 7.79,93.89 8.42,109.51 0.65,15.72 2.18,131.5 25.19,130.85 23.04,-0.67 29.44,-28.27 25.47,-126.88 0,0 -7.9,-118.81 -0.63,-117.98 20.59,-1.88 7.26,202.06 43.17,200.6 18.19,-0.75 18.38,-46.77 16,-106.6 -2.45,-61.13 -2.37,-80.51 -7.38,-123.35 -5.04,-42.88 -57.25,-324.33 -57.25,-324.33 0,0 -74.11,-55.17 -136.43,12.19z"/>
   <path class="fil0" d="M8679.21 4047.49c49.97,797.86 327.67,1474.5 327.67,1474.5l137.81 -7.31c4.04,-201.8 84.45,-654.72 55.95,-952.99 -28.52,-298.32 -52.66,-407.64 -63.28,-514.2 -10.62,-106.48 -458.15,0 -458.15,0z"/>
   <path class="fil17" d="M9078.13 2218.83c-301.79,93.53 -435.22,1211.35 -398.92,1828.66 53.29,905.78 267.75,1337.31 267.75,1337.31l210.8 -26.99c0,0 104.79,-489.82 76.25,-788.14 -28.5,-298.33 -74.64,-415.62 -85.28,-522.18 -10.62,-106.48 170.49,-639.3 223.78,-820.44 53.23,-181.07 -66.71,-1078.72 -294.38,-1008.22z"/>
   <polygon class="fil20" points="8946.96,5384.8 8978.22,5507.38 9159.39,5484.74 9157.76,5357.81 "/>
   <path class="fil10" d="M9010.29 5327.94c-66.68,-44.32 -212.14,-435.97 -260.5,-1346.75 -28.68,-541 73.57,-1462.48 300.39,-1750.55 -282.08,151.41 -406.12,1218.92 -370.97,1816.85 53.29,905.78 267.75,1337.31 267.75,1337.31l210.8 -26.99c0,0 3.76,-17.79 9.7,-48.46 0,0 -90.52,62.91 -157.17,18.59z"/>
   <polygon class="fil17" points="8978.22,5507.38 9054.98,5497.78 9038.3,5373.16 8946.96,5384.8 "/>
   <path class="fil11" d="M10606.24 940.39c0,0 160.68,-232.99 111.01,-512.38 -49.67,-279.44 -1413.66,-571.8 -1166.32,88.22 0,0 704.41,731.28 1055.31,424.16z"/>
   <path class="fil0" d="M9791.11 1266.01c15.22,103.11 26.4,172.21 44.65,225.77 69.79,178.69 273.52,279.14 273.52,279.14 59.05,41.99 259.71,35.63 302.75,3.25 40.69,-30.53 190.48,-356.09 205.01,-504.54 8.87,-90.95 -2.59,-169.87 -2.44,-234.62 0.25,-124.64 13.11,-213.58 3.57,-355.7 -9.36,-140.22 -179.61,-226.15 -390.62,-216.93 -483.23,21.18 -474.72,223.7 -436.44,803.63z"/>
   <path class="fil1" d="M9977.43 503.98c-191.01,138.51 -100.54,742.56 -64.77,872.44 63.47,250.83 266.26,368.33 266.26,368.33 130.67,70.96 250.63,9.22 250.63,9.22 -7.04,9.57 -13.15,16.95 -17.52,20.2 -43.04,32.38 -243.7,38.74 -302.75,-3.25 0,0 -203.73,-100.45 -273.52,-279.14 -18.25,-53.56 -29.43,-122.66 -44.65,-225.77 -29.96,-453.8 -41.63,-676.54 186.32,-762.03z"/>
   <path class="fil11" d="M9775.55 1071.45l17.12 123.69 49.68 4.64c0,0 -73.89,-558.75 66.02,-699.27 0,0 -216.88,-18.5 -132.82,570.94z"/>
   <path class="fil11" d="M9764.18 570.07c0,0 60.34,102.07 282.7,1.92 470.08,-211.68 566.3,52.58 566.3,52.58 0,0 -116.64,-582.87 -849,-54.5z"/>
   <path class="fil12" d="M10624.99 909.49c40.75,-71.77 131.23,-262.05 92.26,-481.48 -2.95,-16.58 -10.73,-33.26 -22.14,-49.78 -104.2,-137.48 -561.89,156.13 -672.82,203.92 242.98,-104.63 377.64,-107.9 462.52,-73.53 90.65,45.37 109.01,109.83 140.18,400.87z"/>
   <path class="fil22" d="M9616.2 2016.31c0,0 83.94,135.93 291.71,211.82 0,0 12.02,95.8 47.98,99.85 35.94,4.08 207.77,-95.88 207.77,-95.88 0,0 31.95,36.01 55.95,36.01 23.96,0 47.94,-44.03 47.94,-44.03 0,0 123.81,84 163.78,75.95 39.99,-7.97 -3.95,-179.8 -3.95,-179.8l-423.55 43.95 -354.32 -157.09 -33.31 9.22z"/>
   <path class="fil1" d="M9838.27 1212.17c-4.03,69.77 -63.8,121.99 -133.55,116.75 -69.72,-5.23 -122.99,-66.01 -118.96,-135.71 4.04,-69.7 63.81,-121.99 133.55,-116.74 69.75,5.23 123,66 118.96,135.7z"/>
   <path class="fil18" d="M9737.15 1265.19c-32.66,-4.2 -56.2,-33.99 -52.6,-66.58 3.49,-31.87 31.63,-54.15 63.3,-51.35 -8.26,-5.02 -17.48,-8.55 -27.62,-9.87 -38.53,-4.95 -73.25,22.33 -77.48,60.84 -4.28,38.49 23.57,73.67 62.1,78.63 18.33,2.34 35.5,-2.97 49.21,-12.92l-16.91 1.25z"/>
   <path class="fil12" d="M9781.53 1194.55l60.82 5.23c0,0 -48.13,-364.72 7.19,-578.89 -10.89,10.54 -60.59,47.86 -93.95,71.46 -11.38,130.77 -8.16,255.48 25.94,502.2z"/>
   <path class="fil11" d="M9560.11 457.67c0,0 -77.27,-85.11 -57.87,-169.72 19.42,-84.58 94.33,-126.77 94.33,-126.77 0,0 -193.93,80.82 -164.56,168.23 33.89,113.73 128.1,128.26 128.1,128.26z"/>
   <path class="fil23" d="M10394.26 920.92c-229.76,190.86 51.91,300.24 42.76,351.07 -13.26,73.15 -157.51,53.1 -157.51,53.1 17.54,48.76 174.46,30.17 186.02,-44.03 15.27,-97.8 -238.69,-83.85 -71.27,-360.14z"/>
   <path class="fil24" d="M10481.99 1443.82l-373.21 5.54c0,0 71.59,124.42 197.42,122.51 125.82,-1.84 175.79,-128.05 175.79,-128.05z"/>
   <path class="fil17" d="M10427.44 1458.2l-289.89 3.77c0,0 39.18,70.58 134.18,90.21 62.32,12.9 116.47,-21.03 116.47,-21.03l39.24 -72.95z"/>
   <polygon class="fil24" points="10110.71,1444.13 10119.09,1455.05 10104.37,1453.27 10101.11,1445.16 "/>
   <polygon class="fil24" points="10488.49,1448.04 10473.71,1448.92 10482.45,1438.45 10491.98,1440.14 "/>
   <path class="fil24" d="M10183.11 1067.83c44.65,-52.66 -17.61,-94.33 -74.45,-90.42 -65.86,4.58 -120.59,58.33 -127.99,83.34l11.54 6.5c0,0 182.18,12.75 190.9,0.58z"/>
   <path class="fil25" d="M10181.71 1071.08c5.51,-18.74 -15.75,-73.39 -73.43,-74.2 -58.91,-0.88 -117.05,57.53 -116.28,74.93 0.71,16.3 139.8,95.37 189.71,-0.73z"/>
   <path class="fil24" d="M10039.25 1055.67c-0.02,36.65 29.56,66.96 66.13,67.78 36.56,0.87 66.23,-28.19 66.25,-64.77 0.06,-36.65 -29.52,-66.97 -66.09,-67.84 -36.56,-0.82 -66.23,28.24 -66.29,64.83z"/>
   <path class="fil24" d="M10581.06 1058.91c43.26,-51.04 -16.7,-91.82 -71.79,-88 -63.85,4.43 -104.93,57.16 -112.1,81.43l11.21 6.28c0,0 164.22,12.08 172.68,0.29z"/>
   <path class="fil25" d="M10579.68 1062c5.36,-18.15 -15.3,-69.62 -71.14,-72.36 -55.86,-2.8 -101.13,56.51 -100.37,73.41 0.69,15.84 123.14,92.17 171.51,-1.05z"/>
   <path class="fil24" d="M10439.4 1045.05c-0.06,35.54 28.64,64.97 64.08,65.71 35.39,0.81 64.18,-27.29 64.22,-62.77 0.05,-35.54 -28.64,-64.91 -64.07,-65.71 -35.42,-0.81 -64.17,27.29 -64.23,62.77z"/>
   <path class="fil12" d="M10426.9 848.48c-3.2,22.73 37.86,18.67 95.58,26.78 57.75,8.12 104.14,31.13 107.34,8.41 5.45,-38.95 -36.99,-70.29 -94.77,-78.11 -74.76,-10.03 -104.95,20.22 -108.15,42.92z"/>
   <path class="fil22" d="M10298.47 3061.03c-23.92,-401.3 -74.37,-882.91 -74.97,-888.51l-31.78 3.39c0.61,5.6 52.14,497.91 75.66,901.05l16.16 14.24c0,0 5.73,-11.21 14.93,-30.17z"/>
   <path class="fil12" d="M9911.22 927.18c11.18,20.13 72.98,-21.39 162.27,-42.17 89.25,-20.81 158.16,-8.2 155.63,-41.69 -3.01,-39.22 -84.17,-49.84 -173.38,-28.69 -115.44,27.37 -157.38,89.32 -144.52,112.55z"/>
   <path class="fil26" d="M9649.51 2007.09l37.34 -42.7c117.18,162.55 580.7,295.67 705.89,93.23l29.33 29.35c-145.07,224.2 -605.96,121.32 -772.56,-79.88z"/>
   <path class="fil26" d="M10266.25 2174.21c0,32.39 -26.24,58.65 -58.62,58.65 -32.38,0 -58.64,-26.26 -58.64,-58.65 0,-32.38 26.26,-58.62 58.64,-58.62 32.38,0 58.62,26.24 58.62,58.62z"/>
   <path class="fil26" d="M10169.54 2145.01c0,0 -175.72,-98.68 -220.67,-80.83 -41.02,16.23 -36.94,201.94 8.97,215.86 33.36,10.12 215.52,-71.08 215.52,-71.08l-3.82 -63.95z"/>
   <path class="fil26" d="M10249.42 2137.27c0,0 126.24,-104.66 151.45,-94.33 25.25,10.33 45.03,187.41 22.06,199.87 -23.02,12.54 -169.87,-44.47 -169.87,-44.47l-3.64 -61.07z"/>
   <polygon class="fil17" points="11978.4,2530.15 12063.89,2395.93 12203.79,2459.86 12163.82,2615.7 "/>
   <path class="fil21" d="M10283.54 3091.2l119.44 125.23c0,0 -37.28,436.93 -53.27,740.58 -15.95,303.64 -10.66,868.35 -10.66,868.35l31.96 -10.68c0,0 -0.04,-639.3 15.98,-852.38 15.99,-213.15 58.64,-756.51 58.64,-756.51l-147.16 -144.76 -14.93 30.17z"/>
   <path class="fil21" d="M10221.83 3418.89c0,32.38 -26.24,58.56 -58.61,58.56 -32.34,0 -58.6,-26.18 -58.6,-58.56 0,-32.41 26.26,-58.64 58.6,-58.64 32.37,0 58.61,26.23 58.61,58.64z"/>
   <path class="fil21" d="M10184.57 3941.01c0,32.34 -26.22,58.54 -58.56,58.54 -32.38,0 -58.6,-26.2 -58.6,-58.54 0,-32.38 26.22,-58.66 58.6,-58.66 32.34,0 58.56,26.28 58.56,58.66z"/>
   <path class="fil21" d="M10179.22 4505.7c0,32.41 -26.26,58.66 -58.6,58.66 -32.35,0 -58.61,-26.25 -58.61,-58.66 0,-32.28 26.26,-58.54 58.61,-58.54 32.34,0 58.6,26.26 58.6,58.54z"/>
  </g>
 </g>
</svg>
