<?xml version="1.0" encoding="UTF-8"?>
<!DOCTYPE svg PUBLIC "-//W3C//DTD SVG 1.1//EN" "http://www.w3.org/Graphics/SVG/1.1/DTD/svg11.dtd">
<!-- Creator: CorelDRAW 2018 (64-Bit) -->
<svg xmlns="http://www.w3.org/2000/svg" xml:space="preserve" width="200mm" height="100mm" version="1.1" style="shape-rendering:geometricPrecision; text-rendering:geometricPrecision; image-rendering:optimizeQuality; fill-rule:evenodd; clip-rule:evenodd"
viewBox="0 0 20000 10000"
 xmlns:xlink="http://www.w3.org/1999/xlink">
 <defs>
  <style type="text/css">
   <![CDATA[
    .fil22 {fill:#2B85A6;fill-rule:nonzero}
    .fil15 {fill:#2F2F2F;fill-rule:nonzero}
    .fil3 {fill:#343434;fill-rule:nonzero}
    .fil14 {fill:#393939;fill-rule:nonzero}
    .fil6 {fill:#3B3B3B;fill-rule:nonzero}
    .fil12 {fill:#3D3D3D;fill-rule:nonzero}
    .fil5 {fill:#4A4A4A;fill-rule:nonzero}
    .fil19 {fill:#4E4E4E;fill-rule:nonzero}
    .fil21 {fill:#50A4C2;fill-rule:nonzero}
    .fil24 {fill:#545454;fill-rule:nonzero}
    .fil17 {fill:#575757;fill-rule:nonzero}
    .fil2 {fill:#606060;fill-rule:nonzero}
    .fil1 {fill:#676767;fill-rule:nonzero}
    .fil20 {fill:#71B9D3;fill-rule:nonzero}
    .fil9 {fill:#878787;fill-rule:nonzero}
    .fil8 {fill:#929292;fill-rule:nonzero}
    .fil16 {fill:#A5A5A5;fill-rule:nonzero}
    .fil18 {fill:#B6B6B6;fill-rule:nonzero}
    .fil4 {fill:#BBBBBB;fill-rule:nonzero}
    .fil10 {fill:#BEBEBE;fill-rule:nonzero}
    .fil13 {fill:#C3C3C3;fill-rule:nonzero}
    .fil23 {fill:#D2D2D2;fill-rule:nonzero}
    .fil11 {fill:#DADADA;fill-rule:nonzero}
    .fil0 {fill:#DBDBDB;fill-rule:nonzero}
    .fil7 {fill:#ECECEC;fill-rule:nonzero}
   ]]>
  </style>
 </defs>
 <g id="Layer_x0020_1">
  <metadata id="CorelCorpID_0Corel-Layer"/>
  <g id="_2907301738048">
   <path class="fil0" d="M10207.18 2464.41c217.44,79.53 153.36,955.2 166.57,1430.77 15.58,560.42 -73.4,1193.38 -73.4,1193.38l-176.49 -10.34c0,0 -103.72,-958.72 -116.79,-1208.47 -28.24,-539.65 -160.77,-1537.13 200.11,-1405.34z"/>
   <path class="fil1" d="M10148.13 1083.22c0,0 178.29,67.3 10.35,325.6 -120.66,185.61 -155.01,-465.03 -155.01,-465.03 0,0 121.39,29.1 144.66,139.43z"/>
   <path class="fil2" d="M9130.14 1364c0,0 33.6,217.13 93.93,333.35l180.85 -129.15 25.79 -598.55c0,0 -295.48,190.13 -300.57,394.35z"/>
   <path class="fil2" d="M9002.93 1643.42c60.96,-138.7 260.72,-185.11 446.23,-103.66 185.55,81.52 286.54,260.03 225.62,398.73 -60.98,138.78 -260.74,185.16 -446.25,103.64 -185.51,-81.45 -286.54,-259.95 -225.6,-398.71z"/>
   <path class="fil3" d="M10195.47 9556.47c0,0 61.98,83.76 190.7,133.98 128.81,50.27 206.87,38.99 201.56,72.54 -5.38,33.54 -485.57,16.74 -485.92,-22.33 -0.28,-39.02 21.69,-94.91 15.44,-184.19 -6.17,-89.34 78.22,0 78.22,0z"/>
   <path class="fil3" d="M9484.93 9556.47c14.24,115.37 51.07,172.97 56.75,206.52 5.68,33.54 -310.42,37.2 -320.08,0 -9.63,-37.22 185.11,-98.63 189.42,-206.52 4.38,-107.95 73.91,0 73.91,0z"/>
   <path class="fil4" d="M10008.36 3727.39c-139.56,-184.25 292.2,-515.58 307.14,-619.81 14.95,-104.23 -83.82,-333.15 -83.82,-333.15l-14.87 -305.13c-491.31,-201.05 -744.44,-156.37 -1176.22,37.14 0,0 -52.12,178.71 67.01,521.2 116.92,336.08 442.92,526.64 347.32,699.75 0,0 508.76,279.13 553.44,0z"/>
   <path class="fil5" d="M8843.48 4799.38c17.77,-146.83 114.57,-333.15 225.95,-506.26l1252.83 0c102.93,181.8 174.96,355.12 196.22,506.26 88.23,626.85 -212.89,1572.4 -312.09,2233.38 -131.8,878.39 -10.92,2523.71 -10.92,2523.71l-78.22 0c0,0 -420.13,-1285.6 -382.34,-1642.93 37.77,-357.36 82.32,-697.04 83.74,-880.78 1.37,-180.36 -98.55,-1786.68 -98.55,-1786.68 -43.45,760.01 -24.41,995.41 -72.18,1786.68 -101.86,1083.19 -162.99,2523.71 -162.99,2523.71l-73.91 0c-135.19,-647.69 -340.82,-1251.7 -276.83,-1608.97 64.04,-357.36 187.35,-739.76 176.27,-896.13 -11.08,-156.31 -568.24,-1414.46 -466.98,-2251.99z"/>
   <path class="fil6" d="M10400.47 4440.57c38.79,78.88 70.33,155.32 91.44,228.15 -81.02,37.77 -337.44,136.17 -809.43,136.17 -312.32,0 -607.58,-56.6 -815.54,-109.17 32.21,-104.66 90.97,-220.65 159.83,-334.23l1373.7 79.08z"/>
   <path class="fil7" d="M10008.36 3727.39c200.98,316.41 387.08,625.35 460.42,871 -486,133.33 -1010.19,124.41 -1565.52,0 107.53,-297.8 355.34,-643.37 538.37,-855.69l4.03 -4.68 5.37 -6.25 3.89 -4.38c95.6,-173.11 -230.4,-363.67 -347.32,-699.75 -119.13,-342.49 -67.01,-521.2 -67.01,-521.2 431.78,-193.51 684.91,-238.19 1176.22,-37.14l14.87 305.13c0,0 98.77,228.92 83.82,333.15 -14.94,104.23 -446.7,435.56 -307.14,619.81z"/>
   <path class="fil8" d="M9394.18 1661.52c0,0 117.18,440.39 16.7,745.43l309.88 53.45 191.72 1.51c0,0 -76.07,-220.08 -60.42,-476.08 11.43,-187.69 -457.88,-324.31 -457.88,-324.31z"/>
   <path class="fil9" d="M9468.05 1686.07c131.68,47.34 392.55,159.25 384.01,299.76 -4.46,71.89 -1.44,140.63 4.89,202.83 -49.92,42.09 -201.13,157.6 -419.84,222.81l-26.23 -4.52c77.29,-234.6 25.94,-548.42 -1.93,-681.21l59.1 -39.67z"/>
   <polygon class="fil10" points="9720.82,2459.89 9803.65,2281.18 9882.73,2211.43 9958.14,2381.75 9878.55,2526.9 "/>
   <polygon class="fil10" points="9628.66,2284.91 9720.82,2459.89 9554.75,2540.91 9364.89,2383.17 9427.7,2203.1 "/>
   <polygon class="fil7" points="9628.66,2284.91 9556.06,2508.31 9364.89,2383.17 9427.7,2203.1 "/>
   <path class="fil11" d="M9917.93 3250.8c246.29,-19.18 342.47,-70.9 379.04,-102.13 -82.68,132.59 -413.31,414.1 -288.61,578.72 55.52,87.35 109.54,173.9 160.68,258.95 -113.35,-141.94 -243.57,-247.45 -378.18,-241.05 -318.14,15.06 -560.01,651.26 -642.62,899.93 -81.01,-13.29 -162.56,-28.36 -244.98,-46.83 107.53,-297.8 355.34,-643.37 538.37,-855.69l4.03 -4.68 5.37 -6.25 3.89 -4.38c95.6,-173.11 -230.4,-363.67 -347.32,-699.75 -119.13,-342.49 -67.01,-521.2 -67.01,-521.2 121.05,602.5 514.73,772.66 877.34,744.36z"/>
   <polygon class="fil7" points="9803.65,2281.18 9866.93,2484.1 9958.14,2381.75 9882.73,2211.43 "/>
   <path class="fil12" d="M9511.73 7069.39c40.8,-376.74 63.99,-1809.24 63.99,-1809.24l-113.04 -100.55 514.93 0 -150.69 100.55c0,0 139.49,1634.48 115.28,1772.61 -24.13,138.13 -92.86,541.15 -74.7,879.84 20.18,378.47 221.1,1340.25 286.38,1643.87l-36.63 0c0,0 -370.27,-857.77 -404.33,-1638.56 -15.01,-345.87 103.88,-764.61 105.73,-885.15 2.73,-180.3 -98.61,-1786.68 -98.61,-1786.68 0,0 -18.75,966.68 -72.12,1786.68 32.54,1588.42 -130.02,1743.43 -162.99,2523.71l-73.91 0c162.77,-1417.54 62.15,-2130.66 100.71,-2487.08z"/>
   <path class="fil10" d="M9734.62 2453.87c9.33,21.17 229.78,522.11 239.18,683.09 4.75,80.02 -34.9,166.21 -76.84,257.5 -44.84,97.55 -91.16,198.4 -86.41,298.31 3.15,65.36 15.15,151.27 30.38,260.1 26.14,186.38 60.33,432.2 72.26,736.25 -10,0.63 -20.12,0.78 -30.1,1.28 -11.85,-302.68 -45.97,-547.69 -71.97,-733.38 -15.37,-109.52 -27.51,-196.08 -30.69,-262.82 -5.09,-107.24 42.82,-211.45 89.14,-312.3 40.38,-87.77 78.46,-170.66 74.14,-243.21 -9.12,-155.6 -234.46,-667.6 -236.68,-672.69l27.59 -12.13z"/>
   <path class="fil13" d="M9235.51 6800.97c-5.21,-15.31 -10.67,-31.26 -16.27,-47.71 5.6,16.45 11.02,32.34 16.27,47.71l0 0z"/>
   <path class="fil14" d="M9235.51 6800.97c-5.25,-15.37 -10.67,-31.26 -16.27,-47.71 -13.21,-38.78 -27.44,-80.5 -42.37,-124.75 104.56,8.39 226.25,15.52 361.23,18.73 -2.1,48.85 -4.32,95.68 -6.54,139.86 -43.82,-10.06 -85.19,-14.01 -123.12,-14.01 -73.38,0 -133.65,14.73 -172.93,27.88z"/>
   <path class="fil15" d="M9659.12 6832.85c-44.02,-21.76 -86.84,-36.4 -127.56,-45.75 2.22,-44.18 4.44,-91.01 6.54,-139.86 42.08,1.02 85.47,1.59 130,1.82 -2.58,57.94 -5.54,119.01 -8.98,183.79z"/>
   <polygon class="fil6" points="9977.61,4738.97 9895.51,4603.93 9817.51,4748.37 "/>
   <path class="fil5" d="M8771.95 6580.15c0,0 844.01,155.01 1842.94,0 0,0 41.86,-1362.88 -139.21,-1981.76 -181.15,-618.95 -506.68,-825.6 -498.07,-954.75 8.63,-129.23 314.05,-426.17 337.89,-536.06 23.78,-109.83 -83.82,-333.15 -83.82,-333.15 -267.79,83.11 -589.07,64.44 -934.37,0 0,0 8.57,434.28 -60.31,503.16 0,0 211.73,271.31 211.73,383.22 0,111.98 -488.95,608.39 -607.86,1067.87 -189.44,731.94 -68.92,1851.47 -68.92,1851.47z"/>
   <polygon class="fil5" points="9297.31,2774.43 9297.31,2402.07 9359.02,2383.4 9447.94,2812.51 "/>
   <polygon class="fil5" points="10231.68,2774.43 10029.27,2399.2 9963.26,2380.59 10111.08,2829.75 "/>
   <path class="fil4" d="M9955.64 2142.12c42.01,-8.41 99.55,-90.87 137.62,-134.47 80.81,-92.58 153.42,-202.98 80.08,-424.87 0,0 126.5,-597.11 -356.4,-607.88 -482.88,-10.77 -521.26,470.4 -386.31,818.56 134.97,348.09 485.06,356.64 525.01,348.66z"/>
   <path class="fil16" d="M9695.89 985.24c-331.23,87.35 -295.25,1114.65 264.7,1154.94l-4.95 1.94c-39.95,7.98 -390.04,-0.57 -525.01,-348.66 -122.49,-316.11 -100.95,-740.64 265.26,-808.22z"/>
   <path class="fil16" d="M9286.86 1728.95c2.42,56.32 50.09,100.08 106.43,97.69 56.38,-2.44 100.11,-50.12 97.69,-106.44 -2.38,-56.38 -50.07,-100.14 -106.45,-97.7 -56.34,2.39 -100.09,50.07 -97.67,106.45z"/>
   <path class="fil8" d="M9386.08 1658.36c14.76,-0.65 27.96,4.58 39.32,12.28l-17.61 -2.81c-31.34,1.36 -55.63,27.87 -54.29,59.13 1.35,31.31 27.8,55.66 59.11,54.3l13.5 -3.32c-9.98,6.96 -21.26,12.22 -34.35,12.79 -36.55,1.59 -67.43,-26.8 -69.02,-63.35 -1.57,-36.56 26.79,-67.45 63.34,-69.02z"/>
   <path class="fil8" d="M9991.98 1386.85c0,0 -87.71,91.78 -63.79,206.5 23.93,114.77 123.7,137.7 123.7,137.7 0,0 -19.9,84.17 -95.76,87.98 -75.85,3.89 55.89,-80.3 55.89,-80.3 0,0 -105.65,-58.12 -119.74,-141.51 -19.98,-118.51 99.7,-210.37 99.7,-210.37z"/>
   <path class="fil2" d="M9605.39 1039.04c0,0 -130.51,52.57 -151.77,233.52 -21.26,180.87 31.74,363.3 -9.49,373.64 -21.26,5.32 -74.44,-31.88 -74.44,-31.88 0,0 -202.14,-563.86 138.31,-638.34l97.39 63.06z"/>
   <path class="fil2" d="M9769.46 1368.89c2.16,11.05 -40.89,11.2 -120.25,32.03 -72.47,19.03 -125.35,46.91 -128.22,35.97 -2.87,-10.83 34.7,-49.84 119.46,-73.17 81.89,-22.56 124.84,-16.17 129.01,5.17z"/>
   <path class="fil2" d="M10220.4 1433.74c-1.08,7.75 -54.51,-20.55 -109.4,-34.98 -54.17,-14.3 -107.59,-25.64 -106.96,-35.04 0.51,-7.99 14.09,-15.6 39.15,-15.46 153.14,17.59 178.85,74.14 177.21,85.48z"/>
   <polygon class="fil17" points="9773.61,1897.32 9757.02,1899.05 9752.64,1889.93 9761.76,1885.55 "/>
   <polygon class="fil17" points="10069.42,1879.3 10085.56,1875.21 10086.58,1865.23 10076.52,1864.21 "/>
   <path class="fil1" d="M9764.78 1894.1l311.66 -18.75c0,0 -45.75,96.39 -145.23,104.37 -99.49,7.96 -166.43,-85.62 -166.43,-85.62z"/>
   <path class="fil17" d="M9764.78 1894.1l311.66 -18.75c0,0 -45.75,96.39 -145.23,104.37 -99.49,7.96 -166.43,-85.62 -166.43,-85.62z"/>
   <path class="fil7" d="M9788.13 1901.27l252.42 -15.58c0,0 -44.27,83.83 -128.07,82.32 -83.91,-1.51 -124.35,-66.74 -124.35,-66.74z"/>
   <path class="fil18" d="M9788.13 1901.27l252.42 -15.58 -13.16 19.83c0,0 -28.01,-13.8 -110.82,-7.12 -82.83,6.68 -115.45,19.12 -115.45,19.12l-12.99 -16.25z"/>
   <path class="fil2" d="M10085.28 976.47c0,0 -16.23,95.82 -157.66,133.24 -326.81,86.27 -428.54,98.63 -511.79,376.03 0,0 -70.45,-305.76 105.31,-467.61 104,-95.82 298.39,-175.53 564.14,-41.66z"/>
   <path class="fil2" d="M9466.77 1209.2c-5.76,19.18 -10.42,40.15 -13.15,63.36 -21.2,180.87 31.74,363.3 -9.49,373.64 -21.26,5.32 -74.44,-31.96 -74.44,-31.96 0,0 -75.11,-171.67 -72.38,-338.89 78.55,-0.92 118.23,-27.37 169.46,-66.15z"/>
   <path class="fil19" d="M9785.83 1587.02c0,0 -8.55,54.01 -107.89,46.76 -85.48,-6.16 -112.13,-53.16 -87.05,-45.83 25.13,7.27 194.94,-0.93 194.94,-0.93z"/>
   <path class="fil19" d="M9795.6 1557.57l-208.51 -22.76 -47.77 -4.83c34.84,-61.61 241.91,-97.18 256.28,27.59z"/>
   <path class="fil7" d="M9786.34 1558.57c-5.25,-31.23 -23.27,-67.72 -99.06,-64.71 -105.73,4.18 -117.5,69.45 -98.91,98.41 32.9,51.15 214.2,62.57 197.97,-33.7z"/>
   <path class="fil19" d="M9653.01 1560.16c0.72,39.36 33.19,70.67 72.55,69.96 39.36,-0.65 70.69,-33.19 70.04,-72.55 -0.71,-39.35 -33.19,-70.67 -72.54,-69.96 -39.36,0.72 -70.76,33.19 -70.05,72.55z"/>
   <path class="fil19" d="M9989.03 1578.4c0,0 -0.42,56.61 98.12,42.54 59.84,-8.55 78.09,-55.18 53.23,-47 -24.84,8.21 -151.35,4.46 -151.35,4.46z"/>
   <path class="fil19" d="M9985.88 1547.37l165.27 -27.65 36.71 -7.53c-37,-60.41 -188.63,-83.97 -201.98,35.18z"/>
   <path class="fil7" d="M9987.46 1549.96c5.1,-31.24 29.16,-66.52 105.01,-66.22 69.67,1.86 74.99,62.7 59.47,93.44 -30.01,59.19 -179.42,64.22 -164.48,-27.22z"/>
   <path class="fil19" d="M10162.79 1543.5c0.72,38.57 -30.03,70.45 -68.67,71.1 -38.65,0.72 -70.45,-30.01 -71.19,-68.65 -0.63,-38.59 30.1,-70.47 68.68,-71.12 38.65,-0.72 70.47,30.03 71.18,68.67z"/>
   <path class="fil20" d="M9138.88 1417.71c0,0 45.87,-310.44 546.24,-407.4 368.78,-71.47 457.56,79.59 457.56,79.59l-116.28 -849.24c-211.27,-260.52 -995.01,-42.88 -1092.17,226.25 49.74,349.68 115.87,670.33 204.65,950.8z"/>
   <path class="fil21" d="M10142.68 1089.9l-25.64 -187.91c-87.49,-62.57 -245.8,-122.62 -501.51,-61.41 -358.44,85.82 -499.9,286.23 -534.56,376.03 18.18,69.02 37.36,136.25 57.91,201.1 0,0 45.87,-310.44 546.24,-407.4 368.78,-71.47 457.56,79.59 457.56,79.59z"/>
   <path class="fil22" d="M9242.35 218.47c-151.79,63.48 -273.53,152.62 -308.12,248.44 49.74,349.68 115.87,670.33 204.65,950.8 0,0 25.73,-171.72 244.8,-299.65 -70.59,-331.5 -122.51,-741.14 -141.33,-899.59z"/>
   <path class="fil21" d="M9349.15 942.65c-166.9,94.03 -243.91,211.02 -268.18,273.96 18.18,69.02 37.36,136.25 57.91,201.1 0,0 25.73,-171.72 244.8,-299.65 -12.06,-56.75 -23.62,-115.73 -34.53,-175.41z"/>
   <path class="fil22" d="M9483.79 793.61c31.32,1.71 -29.52,-511.15 -46.62,-638.36 -29.16,6.96 -58.13,14.88 -86.56,23.7 29.73,164.58 104.6,613.15 133.18,614.66z"/>
   <path class="fil22" d="M9766.28 733.54c30.61,1.67 -25.84,-469.4 -40.86,-609.18 -26.8,-1.08 -54.22,-0.86 -82.24,0.65 18.81,137.48 92.44,606.96 123.1,608.53z"/>
   <path class="fil22" d="M10015.6 770.33c24.8,1.8 -31.23,-413.45 -48.33,-580.45 0,0 -38.71,-25.23 -74.71,-37.22 17.02,130.37 95.62,615.66 123.04,617.67z"/>
   <path class="fil1" d="M10149.86 1100.24c0,0 2.88,-126.28 -99.05,-87.57 0,0 -68.96,-129.21 -284.22,-86.11 -215.28,43.09 -294.36,244.07 -312.97,346 0,0 149.33,-117.73 321.58,-178 172.26,-60.33 279.92,-51.71 279.92,-51.71l94.74 57.39z"/>
   <path class="fil13" d="M9811.69 6835.58c-2.59,-55.01 -5.74,-118.29 -9.41,-187.4l0 0c3.67,69.11 6.82,132.45 9.41,187.4l0 0zm434.28 -31.03c-0.08,-0.06 -0.14,-0.06 -0.23,-0.06 11.37,-59.55 23.64,-120.68 36.57,-182.88l0.08 0c-12.86,62.2 -25.08,123.26 -36.42,182.94z"/>
   <path class="fil14" d="M9811.69 6835.58c-2.59,-54.95 -5.74,-118.29 -9.41,-187.4 0.23,0 0.37,0 0.57,0 3.67,68.96 6.82,132.24 9.35,187.12 -0.15,0.08 -0.29,0.14 -0.51,0.28zm434.05 -31.09c-69.22,-20.91 -132.08,-28.81 -187.6,-28.81 -44.53,0 -84.34,5.09 -118.95,12.71 -2.16,-43.96 -4.81,-92.22 -7.84,-143.73 112.35,-4.16 229.71,-11.57 350.96,-23.05 -12.93,62.2 -25.2,123.33 -36.57,182.88z"/>
   <path class="fil15" d="M9812.2 6835.3c-2.53,-54.88 -5.68,-118.16 -9.35,-187.12 42.03,-0.71 84.91,-1.87 128.5,-3.52 3.03,51.51 5.68,99.77 7.84,143.73 -57.11,12.64 -100.14,32.11 -126.99,46.91z"/>
   <path class="fil14" d="M9802.28 6648.18c-1.3,-23.84 -2.58,-48.42 -3.95,-73.54l510.55 -79.17c-9.04,42.6 -17.95,84.62 -26.49,126.14l-0.08 0c-121.25,11.48 -238.61,18.89 -350.96,23.05 -43.59,1.65 -86.47,2.81 -128.5,3.52 -0.2,0 -0.34,0 -0.57,0l0 0z"/>
   <path class="fil2" d="M9446.57 1444.73c0,0 14.3,-152.14 126.28,-212.4 111.99,-60.27 327.92,-95.88 404.76,-134.9 90.44,-45.97 76.07,-83.31 76.07,-83.31 0,0 -11.42,-17.17 -37.28,-40.16 0,0 -5.83,34.48 -76.13,63.21 -199.62,81.52 -298.45,57.39 -416.18,129.15 -140.45,85.61 -77.52,278.41 -77.52,278.41z"/>
   <path class="fil1" d="M9480.98 1098.88c0,0 -100.86,237.96 -168.12,235.37 -67.25,-2.58 -75.05,-160.32 168.12,-235.37z"/>
   <path class="fil12" d="M10614.89 6580.15c0,0 1.08,-43.02 1.85,-116.28 -184.88,18.53 -948.64,88.06 -1382.74,19.83 -60.85,-1812.9 245.56,-2724.06 570.93,-2738.41 108.69,-4.83 214.71,53.57 312.32,143.13 -83.61,-115.77 -136.55,-187.89 -132.74,-244.86 6.97,-104.51 201.33,-318.85 290.55,-455.11 -62.85,24.86 -165.49,50.21 -333.57,62.35 -227.7,16.53 -466.47,-35.7 -651.78,-201.56 -7.8,101.3 -23.05,198.69 -52.71,228.35 0,0 211.73,314.34 211.73,383.22 0,68.88 -524.89,747.23 -607.86,1067.87 -189.44,732.02 -68.92,1851.47 -68.92,1851.47 0,0 844.01,155.01 1842.94,0z"/>
   <path class="fil16" d="M9117.13 5140.34c0,0 31.44,50.13 43.02,93.66 11.24,42.25 28.43,126.43 37.86,156.89 9.42,30.37 12.78,39.43 9.95,43.73 -4.82,7.41 -29.66,13.81 -44.53,-32.31 -14.84,-46.12 -31.76,-119.24 -31.76,-119.24l-14.54 -142.73z"/>
   <path class="fil4" d="M9010.32 5164.61c0,0 -32.48,148.84 -31.3,280.21 1.18,131.39 11.43,147.4 24.38,145.54 12.9,-1.95 13.17,-29.32 10.18,-70.26l10.09 -68.46c4.24,-0.57 6.3,70.9 6.15,83.91 -0.18,12.99 2.53,102.78 23.01,101.64 19.61,-1.08 17.29,-65.15 15.88,-99.99l10.63 -86.41c6.07,0.08 6.46,77.65 6.99,90.64 0.5,12.93 1.77,108.75 20.8,108.18 19.06,-0.57 24.38,-23.33 21.06,-104.94l-0.51 -97.61c17.04,-1.51 6.01,167.15 35.75,165.98 15.05,-0.63 15.17,-38.7 13.22,-88.2 -2.02,-50.56 -2.02,-66.64 -6.13,-102.07 -15.94,-138.05 -47.32,-268.19 -47.32,-268.19 0,0 -61.33,-45.7 -112.88,10.03z"/>
   <polygon class="fil4" points="9123.2,5154.58 9118.25,4999.34 8980.71,5014.94 9009.28,5180.92 "/>
   <path class="fil7" d="M9058.33 2494.51c-217.48,79.45 -225.23,955.19 -238.45,1430.77 -15.57,560.41 145.26,1193.38 145.26,1193.38l176.47 -10.35c0,0 31.86,-958.72 44.93,-1208.52 28.24,-539.59 232.61,-1537.08 -128.21,-1405.28z"/>
   <path class="fil23" d="M8819.88 3925.28c12.44,-447.36 20.1,-1242.92 201.94,-1407.7 -124.67,279.7 -123.94,960.34 -130.41,1368.91 -8.74,551.01 143.91,1166.93 158.18,1227.2l-84.45 4.97c0,0 -160.83,-632.97 -145.26,-1193.38z"/>
   <path class="fil24" d="M9417.84 4625.33l998.94 0c0,0 137.76,620.03 -473.64,637.26 -645.61,18.18 -525.3,-637.26 -525.3,-637.26z"/>
  </g>
 </g>
</svg>
